G04*
G04 #@! TF.GenerationSoftware,Altium Limited,Altium Designer,22.2.1 (43)*
G04*
G04 Layer_Physical_Order=1*
G04 Layer_Color=3707366*
%FSLAX44Y44*%
%MOMM*%
G71*
G04*
G04 #@! TF.SameCoordinates,05D4EE7A-A614-4991-951A-A7459AF70658*
G04*
G04*
G04 #@! TF.FilePolarity,Positive*
G04*
G01*
G75*
%ADD13R,0.8500X0.9000*%
%ADD14R,1.7000X1.7000*%
%ADD15R,0.3000X0.7000*%
%ADD16R,0.7000X0.3000*%
%ADD20R,1.2700X0.7600*%
%ADD21R,0.9000X0.8500*%
%ADD22R,0.5000X0.4500*%
%ADD23R,1.6000X1.3000*%
%ADD24R,1.6000X2.0000*%
%ADD25R,1.3000X1.6000*%
%ADD26R,2.0000X1.6000*%
%ADD27R,0.4500X0.5000*%
%ADD47R,1.8000X1.8000*%
%ADD48R,0.2400X0.8500*%
%ADD49R,0.8500X0.2400*%
%ADD50R,2.0000X1.5000*%
%ADD51C,0.3000*%
%ADD52C,0.2500*%
%ADD53C,0.6000*%
G36*
X29000Y118500D02*
X29000Y118500D01*
X29000D01*
X28975Y117240D01*
X28500Y116094D01*
Y113906D01*
X29337Y111884D01*
X30884Y110337D01*
X31727Y109988D01*
X31975Y108743D01*
X30866Y107634D01*
X29982Y106311D01*
X29970Y106250D01*
X22500D01*
Y114000D01*
X18250D01*
Y127000D01*
X17500D01*
Y129094D01*
X16822Y130730D01*
X17437Y132000D01*
X22500D01*
Y141922D01*
X29000D01*
Y118500D01*
D02*
G37*
G36*
X189000Y97000D02*
X181520D01*
X180250Y97000D01*
Y110000D01*
Y123230D01*
X180250Y124000D01*
X180250D01*
Y124500D01*
X180250D01*
Y137500D01*
X189000D01*
Y97000D01*
D02*
G37*
G36*
X56116Y128116D02*
X56116Y128116D01*
X57439Y127232D01*
X59000Y126922D01*
X75017D01*
X76050Y126350D01*
Y113750D01*
X76050D01*
Y113650D01*
X76050D01*
Y101050D01*
X76050Y101050D01*
Y100950D01*
X76050D01*
X76050Y99780D01*
Y88350D01*
X76050D01*
Y88250D01*
X76050D01*
Y76820D01*
X76050Y75650D01*
X76050D01*
Y75550D01*
X76050D01*
Y72250D01*
X69644D01*
X69250Y72328D01*
X69250Y72328D01*
X67439D01*
X65750Y74018D01*
X65646Y75038D01*
X65867Y75589D01*
X67163Y76884D01*
X68000Y78906D01*
Y81094D01*
X67672Y81885D01*
X68250Y82750D01*
X68250D01*
Y90250D01*
X70750D01*
Y97750D01*
Y107750D01*
X66394D01*
X66000Y107828D01*
X59750D01*
X58189Y107518D01*
X56866Y106634D01*
X56866Y106634D01*
X56482Y106250D01*
X53030D01*
X53018Y106311D01*
X52134Y107634D01*
X52134Y107634D01*
X48884Y110884D01*
X47561Y111768D01*
X46000Y112078D01*
X46000Y112078D01*
X39886D01*
X39180Y113134D01*
X39500Y113906D01*
Y116094D01*
X39030Y117230D01*
X39878Y118500D01*
X50000D01*
Y132501D01*
X50642Y132855D01*
X51270Y132962D01*
X56116Y128116D01*
D02*
G37*
G36*
X48000Y82500D02*
Y71000D01*
X28500D01*
Y67078D01*
X27112D01*
X26094Y67500D01*
X23906D01*
X21885Y66663D01*
X20337Y65115D01*
X19500Y63094D01*
Y60906D01*
X20337Y58885D01*
X21177Y58045D01*
Y47012D01*
X20522Y46384D01*
X19997Y46126D01*
X19094Y46500D01*
X16906D01*
X14885Y45663D01*
X13337Y44116D01*
X12500Y42094D01*
Y39906D01*
X13337Y37885D01*
X14885Y36337D01*
X16906Y35500D01*
X18639D01*
X20342Y33797D01*
X21583Y32968D01*
X23046Y32677D01*
X27662D01*
X28427Y31450D01*
Y26801D01*
X26885Y26163D01*
X25337Y24615D01*
X24500Y22594D01*
Y20406D01*
X25337Y18384D01*
X26885Y16837D01*
X28906Y16000D01*
X31094D01*
X33115Y16837D01*
X34663Y18384D01*
X35466Y20324D01*
X37456Y19500D01*
X37687D01*
X38750Y19000D01*
X38750Y18735D01*
Y7000D01*
X7000D01*
Y69000D01*
X22500D01*
Y72422D01*
X26000D01*
X26394Y72500D01*
X32000D01*
Y77500D01*
Y87000D01*
X48000D01*
Y82500D01*
D02*
G37*
G36*
X54000Y67422D02*
X60811D01*
X62866Y65366D01*
X62866Y65366D01*
X64189Y64482D01*
X65000Y64321D01*
Y58750D01*
X65922D01*
Y56700D01*
X65337Y56115D01*
X64500Y54094D01*
Y51906D01*
X64769Y51256D01*
X64064Y50200D01*
X62200D01*
Y61500D01*
X54800D01*
Y48000D01*
X60000D01*
Y42800D01*
Y30000D01*
X42000D01*
Y37800D01*
Y48000D01*
X52200D01*
Y54129D01*
X52323Y54750D01*
Y59769D01*
X52200Y60390D01*
Y61500D01*
X51854D01*
X51574Y61919D01*
Y64750D01*
X51500Y65119D01*
Y67500D01*
X53606D01*
X54000Y67422D01*
D02*
G37*
G36*
X160254Y148730D02*
X158884Y148163D01*
X157337Y146615D01*
X156500Y144594D01*
Y142406D01*
X157337Y140385D01*
X157499Y140223D01*
X157013Y139050D01*
X152250D01*
Y126450D01*
X152250D01*
Y126350D01*
X152250D01*
Y113750D01*
X152250D01*
Y113650D01*
X152250D01*
Y101050D01*
X152250D01*
Y100950D01*
X152250D01*
Y88350D01*
X152250D01*
Y88250D01*
X152250D01*
Y75650D01*
X152250D01*
Y75550D01*
X152250D01*
Y62950D01*
X155919D01*
X156624Y61894D01*
X156500Y61594D01*
Y59406D01*
X157337Y57385D01*
X158884Y55837D01*
X160254Y55270D01*
X160002Y54000D01*
X153500D01*
Y37119D01*
X153441Y36823D01*
X131000D01*
X129537Y36532D01*
X128770Y36020D01*
X127500Y36624D01*
Y54000D01*
X105427D01*
X104941Y55173D01*
X113884Y64116D01*
X113884Y64116D01*
X114768Y65439D01*
X115078Y67000D01*
Y128300D01*
X115663Y128884D01*
X116500Y130906D01*
Y133094D01*
X115663Y135115D01*
X114115Y136663D01*
X112094Y137500D01*
X109906D01*
X108765Y137028D01*
X107768Y137561D01*
X106884Y138884D01*
X106884Y138884D01*
X98884Y146884D01*
X98162Y147366D01*
X97906Y148850D01*
X97931Y148931D01*
X99000Y150000D01*
X160002D01*
X160254Y148730D01*
D02*
G37*
G36*
X189000Y31500D02*
X186500Y29000D01*
Y25000D01*
X174907D01*
X171204Y28704D01*
X169963Y29532D01*
X168500Y29823D01*
X159527D01*
X159001Y31093D01*
X159954Y32046D01*
X160591Y33000D01*
X178500D01*
Y52000D01*
X189000D01*
Y31500D01*
D02*
G37*
G36*
X169500Y19593D02*
Y7000D01*
X136500D01*
Y19593D01*
X139084Y22177D01*
X166916D01*
X169500Y19593D01*
D02*
G37*
G36*
X110251Y25907D02*
X109500Y24094D01*
Y21906D01*
X110337Y19885D01*
X111884Y18337D01*
X113906Y17500D01*
X115850D01*
X116251Y17232D01*
X117812Y16922D01*
X118500Y15970D01*
Y7000D01*
X73438D01*
X72822Y8270D01*
X73500Y9906D01*
Y12094D01*
X73163Y12907D01*
X74012Y14177D01*
X86460D01*
X87923Y14468D01*
X89164Y15296D01*
X101044Y27177D01*
X109739D01*
X110251Y25907D01*
D02*
G37*
D13*
X186500Y117000D02*
D03*
X173500D02*
D03*
X11500Y120000D02*
D03*
X24500D02*
D03*
X186500Y131500D02*
D03*
X173500D02*
D03*
X186500Y104000D02*
D03*
X173500D02*
D03*
X45500Y12000D02*
D03*
X32500D02*
D03*
D14*
X40000Y79000D02*
D03*
D15*
X32500Y65000D02*
D03*
X37500D02*
D03*
X42500D02*
D03*
X47500D02*
D03*
Y93000D02*
D03*
X42500D02*
D03*
X37500D02*
D03*
X32500D02*
D03*
D16*
X26000Y86500D02*
D03*
Y81500D02*
D03*
Y76500D02*
D03*
Y71500D02*
D03*
X54000D02*
D03*
Y76500D02*
D03*
Y81500D02*
D03*
Y86500D02*
D03*
D20*
X84900Y132750D02*
D03*
X161100D02*
D03*
X84900Y120050D02*
D03*
X161100D02*
D03*
X84900Y107350D02*
D03*
X161100D02*
D03*
X84900Y94650D02*
D03*
X161100D02*
D03*
X84900Y81950D02*
D03*
X161100D02*
D03*
X84900Y69250D02*
D03*
X161100D02*
D03*
D21*
X72000Y65500D02*
D03*
Y78500D02*
D03*
D22*
X63250Y87500D02*
D03*
X70750D02*
D03*
X50250Y101500D02*
D03*
X57750D02*
D03*
X78250Y48000D02*
D03*
X85750D02*
D03*
Y33000D02*
D03*
X78250D02*
D03*
X25250Y101500D02*
D03*
X32750D02*
D03*
D23*
X68500Y118500D02*
D03*
Y143500D02*
D03*
D24*
X39500Y131000D02*
D03*
D25*
X102500Y14500D02*
D03*
X127500D02*
D03*
X153500D02*
D03*
X178500D02*
D03*
D26*
X115000Y43500D02*
D03*
X166000D02*
D03*
D27*
X66000Y102750D02*
D03*
Y95250D02*
D03*
D47*
X51000Y39000D02*
D03*
D48*
X58500Y23250D02*
D03*
X53500D02*
D03*
X48500D02*
D03*
X43500D02*
D03*
Y54750D02*
D03*
X48500D02*
D03*
X53500D02*
D03*
X58500D02*
D03*
D49*
X35250Y31500D02*
D03*
Y36500D02*
D03*
Y41500D02*
D03*
Y46500D02*
D03*
X66750D02*
D03*
Y41500D02*
D03*
Y36500D02*
D03*
Y31500D02*
D03*
D50*
X180000Y147500D02*
D03*
X185000Y62000D02*
D03*
Y87000D02*
D03*
X10000Y54000D02*
D03*
Y142000D02*
D03*
Y79000D02*
D03*
Y104000D02*
D03*
D51*
X185000Y124500D02*
Y131500D01*
X42000Y101500D02*
X42500Y101000D01*
Y95000D02*
Y101000D01*
X162000Y60500D02*
Y68350D01*
X47500Y93000D02*
X53000D01*
X32500Y100000D02*
Y101250D01*
Y94500D02*
Y100000D01*
Y101250D02*
X32750Y101500D01*
X62450Y80000D02*
X62500D01*
X58950Y76500D02*
X62450Y80000D01*
X57500Y76500D02*
X58950D01*
X58000Y87500D02*
X63250D01*
X57000Y86500D02*
X58000Y87500D01*
X26812Y63000D02*
X32500D01*
X25000Y86500D02*
Y93000D01*
X24750Y127750D02*
X25000Y128000D01*
X24750Y120250D02*
Y127750D01*
X11750D02*
X12000Y128000D01*
X11500Y120000D02*
X11750Y120250D01*
Y127750D01*
X24500Y120000D02*
X24750Y120250D01*
X86850Y80000D02*
X93000D01*
X96700Y72700D02*
X97104Y72296D01*
X96530Y73470D02*
Y76470D01*
Y73470D02*
X97000Y73000D01*
X93000Y80000D02*
X96530Y76470D01*
X84900Y81950D02*
X86850Y80000D01*
X97000Y101000D02*
Y122000D01*
X87200Y96950D02*
X92950D01*
X97000Y101000D01*
X84900Y94650D02*
X87200Y96950D01*
X25812Y62000D02*
X26812Y63000D01*
X32500D02*
Y65000D01*
X25000Y62000D02*
X25812D01*
X70000Y63500D02*
X72000Y65500D01*
X70000Y53000D02*
Y63500D01*
X127500Y14500D02*
Y16000D01*
X117812Y21000D02*
X122500D01*
X115812Y23000D02*
X117812Y21000D01*
X115000Y23000D02*
X115812D01*
X122500Y21000D02*
X127500Y16000D01*
X45500Y11750D02*
X48250Y9000D01*
X65188D01*
X45500Y11750D02*
Y12000D01*
X65188Y9000D02*
X67188Y11000D01*
X68000D01*
X172750Y132750D02*
X173500Y132000D01*
X161100Y132750D02*
X172750D01*
X185000Y117500D02*
Y124500D01*
X186000Y131500D02*
X186500Y132000D01*
X186000Y117500D02*
X186500Y117000D01*
X182000Y84000D02*
X185000D01*
X111000Y67000D02*
Y132000D01*
X99000Y55000D02*
X111000Y67000D01*
X104000Y70000D02*
Y136000D01*
X89426Y55426D02*
X104000Y70000D01*
X96000Y144000D02*
X104000Y136000D01*
X96250Y132750D02*
X97000Y132000D01*
X84900Y132750D02*
X96250D01*
X85750Y33000D02*
X86000D01*
X99000Y46000D01*
Y55000D01*
X86000Y48000D02*
X89426Y51426D01*
Y55426D01*
X85750Y48000D02*
X86000D01*
X176000Y143500D02*
X180000Y147500D01*
X162000Y143500D02*
X176000D01*
X162000Y68350D02*
X163350Y67000D01*
X161100Y69250D02*
X162000Y68350D01*
X83000Y144000D02*
X96000D01*
X163350Y67000D02*
X180000D01*
X185000Y62000D01*
X62500Y71500D02*
X65750Y68250D01*
X54000Y71500D02*
X62500D01*
X65750Y68250D02*
X69250D01*
X72000Y65500D01*
X8500Y52500D02*
X10000Y54000D01*
Y104000D02*
X12500Y101500D01*
X25250D01*
X10000Y104000D02*
X11500Y105500D01*
Y120000D01*
X12500Y76500D02*
X26000D01*
X10000Y79000D02*
X12500Y76500D01*
X84900Y120050D02*
Y132750D01*
Y107350D02*
Y120050D01*
X82500Y143500D02*
X83000Y144000D01*
X68500Y143500D02*
X82500D01*
X59000Y131000D02*
X83150D01*
X54000Y136000D02*
Y142000D01*
Y136000D02*
X59000Y131000D01*
X50000Y146000D02*
X54000Y142000D01*
X14000Y146000D02*
X50000D01*
X83150Y131000D02*
X84900Y132750D01*
X10000Y142000D02*
X14000Y146000D01*
X186500Y104000D02*
Y117000D01*
X161100Y120050D02*
X161150Y120000D01*
X170750D01*
X173500Y117250D01*
Y117000D02*
Y117250D01*
Y104000D02*
Y104250D01*
X161100Y107350D02*
X161450Y107000D01*
X170750D01*
X173500Y104250D01*
X161100Y81950D02*
Y94650D01*
X179950Y81950D02*
X182000Y84000D01*
X161100Y81950D02*
X179950D01*
X34000Y115000D02*
Y125500D01*
X39500Y131000D01*
X153000Y15000D02*
X153500Y14500D01*
X81000Y66950D02*
X83300Y69250D01*
X84900D01*
X81000Y56000D02*
Y66950D01*
X78250Y53250D02*
X81000Y56000D01*
X78250Y48000D02*
Y53250D01*
X37000Y108000D02*
X46000D01*
X33750Y104750D02*
X37000Y108000D01*
X33750Y102750D02*
Y104750D01*
X33000Y102000D02*
X33750Y102750D01*
X46000Y108000D02*
X49250Y104750D01*
Y102750D02*
X50000Y102000D01*
X49250Y102750D02*
Y104750D01*
X50000Y102000D02*
X50250D01*
X56750Y96750D02*
Y101250D01*
X53000Y93000D02*
X56750Y96750D01*
X57500Y102000D02*
X58000D01*
X56750Y101250D02*
X57500Y102000D01*
X58000D02*
X59750Y103750D01*
X66000D01*
X65007Y95250D02*
X65250D01*
X66000Y96000D02*
Y96250D01*
X63250Y88000D02*
Y93493D01*
X65007Y95250D01*
X65250D02*
X66000Y96000D01*
X25000Y86500D02*
X26000D01*
D52*
X31500Y101000D02*
X32500Y100000D01*
X38000Y93000D02*
X41500D01*
X38000Y93000D02*
X38000Y93000D01*
X155500Y33000D02*
X157250Y34750D01*
X129000Y31000D02*
X131000Y33000D01*
X155500D01*
X157250Y36750D02*
X164000Y43500D01*
X166000D01*
X157250Y34750D02*
Y36750D01*
X99460Y31000D02*
X129000D01*
X25000Y46704D02*
Y62000D01*
Y46704D02*
X30154Y41550D01*
X35200D01*
X53500Y16500D02*
Y23250D01*
Y16500D02*
X55000Y15000D01*
X62000D01*
X65000Y18000D01*
X86460D01*
X99460Y31000D01*
X102500Y14500D02*
X106000Y11000D01*
X23046Y36500D02*
X35250D01*
X18546Y41000D02*
X23046Y36500D01*
X18000Y41000D02*
X18546D01*
X35200Y41550D02*
X35250Y41500D01*
X32250Y24697D02*
Y31450D01*
X30000Y22447D02*
X32250Y24697D01*
X30000Y21500D02*
Y22447D01*
X43500Y23250D02*
Y24950D01*
X38550Y25000D02*
X43450D01*
X43500Y24950D01*
X32250Y31450D02*
X32300Y31500D01*
X77750Y32500D02*
X78250Y32000D01*
X75161Y34000D02*
X77250D01*
X66750Y46500D02*
X74161D01*
X76580Y41420D02*
X77250Y40750D01*
X66800Y36450D02*
X72711D01*
X75161Y34000D01*
X74161Y46500D02*
X74661Y47000D01*
X73383Y41420D02*
X76580D01*
X74661Y47000D02*
X77250D01*
X32300Y31500D02*
X35250D01*
X73353Y41450D02*
X73383Y41420D01*
X58550Y25282D02*
X66018D01*
X58500Y25232D02*
X58550Y25282D01*
X58500Y23250D02*
Y25232D01*
X37500Y46550D02*
Y65000D01*
X35250Y46500D02*
X35300Y46550D01*
X42500Y58700D02*
Y65000D01*
Y58700D02*
X43450Y57750D01*
X35300Y46550D02*
X37500D01*
X77250Y47000D02*
X78250Y48000D01*
X168500Y26000D02*
X178500Y16000D01*
X137500Y26000D02*
X168500D01*
X127500Y16000D02*
X137500Y26000D01*
X178500Y14500D02*
Y16000D01*
X73700Y27500D02*
X89596D01*
X98846Y36750D02*
X108250D01*
X89596Y27500D02*
X98846Y36750D01*
X69750Y31450D02*
X73700Y27500D01*
X77250Y34000D02*
X78250Y33000D01*
X108250Y36750D02*
X115000Y43500D01*
X51000Y39000D02*
X53500Y41500D01*
Y54750D01*
X66750Y36500D02*
X66800Y36450D01*
X66750Y41500D02*
X66800Y41450D01*
X73353D01*
X47750Y60519D02*
Y64750D01*
X47500Y65000D02*
X47750Y64750D01*
X48500Y54750D02*
Y59769D01*
X47750Y60519D02*
X48500Y59769D01*
X53500Y54750D02*
X53550Y54800D01*
X45500Y12000D02*
Y12250D01*
X48500Y15250D02*
Y23250D01*
X45500Y12250D02*
X48500Y15250D01*
X32750Y71750D02*
X40000Y79000D01*
X29654Y71750D02*
X32750D01*
X26250Y71750D02*
X29654D01*
X26000Y71500D02*
X26250Y71750D01*
X29654D02*
X29654Y71750D01*
D53*
X42000Y101500D02*
D03*
X162000Y60500D02*
D03*
X25000Y128000D02*
D03*
X12000D02*
D03*
X142000Y44000D02*
D03*
X55000Y64500D02*
D03*
X25000Y62000D02*
D03*
X10500Y65500D02*
D03*
X70000Y53000D02*
D03*
X114000Y58000D02*
D03*
X54000Y115000D02*
D03*
X13000Y13000D02*
D03*
X183000Y43000D02*
D03*
X108000Y145000D02*
D03*
X140000Y129000D02*
D03*
X141000Y70000D02*
D03*
X115000Y23000D02*
D03*
X24000Y29000D02*
D03*
X115000Y11000D02*
D03*
X185000Y124500D02*
D03*
X111000Y132000D02*
D03*
X97000Y122000D02*
D03*
Y132000D02*
D03*
X97104Y72296D02*
D03*
X90000Y56000D02*
D03*
X162000Y143500D02*
D03*
X18000Y41000D02*
D03*
X30000Y21500D02*
D03*
X38550Y25000D02*
D03*
X77250Y40750D02*
D03*
X66018Y25282D02*
D03*
X68000Y11000D02*
D03*
X83000Y144000D02*
D03*
X62500Y80000D02*
D03*
X34000Y115000D02*
D03*
X142000Y15000D02*
D03*
X73550Y95000D02*
D03*
X25000Y93000D02*
D03*
X51000Y39000D02*
D03*
X40000Y79000D02*
D03*
M02*
