G04*
G04 #@! TF.GenerationSoftware,Altium Limited,Altium Designer,22.2.1 (43)*
G04*
G04 Layer_Color=6740479*
%FSLAX44Y44*%
%MOMM*%
G71*
G04*
G04 #@! TF.SameCoordinates,672CECB2-DF13-49BD-9E49-C01950E57CCB*
G04*
G04*
G04 #@! TF.FilePolarity,Positive*
G04*
G01*
G75*
%ADD11C,0.2540*%
%ADD55C,0.3810*%
%ADD56C,0.0254*%
D11*
X360975Y172869D02*
Y162872D01*
X367639D01*
X372637Y169537D02*
X375970D01*
X377636Y167871D01*
Y162872D01*
X372637D01*
X370971Y164538D01*
X372637Y166204D01*
X377636D01*
X380968Y169537D02*
Y164538D01*
X382634Y162872D01*
X387632D01*
Y161206D01*
X385966Y159540D01*
X384300D01*
X387632Y162872D02*
Y169537D01*
X395963Y162872D02*
X392631D01*
X390965Y164538D01*
Y167871D01*
X392631Y169537D01*
X395963D01*
X397629Y167871D01*
Y166204D01*
X390965D01*
X400962Y169537D02*
Y162872D01*
Y166204D01*
X402628Y167871D01*
X404294Y169537D01*
X405960D01*
X367639Y42872D02*
X360975D01*
X367639Y49537D01*
Y51203D01*
X365973Y52869D01*
X362641D01*
X360975Y51203D01*
Y82872D02*
X364307D01*
X362641D01*
Y92869D01*
X360975Y91203D01*
X431040Y162872D02*
Y172869D01*
X437705Y162872D01*
Y172869D01*
X442703Y169537D02*
X446035D01*
X447701Y167871D01*
Y162872D01*
X442703D01*
X441037Y164538D01*
X442703Y166204D01*
X447701D01*
X451034Y162872D02*
Y169537D01*
X452700D01*
X454366Y167871D01*
Y162872D01*
Y167871D01*
X456032Y169537D01*
X457698Y167871D01*
Y162872D01*
X466029D02*
X462696D01*
X461030Y164538D01*
Y167871D01*
X462696Y169537D01*
X466029D01*
X467695Y167871D01*
Y166204D01*
X461030D01*
X431040Y-7131D02*
Y-17128D01*
X436038D01*
X437705Y-15462D01*
Y-13795D01*
X436038Y-12129D01*
X431040D01*
X436038D01*
X437705Y-10463D01*
Y-8797D01*
X436038Y-7131D01*
X431040D01*
X442703Y-17128D02*
X446035D01*
X447701Y-15462D01*
Y-12129D01*
X446035Y-10463D01*
X442703D01*
X441037Y-12129D01*
Y-15462D01*
X442703Y-17128D01*
X452700Y-8797D02*
Y-10463D01*
X451034D01*
X454366D01*
X452700D01*
Y-15462D01*
X454366Y-17128D01*
X461030Y-8797D02*
Y-10463D01*
X459364D01*
X462696D01*
X461030D01*
Y-15462D01*
X462696Y-17128D01*
X469361D02*
X472693D01*
X474359Y-15462D01*
Y-12129D01*
X472693Y-10463D01*
X469361D01*
X467695Y-12129D01*
Y-15462D01*
X469361Y-17128D01*
X477692D02*
Y-10463D01*
X479358D01*
X481024Y-12129D01*
Y-17128D01*
Y-12129D01*
X482690Y-10463D01*
X484356Y-12129D01*
Y-17128D01*
X502684Y-7131D02*
X499351D01*
X497685Y-8797D01*
Y-15462D01*
X499351Y-17128D01*
X502684D01*
X504350Y-15462D01*
Y-8797D01*
X502684Y-7131D01*
X507682Y-10463D02*
X511014Y-17128D01*
X514347Y-10463D01*
X522677Y-17128D02*
X519345D01*
X517679Y-15462D01*
Y-12129D01*
X519345Y-10463D01*
X522677D01*
X524343Y-12129D01*
Y-13795D01*
X517679D01*
X527676Y-10463D02*
Y-17128D01*
Y-13795D01*
X529342Y-12129D01*
X531008Y-10463D01*
X532674D01*
X537672Y-17128D02*
X541005D01*
X539338D01*
Y-7131D01*
X537672D01*
X547669Y-10463D02*
X551001D01*
X552667Y-12129D01*
Y-17128D01*
X547669D01*
X546003Y-15462D01*
X547669Y-13795D01*
X552667D01*
X556000Y-10463D02*
Y-15462D01*
X557666Y-17128D01*
X562664D01*
Y-18794D01*
X560998Y-20460D01*
X559332D01*
X562664Y-17128D02*
Y-10463D01*
X431040Y12869D02*
Y2872D01*
X436038D01*
X437705Y4538D01*
Y6205D01*
X436038Y7871D01*
X431040D01*
X436038D01*
X437705Y9537D01*
Y11203D01*
X436038Y12869D01*
X431040D01*
X442703Y2872D02*
X446035D01*
X447701Y4538D01*
Y7871D01*
X446035Y9537D01*
X442703D01*
X441037Y7871D01*
Y4538D01*
X442703Y2872D01*
X452700Y11203D02*
Y9537D01*
X451034D01*
X454366D01*
X452700D01*
Y4538D01*
X454366Y2872D01*
X461030Y11203D02*
Y9537D01*
X459364D01*
X462696D01*
X461030D01*
Y4538D01*
X462696Y2872D01*
X469361D02*
X472693D01*
X474359Y4538D01*
Y7871D01*
X472693Y9537D01*
X469361D01*
X467695Y7871D01*
Y4538D01*
X469361Y2872D01*
X477692D02*
Y9537D01*
X479358D01*
X481024Y7871D01*
Y2872D01*
Y7871D01*
X482690Y9537D01*
X484356Y7871D01*
Y2872D01*
X504350Y11203D02*
X502684Y12869D01*
X499351D01*
X497685Y11203D01*
Y9537D01*
X499351Y7871D01*
X502684D01*
X504350Y6205D01*
Y4538D01*
X502684Y2872D01*
X499351D01*
X497685Y4538D01*
X509348Y2872D02*
X512680D01*
X514347Y4538D01*
Y7871D01*
X512680Y9537D01*
X509348D01*
X507682Y7871D01*
Y4538D01*
X509348Y2872D01*
X517679D02*
X521011D01*
X519345D01*
Y12869D01*
X517679D01*
X532674D02*
Y2872D01*
X527676D01*
X526009Y4538D01*
Y7871D01*
X527676Y9537D01*
X532674D01*
X541005Y2872D02*
X537672D01*
X536006Y4538D01*
Y7871D01*
X537672Y9537D01*
X541005D01*
X542671Y7871D01*
Y6205D01*
X536006D01*
X546003Y9537D02*
Y2872D01*
Y6205D01*
X547669Y7871D01*
X549335Y9537D01*
X551001D01*
X431040Y32869D02*
Y22872D01*
X436038D01*
X437705Y24538D01*
Y26205D01*
X436038Y27871D01*
X431040D01*
X436038D01*
X437705Y29537D01*
Y31203D01*
X436038Y32869D01*
X431040D01*
X442703Y22872D02*
X446035D01*
X447701Y24538D01*
Y27871D01*
X446035Y29537D01*
X442703D01*
X441037Y27871D01*
Y24538D01*
X442703Y22872D01*
X452700Y31203D02*
Y29537D01*
X451034D01*
X454366D01*
X452700D01*
Y24538D01*
X454366Y22872D01*
X461030Y31203D02*
Y29537D01*
X459364D01*
X462696D01*
X461030D01*
Y24538D01*
X462696Y22872D01*
X469361D02*
X472693D01*
X474359Y24538D01*
Y27871D01*
X472693Y29537D01*
X469361D01*
X467695Y27871D01*
Y24538D01*
X469361Y22872D01*
X477692D02*
Y29537D01*
X479358D01*
X481024Y27871D01*
Y22872D01*
Y27871D01*
X482690Y29537D01*
X484356Y27871D01*
Y22872D01*
X504350Y31203D02*
X502684Y32869D01*
X499351D01*
X497685Y31203D01*
Y29537D01*
X499351Y27871D01*
X502684D01*
X504350Y26205D01*
Y24538D01*
X502684Y22872D01*
X499351D01*
X497685Y24538D01*
X507682Y29537D02*
Y24538D01*
X509348Y22872D01*
X514347D01*
Y29537D01*
X517679D02*
Y22872D01*
Y26205D01*
X519345Y27871D01*
X521011Y29537D01*
X522677D01*
X529342Y22872D02*
Y31203D01*
Y27871D01*
X527676D01*
X531008D01*
X529342D01*
Y31203D01*
X531008Y32869D01*
X537672Y29537D02*
X541005D01*
X542671Y27871D01*
Y22872D01*
X537672D01*
X536006Y24538D01*
X537672Y26205D01*
X542671D01*
X552667Y29537D02*
X547669D01*
X546003Y27871D01*
Y24538D01*
X547669Y22872D01*
X552667D01*
X560998D02*
X557666D01*
X556000Y24538D01*
Y27871D01*
X557666Y29537D01*
X560998D01*
X562664Y27871D01*
Y26205D01*
X556000D01*
X582658Y32869D02*
X575993D01*
Y27871D01*
X579325D01*
X575993D01*
Y22872D01*
X585990D02*
X589322D01*
X587656D01*
Y29537D01*
X585990D01*
X594321Y22872D02*
Y29537D01*
X599319D01*
X600985Y27871D01*
Y22872D01*
X604318D02*
X607650D01*
X605984D01*
Y29537D01*
X604318D01*
X612648Y22872D02*
X617646D01*
X619313Y24538D01*
X617646Y26205D01*
X614314D01*
X612648Y27871D01*
X614314Y29537D01*
X619313D01*
X622645Y32869D02*
Y22872D01*
Y27871D01*
X624311Y29537D01*
X627643D01*
X629309Y27871D01*
Y22872D01*
X431040Y52869D02*
Y42872D01*
X436038D01*
X437705Y44538D01*
Y46205D01*
X436038Y47871D01*
X431040D01*
X436038D01*
X437705Y49537D01*
Y51203D01*
X436038Y52869D01*
X431040D01*
X442703Y42872D02*
X446035D01*
X447701Y44538D01*
Y47871D01*
X446035Y49537D01*
X442703D01*
X441037Y47871D01*
Y44538D01*
X442703Y42872D01*
X452700Y51203D02*
Y49537D01*
X451034D01*
X454366D01*
X452700D01*
Y44538D01*
X454366Y42872D01*
X461030Y51203D02*
Y49537D01*
X459364D01*
X462696D01*
X461030D01*
Y44538D01*
X462696Y42872D01*
X469361D02*
X472693D01*
X474359Y44538D01*
Y47871D01*
X472693Y49537D01*
X469361D01*
X467695Y47871D01*
Y44538D01*
X469361Y42872D01*
X477692D02*
Y49537D01*
X479358D01*
X481024Y47871D01*
Y42872D01*
Y47871D01*
X482690Y49537D01*
X484356Y47871D01*
Y42872D01*
X497685Y52869D02*
Y42872D01*
X504350D01*
X509348Y49537D02*
X512680D01*
X514347Y47871D01*
Y42872D01*
X509348D01*
X507682Y44538D01*
X509348Y46205D01*
X514347D01*
X517679Y49537D02*
Y44538D01*
X519345Y42872D01*
X524343D01*
Y41206D01*
X522677Y39540D01*
X521011D01*
X524343Y42872D02*
Y49537D01*
X532674Y42872D02*
X529342D01*
X527676Y44538D01*
Y47871D01*
X529342Y49537D01*
X532674D01*
X534340Y47871D01*
Y46205D01*
X527676D01*
X537672Y49537D02*
Y42872D01*
Y46205D01*
X539338Y47871D01*
X541005Y49537D01*
X542671D01*
X431040Y72869D02*
Y62872D01*
X436038D01*
X437705Y64538D01*
Y71203D01*
X436038Y72869D01*
X431040D01*
X441037Y62872D02*
X444369D01*
X442703D01*
Y69537D01*
X441037D01*
X454366Y62872D02*
X451034D01*
X449367Y64538D01*
Y67871D01*
X451034Y69537D01*
X454366D01*
X456032Y67871D01*
Y66205D01*
X449367D01*
X459364Y62872D02*
X462696D01*
X461030D01*
Y72869D01*
X459364D01*
X472693Y62872D02*
X469361D01*
X467695Y64538D01*
Y67871D01*
X469361Y69537D01*
X472693D01*
X474359Y67871D01*
Y66205D01*
X467695D01*
X484356Y69537D02*
X479358D01*
X477692Y67871D01*
Y64538D01*
X479358Y62872D01*
X484356D01*
X489355Y71203D02*
Y69537D01*
X487688D01*
X491021D01*
X489355D01*
Y64538D01*
X491021Y62872D01*
X496019Y69537D02*
Y62872D01*
Y66205D01*
X497685Y67871D01*
X499351Y69537D01*
X501017D01*
X506016Y62872D02*
X509348D01*
X507682D01*
Y69537D01*
X506016D01*
X521011D02*
X516013D01*
X514347Y67871D01*
Y64538D01*
X516013Y62872D01*
X521011D01*
X534340D02*
X537672D01*
X536006D01*
Y72869D01*
X534340Y71203D01*
X431040Y92869D02*
X437705D01*
X434372D01*
Y82872D01*
X442703D02*
X446035D01*
X447701Y84538D01*
Y87871D01*
X446035Y89537D01*
X442703D01*
X441037Y87871D01*
Y84538D01*
X442703Y82872D01*
X451034Y79540D02*
Y89537D01*
X456032D01*
X457698Y87871D01*
Y84538D01*
X456032Y82872D01*
X451034D01*
X471027Y92869D02*
Y82872D01*
X477692D01*
X482690Y89537D02*
X486022D01*
X487688Y87871D01*
Y82872D01*
X482690D01*
X481024Y84538D01*
X482690Y86205D01*
X487688D01*
X491021Y89537D02*
Y84538D01*
X492687Y82872D01*
X497685D01*
Y81206D01*
X496019Y79540D01*
X494353D01*
X497685Y82872D02*
Y89537D01*
X506016Y82872D02*
X502684D01*
X501017Y84538D01*
Y87871D01*
X502684Y89537D01*
X506016D01*
X507682Y87871D01*
Y86205D01*
X501017D01*
X511014Y89537D02*
Y82872D01*
Y86205D01*
X512680Y87871D01*
X514347Y89537D01*
X516013D01*
X431040Y112869D02*
X437705D01*
X434372D01*
Y102872D01*
X442703D02*
X446035D01*
X447701Y104538D01*
Y107871D01*
X446035Y109537D01*
X442703D01*
X441037Y107871D01*
Y104538D01*
X442703Y102872D01*
X451034Y99540D02*
Y109537D01*
X456032D01*
X457698Y107871D01*
Y104538D01*
X456032Y102872D01*
X451034D01*
X477692Y111203D02*
X476026Y112869D01*
X472693D01*
X471027Y111203D01*
Y109537D01*
X472693Y107871D01*
X476026D01*
X477692Y106205D01*
Y104538D01*
X476026Y102872D01*
X472693D01*
X471027Y104538D01*
X481024Y109537D02*
Y104538D01*
X482690Y102872D01*
X487688D01*
Y109537D01*
X491021D02*
Y102872D01*
Y106205D01*
X492687Y107871D01*
X494353Y109537D01*
X496019D01*
X502684Y102872D02*
Y111203D01*
Y107871D01*
X501017D01*
X504350D01*
X502684D01*
Y111203D01*
X504350Y112869D01*
X511014Y109537D02*
X514347D01*
X516013Y107871D01*
Y102872D01*
X511014D01*
X509348Y104538D01*
X511014Y106205D01*
X516013D01*
X526009Y109537D02*
X521011D01*
X519345Y107871D01*
Y104538D01*
X521011Y102872D01*
X526009D01*
X534340D02*
X531008D01*
X529342Y104538D01*
Y107871D01*
X531008Y109537D01*
X534340D01*
X536006Y107871D01*
Y106205D01*
X529342D01*
X556000Y112869D02*
X549335D01*
Y107871D01*
X552668D01*
X549335D01*
Y102872D01*
X559332D02*
X562664D01*
X560998D01*
Y109537D01*
X559332D01*
X567663Y102872D02*
Y109537D01*
X572661D01*
X574327Y107871D01*
Y102872D01*
X577659D02*
X580992D01*
X579326D01*
Y109537D01*
X577659D01*
X585990Y102872D02*
X590989D01*
X592655Y104538D01*
X590989Y106205D01*
X587656D01*
X585990Y107871D01*
X587656Y109537D01*
X592655D01*
X595987Y112869D02*
Y102872D01*
Y107871D01*
X597653Y109537D01*
X600985D01*
X602651Y107871D01*
Y102872D01*
X431040Y132869D02*
X437705D01*
X434372D01*
Y122872D01*
X442703D02*
X446035D01*
X447701Y124538D01*
Y127871D01*
X446035Y129537D01*
X442703D01*
X441037Y127871D01*
Y124538D01*
X442703Y122872D01*
X451034Y119540D02*
Y129537D01*
X456032D01*
X457698Y127871D01*
Y124538D01*
X456032Y122872D01*
X451034D01*
X477692Y131203D02*
X476026Y132869D01*
X472693D01*
X471027Y131203D01*
Y129537D01*
X472693Y127871D01*
X476026D01*
X477692Y126204D01*
Y124538D01*
X476026Y122872D01*
X472693D01*
X471027Y124538D01*
X482690Y122872D02*
X486022D01*
X487688Y124538D01*
Y127871D01*
X486022Y129537D01*
X482690D01*
X481024Y127871D01*
Y124538D01*
X482690Y122872D01*
X491021D02*
X494353D01*
X492687D01*
Y132869D01*
X491021D01*
X506016D02*
Y122872D01*
X501017D01*
X499351Y124538D01*
Y127871D01*
X501017Y129537D01*
X506016D01*
X514347Y122872D02*
X511014D01*
X509348Y124538D01*
Y127871D01*
X511014Y129537D01*
X514347D01*
X516013Y127871D01*
Y126204D01*
X509348D01*
X519345Y129537D02*
Y122872D01*
Y126204D01*
X521011Y127871D01*
X522677Y129537D01*
X524343D01*
X431040Y152869D02*
X437705D01*
X434372D01*
Y142872D01*
X442703D02*
X446035D01*
X447701Y144538D01*
Y147871D01*
X446035Y149537D01*
X442703D01*
X441037Y147871D01*
Y144538D01*
X442703Y142872D01*
X451034Y139540D02*
Y149537D01*
X456032D01*
X457698Y147871D01*
Y144538D01*
X456032Y142872D01*
X451034D01*
X476026Y152869D02*
X472693D01*
X471027Y151203D01*
Y144538D01*
X472693Y142872D01*
X476026D01*
X477692Y144538D01*
Y151203D01*
X476026Y152869D01*
X481024Y149537D02*
X484356Y142872D01*
X487688Y149537D01*
X496019Y142872D02*
X492687D01*
X491021Y144538D01*
Y147871D01*
X492687Y149537D01*
X496019D01*
X497685Y147871D01*
Y146204D01*
X491021D01*
X501017Y149537D02*
Y142872D01*
Y146204D01*
X502684Y147871D01*
X504350Y149537D01*
X506016D01*
X511014Y142872D02*
X514347D01*
X512680D01*
Y152869D01*
X511014D01*
X521011Y149537D02*
X524343D01*
X526009Y147871D01*
Y142872D01*
X521011D01*
X519345Y144538D01*
X521011Y146204D01*
X526009D01*
X529342Y149537D02*
Y144538D01*
X531008Y142872D01*
X536006D01*
Y141206D01*
X534340Y139540D01*
X532674D01*
X536006Y142872D02*
Y149537D01*
X654389Y162872D02*
Y172869D01*
X657722Y169537D01*
X661054Y172869D01*
Y162872D01*
X666052Y169537D02*
X669385D01*
X671051Y167871D01*
Y162872D01*
X666052D01*
X664386Y164538D01*
X666052Y166204D01*
X671051D01*
X676049Y171203D02*
Y169537D01*
X674383D01*
X677715D01*
X676049D01*
Y164538D01*
X677715Y162872D01*
X687712D02*
X684380D01*
X682714Y164538D01*
Y167871D01*
X684380Y169537D01*
X687712D01*
X689378Y167871D01*
Y166204D01*
X682714D01*
X692710Y169537D02*
Y162872D01*
Y166204D01*
X694377Y167871D01*
X696043Y169537D01*
X697709D01*
X702707Y162872D02*
X706039D01*
X704373D01*
Y169537D01*
X702707D01*
X712704D02*
X716036D01*
X717702Y167871D01*
Y162872D01*
X712704D01*
X711038Y164538D01*
X712704Y166204D01*
X717702D01*
X721035Y162872D02*
X724367D01*
X722701D01*
Y172869D01*
X721035D01*
X661054Y11203D02*
X659388Y12869D01*
X656056D01*
X654389Y11203D01*
Y9537D01*
X656056Y7871D01*
X659388D01*
X661054Y6205D01*
Y4538D01*
X659388Y2872D01*
X656056D01*
X654389Y4538D01*
X664386Y2872D02*
Y12869D01*
X667719Y9537D01*
X671051Y12869D01*
Y2872D01*
X674383Y7871D02*
X681048D01*
X684380Y11203D02*
X686046Y12869D01*
X689378D01*
X691044Y11203D01*
Y4538D01*
X689378Y2872D01*
X686046D01*
X684380Y4538D01*
Y11203D01*
X694377D02*
X696043Y12869D01*
X699375D01*
X701041Y11203D01*
Y4538D01*
X699375Y2872D01*
X696043D01*
X694377Y4538D01*
Y11203D01*
X704373Y2872D02*
X707706D01*
X706040D01*
Y12869D01*
X704373Y11203D01*
X654389Y22872D02*
Y32869D01*
X659388D01*
X661054Y31203D01*
Y27871D01*
X659388Y26205D01*
X654389D01*
X664386Y32869D02*
Y22872D01*
X669385D01*
X671051Y24538D01*
Y26205D01*
Y27871D01*
X669385Y29537D01*
X664386D01*
X681048Y31203D02*
X679381Y32869D01*
X676049D01*
X674383Y31203D01*
Y29537D01*
X676049Y27871D01*
X679381D01*
X681048Y26205D01*
Y24538D01*
X679381Y22872D01*
X676049D01*
X674383Y24538D01*
X684380Y22872D02*
Y29537D01*
X689378D01*
X691044Y27871D01*
Y22872D01*
X661054Y51203D02*
X659388Y52869D01*
X656056D01*
X654389Y51203D01*
Y44538D01*
X656056Y42872D01*
X659388D01*
X661054Y44538D01*
X671051Y52869D02*
X664386D01*
Y47871D01*
X667719D01*
X664386D01*
Y42872D01*
X674383Y47871D02*
X681048D01*
X684380Y51203D02*
X686046Y52869D01*
X689378D01*
X691044Y51203D01*
Y44538D01*
X689378Y42872D01*
X686046D01*
X684380Y44538D01*
Y51203D01*
X694377D02*
X696043Y52869D01*
X699375D01*
X701041Y51203D01*
Y44538D01*
X699375Y42872D01*
X696043D01*
X694377Y44538D01*
Y51203D01*
X709372Y42872D02*
Y52869D01*
X704373Y47871D01*
X711038D01*
X661054Y71203D02*
X659388Y72869D01*
X656056D01*
X654389Y71203D01*
Y64538D01*
X656056Y62872D01*
X659388D01*
X661054Y64538D01*
X666052Y62872D02*
X669385D01*
X671051Y64538D01*
Y67871D01*
X669385Y69537D01*
X666052D01*
X664386Y67871D01*
Y64538D01*
X666052Y62872D01*
X674383Y69537D02*
Y62872D01*
Y66205D01*
X676049Y67871D01*
X677715Y69537D01*
X679381D01*
X689378Y62872D02*
X686046D01*
X684380Y64538D01*
Y67871D01*
X686046Y69537D01*
X689378D01*
X691044Y67871D01*
Y66205D01*
X684380D01*
X694377Y67871D02*
X701041D01*
X704373Y71203D02*
X706040Y72869D01*
X709372D01*
X711038Y71203D01*
Y64538D01*
X709372Y62872D01*
X706040D01*
X704373Y64538D01*
Y71203D01*
X714370D02*
X716036Y72869D01*
X719369D01*
X721035Y71203D01*
Y69537D01*
X719369Y67871D01*
X717702D01*
X719369D01*
X721035Y66205D01*
Y64538D01*
X719369Y62872D01*
X716036D01*
X714370Y64538D01*
X724367Y71203D02*
X726033Y72869D01*
X729365D01*
X731031Y71203D01*
Y69537D01*
X729365Y67871D01*
X731031Y66205D01*
Y64538D01*
X729365Y62872D01*
X726033D01*
X724367Y64538D01*
Y66205D01*
X726033Y67871D01*
X724367Y69537D01*
Y71203D01*
X726033Y67871D02*
X729365D01*
X661054Y91203D02*
X659388Y92869D01*
X656056D01*
X654389Y91203D01*
Y84538D01*
X656056Y82872D01*
X659388D01*
X661054Y84538D01*
X671051Y92869D02*
X664386D01*
Y87871D01*
X667719D01*
X664386D01*
Y82872D01*
X674383Y87871D02*
X681048D01*
X684380Y91203D02*
X686046Y92869D01*
X689378D01*
X691044Y91203D01*
Y84538D01*
X689378Y82872D01*
X686046D01*
X684380Y84538D01*
Y91203D01*
X694377D02*
X696043Y92869D01*
X699375D01*
X701041Y91203D01*
Y84538D01*
X699375Y82872D01*
X696043D01*
X694377Y84538D01*
Y91203D01*
X709372Y82872D02*
Y92869D01*
X704373Y87871D01*
X711038D01*
X654389Y102872D02*
Y112869D01*
X659388D01*
X661054Y111203D01*
Y107871D01*
X659388Y106205D01*
X654389D01*
X664386Y112869D02*
Y102872D01*
X669385D01*
X671051Y104538D01*
Y106205D01*
Y107871D01*
X669385Y109537D01*
X664386D01*
X681048Y111203D02*
X679381Y112869D01*
X676049D01*
X674383Y111203D01*
Y109537D01*
X676049Y107871D01*
X679381D01*
X681048Y106205D01*
Y104538D01*
X679381Y102872D01*
X676049D01*
X674383Y104538D01*
X684380Y102872D02*
Y109537D01*
X689378D01*
X691044Y107871D01*
Y102872D01*
X661054Y131203D02*
X659388Y132869D01*
X656056D01*
X654389Y131203D01*
Y129537D01*
X656056Y127871D01*
X659388D01*
X661054Y126204D01*
Y124538D01*
X659388Y122872D01*
X656056D01*
X654389Y124538D01*
X664386Y122872D02*
Y132869D01*
X667719Y129537D01*
X671051Y132869D01*
Y122872D01*
X674383Y127871D02*
X681048D01*
X684380Y131203D02*
X686046Y132869D01*
X689378D01*
X691044Y131203D01*
Y124538D01*
X689378Y122872D01*
X686046D01*
X684380Y124538D01*
Y131203D01*
X694377D02*
X696043Y132869D01*
X699375D01*
X701041Y131203D01*
Y124538D01*
X699375Y122872D01*
X696043D01*
X694377Y124538D01*
Y131203D01*
X704373Y122872D02*
X707706D01*
X706040D01*
Y132869D01*
X704373Y131203D01*
X756111Y172869D02*
X762776D01*
X759444D01*
Y162872D01*
X766108Y172869D02*
Y162872D01*
Y167871D01*
X767774Y169537D01*
X771107D01*
X772773Y167871D01*
Y162872D01*
X776105D02*
X779437D01*
X777771D01*
Y169537D01*
X776105D01*
X791100D02*
X786102D01*
X784436Y167871D01*
Y164538D01*
X786102Y162872D01*
X791100D01*
X794432D02*
Y172869D01*
Y166204D02*
X799431Y169537D01*
X794432Y166204D02*
X799431Y162872D01*
X804429D02*
Y169537D01*
X809427D01*
X811094Y167871D01*
Y162872D01*
X819424D02*
X816092D01*
X814426Y164538D01*
Y167871D01*
X816092Y169537D01*
X819424D01*
X821090Y167871D01*
Y166204D01*
X814426D01*
X824423Y162872D02*
X829421D01*
X831087Y164538D01*
X829421Y166204D01*
X826089D01*
X824423Y167871D01*
X826089Y169537D01*
X831087D01*
X834419Y162872D02*
X839418D01*
X841084Y164538D01*
X839418Y166204D01*
X836086D01*
X834419Y167871D01*
X836086Y169537D01*
X841084D01*
X756111Y11203D02*
X757777Y12869D01*
X761110D01*
X762776Y11203D01*
Y4538D01*
X761110Y2872D01*
X757777D01*
X756111Y4538D01*
Y11203D01*
X766108Y2872D02*
Y4538D01*
X767774D01*
Y2872D01*
X766108D01*
X774439Y11203D02*
X776105Y12869D01*
X779437D01*
X781103Y11203D01*
Y4538D01*
X779437Y2872D01*
X776105D01*
X774439Y4538D01*
Y11203D01*
X791100Y2872D02*
X784436D01*
X791100Y9537D01*
Y11203D01*
X789434Y12869D01*
X786102D01*
X784436Y11203D01*
X801097Y12869D02*
X794432D01*
Y7871D01*
X797765Y9537D01*
X799431D01*
X801097Y7871D01*
Y4538D01*
X799431Y2872D01*
X796098D01*
X794432Y4538D01*
X804429Y2872D02*
Y9537D01*
X806095D01*
X807761Y7871D01*
Y2872D01*
Y7871D01*
X809427Y9537D01*
X811094Y7871D01*
Y2872D01*
X814426D02*
Y9537D01*
X816092D01*
X817758Y7871D01*
Y2872D01*
Y7871D01*
X819424Y9537D01*
X821090Y7871D01*
Y2872D01*
X756111Y31203D02*
X757777Y32869D01*
X761110D01*
X762776Y31203D01*
Y24538D01*
X761110Y22872D01*
X757777D01*
X756111Y24538D01*
Y31203D01*
X766108Y22872D02*
Y24538D01*
X767774D01*
Y22872D01*
X766108D01*
X774439Y31203D02*
X776105Y32869D01*
X779437D01*
X781103Y31203D01*
Y24538D01*
X779437Y22872D01*
X776105D01*
X774439Y24538D01*
Y31203D01*
X791100Y22872D02*
X784436D01*
X791100Y29537D01*
Y31203D01*
X789434Y32869D01*
X786102D01*
X784436Y31203D01*
X794432D02*
X796098Y32869D01*
X799431D01*
X801097Y31203D01*
Y24538D01*
X799431Y22872D01*
X796098D01*
X794432Y24538D01*
Y31203D01*
X804429Y22872D02*
Y29537D01*
X806095D01*
X807761Y27871D01*
Y22872D01*
Y27871D01*
X809427Y29537D01*
X811094Y27871D01*
Y22872D01*
X814426D02*
Y29537D01*
X816092D01*
X817758Y27871D01*
Y22872D01*
Y27871D01*
X819424Y29537D01*
X821090Y27871D01*
Y22872D01*
X756111Y51203D02*
X757777Y52869D01*
X761110D01*
X762776Y51203D01*
Y44538D01*
X761110Y42872D01*
X757777D01*
X756111Y44538D01*
Y51203D01*
X766108Y42872D02*
Y44538D01*
X767774D01*
Y42872D01*
X766108D01*
X774439Y51203D02*
X776105Y52869D01*
X779437D01*
X781103Y51203D01*
Y44538D01*
X779437Y42872D01*
X776105D01*
X774439Y44538D01*
Y51203D01*
X784436D02*
X786102Y52869D01*
X789434D01*
X791100Y51203D01*
Y49537D01*
X789434Y47871D01*
X787768D01*
X789434D01*
X791100Y46205D01*
Y44538D01*
X789434Y42872D01*
X786102D01*
X784436Y44538D01*
X801097Y52869D02*
X794432D01*
Y47871D01*
X797765Y49537D01*
X799431D01*
X801097Y47871D01*
Y44538D01*
X799431Y42872D01*
X796098D01*
X794432Y44538D01*
X804429Y42872D02*
Y49537D01*
X806095D01*
X807761Y47871D01*
Y42872D01*
Y47871D01*
X809427Y49537D01*
X811094Y47871D01*
Y42872D01*
X814426D02*
Y49537D01*
X816092D01*
X817758Y47871D01*
Y42872D01*
Y47871D01*
X819424Y49537D01*
X821090Y47871D01*
Y42872D01*
X756111Y71203D02*
X757777Y72869D01*
X761110D01*
X762776Y71203D01*
Y64538D01*
X761110Y62872D01*
X757777D01*
X756111Y64538D01*
Y71203D01*
X766108Y62872D02*
Y64538D01*
X767774D01*
Y62872D01*
X766108D01*
X781103Y72869D02*
X777771Y71203D01*
X774439Y67871D01*
Y64538D01*
X776105Y62872D01*
X779437D01*
X781103Y64538D01*
Y66205D01*
X779437Y67871D01*
X774439D01*
X784436Y71203D02*
X786102Y72869D01*
X789434D01*
X791100Y71203D01*
Y64538D01*
X789434Y62872D01*
X786102D01*
X784436Y64538D01*
Y71203D01*
X794432D02*
X796098Y72869D01*
X799431D01*
X801097Y71203D01*
Y64538D01*
X799431Y62872D01*
X796098D01*
X794432Y64538D01*
Y71203D01*
X804429Y62872D02*
Y69537D01*
X806095D01*
X807761Y67871D01*
Y62872D01*
Y67871D01*
X809427Y69537D01*
X811094Y67871D01*
Y62872D01*
X814426D02*
Y69537D01*
X816092D01*
X817758Y67871D01*
Y62872D01*
Y67871D01*
X819424Y69537D01*
X821090Y67871D01*
Y62872D01*
X756111Y91203D02*
X757777Y92869D01*
X761110D01*
X762776Y91203D01*
Y84538D01*
X761110Y82872D01*
X757777D01*
X756111Y84538D01*
Y91203D01*
X766108Y82872D02*
Y84538D01*
X767774D01*
Y82872D01*
X766108D01*
X774439Y91203D02*
X776105Y92869D01*
X779437D01*
X781103Y91203D01*
Y84538D01*
X779437Y82872D01*
X776105D01*
X774439Y84538D01*
Y91203D01*
X784436D02*
X786102Y92869D01*
X789434D01*
X791100Y91203D01*
Y89537D01*
X789434Y87871D01*
X787768D01*
X789434D01*
X791100Y86205D01*
Y84538D01*
X789434Y82872D01*
X786102D01*
X784436Y84538D01*
X801097Y92869D02*
X794432D01*
Y87871D01*
X797765Y89537D01*
X799431D01*
X801097Y87871D01*
Y84538D01*
X799431Y82872D01*
X796098D01*
X794432Y84538D01*
X804429Y82872D02*
Y89537D01*
X806095D01*
X807761Y87871D01*
Y82872D01*
Y87871D01*
X809427Y89537D01*
X811094Y87871D01*
Y82872D01*
X814426D02*
Y89537D01*
X816092D01*
X817758Y87871D01*
Y82872D01*
Y87871D01*
X819424Y89537D01*
X821090Y87871D01*
Y82872D01*
X756111Y111203D02*
X757777Y112869D01*
X761110D01*
X762776Y111203D01*
Y104538D01*
X761110Y102872D01*
X757777D01*
X756111Y104538D01*
Y111203D01*
X766108Y102872D02*
Y104538D01*
X767774D01*
Y102872D01*
X766108D01*
X774439Y111203D02*
X776105Y112869D01*
X779437D01*
X781103Y111203D01*
Y104538D01*
X779437Y102872D01*
X776105D01*
X774439Y104538D01*
Y111203D01*
X791100Y102872D02*
X784436D01*
X791100Y109537D01*
Y111203D01*
X789434Y112869D01*
X786102D01*
X784436Y111203D01*
X794432D02*
X796098Y112869D01*
X799431D01*
X801097Y111203D01*
Y104538D01*
X799431Y102872D01*
X796098D01*
X794432Y104538D01*
Y111203D01*
X804429Y102872D02*
Y109537D01*
X806095D01*
X807761Y107871D01*
Y102872D01*
Y107871D01*
X809427Y109537D01*
X811094Y107871D01*
Y102872D01*
X814426D02*
Y109537D01*
X816092D01*
X817758Y107871D01*
Y102872D01*
Y107871D01*
X819424Y109537D01*
X821090Y107871D01*
Y102872D01*
X756111Y131203D02*
X757777Y132869D01*
X761110D01*
X762776Y131203D01*
Y124538D01*
X761110Y122872D01*
X757777D01*
X756111Y124538D01*
Y131203D01*
X766108Y122872D02*
Y124538D01*
X767774D01*
Y122872D01*
X766108D01*
X774439Y131203D02*
X776105Y132869D01*
X779437D01*
X781103Y131203D01*
Y124538D01*
X779437Y122872D01*
X776105D01*
X774439Y124538D01*
Y131203D01*
X791100Y122872D02*
X784436D01*
X791100Y129537D01*
Y131203D01*
X789434Y132869D01*
X786102D01*
X784436Y131203D01*
X801097Y132869D02*
X794432D01*
Y127871D01*
X797765Y129537D01*
X799431D01*
X801097Y127871D01*
Y124538D01*
X799431Y122872D01*
X796098D01*
X794432Y124538D01*
X804429Y122872D02*
Y129537D01*
X806095D01*
X807761Y127871D01*
Y122872D01*
Y127871D01*
X809427Y129537D01*
X811094Y127871D01*
Y122872D01*
X814426D02*
Y129537D01*
X816092D01*
X817758Y127871D01*
Y122872D01*
Y127871D01*
X819424Y129537D01*
X821090Y127871D01*
Y122872D01*
X872829Y171203D02*
X871162Y172869D01*
X867830D01*
X866164Y171203D01*
Y164538D01*
X867830Y162872D01*
X871162D01*
X872829Y164538D01*
X877827Y162872D02*
X881159D01*
X882825Y164538D01*
Y167871D01*
X881159Y169537D01*
X877827D01*
X876161Y167871D01*
Y164538D01*
X877827Y162872D01*
X886158D02*
Y169537D01*
X891156D01*
X892822Y167871D01*
Y162872D01*
X896154D02*
X901153D01*
X902819Y164538D01*
X901153Y166204D01*
X897821D01*
X896154Y167871D01*
X897821Y169537D01*
X902819D01*
X907817Y171203D02*
Y169537D01*
X906151D01*
X909483D01*
X907817D01*
Y164538D01*
X909483Y162872D01*
X916148Y169537D02*
X919480D01*
X921146Y167871D01*
Y162872D01*
X916148D01*
X914482Y164538D01*
X916148Y166204D01*
X921146D01*
X924479Y162872D02*
Y169537D01*
X929477D01*
X931143Y167871D01*
Y162872D01*
X936142Y171203D02*
Y169537D01*
X934475D01*
X937808D01*
X936142D01*
Y164538D01*
X937808Y162872D01*
X871162Y2872D02*
Y12869D01*
X866164Y7871D01*
X872829D01*
X871162Y62872D02*
Y72869D01*
X866164Y67871D01*
X872829D01*
X876161Y62872D02*
Y64538D01*
X877827D01*
Y62872D01*
X876161D01*
X891156Y72869D02*
X887824Y71203D01*
X884491Y67871D01*
Y64538D01*
X886158Y62872D01*
X889490D01*
X891156Y64538D01*
Y66205D01*
X889490Y67871D01*
X884491D01*
X871162Y122872D02*
Y132869D01*
X866164Y127871D01*
X872829D01*
X962888Y172869D02*
Y162872D01*
X967886D01*
X969552Y164538D01*
Y166204D01*
X967886Y167871D01*
X962888D01*
X967886D01*
X969552Y169537D01*
Y171203D01*
X967886Y172869D01*
X962888D01*
X974550Y162872D02*
X977883D01*
X979549Y164538D01*
Y167871D01*
X977883Y169537D01*
X974550D01*
X972884Y167871D01*
Y164538D01*
X974550Y162872D01*
X984547Y169537D02*
X987879D01*
X989546Y167871D01*
Y162872D01*
X984547D01*
X982881Y164538D01*
X984547Y166204D01*
X989546D01*
X992878Y169537D02*
Y162872D01*
Y166204D01*
X994544Y167871D01*
X996210Y169537D01*
X997876D01*
X1009539Y172869D02*
Y162872D01*
X1004541D01*
X1002875Y164538D01*
Y167871D01*
X1004541Y169537D01*
X1009539D01*
X1022868Y172869D02*
Y162872D01*
X1029533D01*
X1034531Y169537D02*
X1037863D01*
X1039529Y167871D01*
Y162872D01*
X1034531D01*
X1032865Y164538D01*
X1034531Y166204D01*
X1039529D01*
X1042862Y169537D02*
Y164538D01*
X1044528Y162872D01*
X1049526D01*
Y161206D01*
X1047860Y159540D01*
X1046194D01*
X1049526Y162872D02*
Y169537D01*
X1057857Y162872D02*
X1054525D01*
X1052859Y164538D01*
Y167871D01*
X1054525Y169537D01*
X1057857D01*
X1059523Y167871D01*
Y166204D01*
X1052859D01*
X1062855Y169537D02*
Y162872D01*
Y166204D01*
X1064521Y167871D01*
X1066188Y169537D01*
X1067854D01*
X1089513Y171203D02*
X1087847Y172869D01*
X1084515D01*
X1082849Y171203D01*
Y169537D01*
X1084515Y167871D01*
X1087847D01*
X1089513Y166204D01*
Y164538D01*
X1087847Y162872D01*
X1084515D01*
X1082849Y164538D01*
X1094512Y171203D02*
Y169537D01*
X1092846D01*
X1096178D01*
X1094512D01*
Y164538D01*
X1096178Y162872D01*
X1102842Y169537D02*
X1106175D01*
X1107841Y167871D01*
Y162872D01*
X1102842D01*
X1101176Y164538D01*
X1102842Y166204D01*
X1107841D01*
X1117838Y169537D02*
X1112839D01*
X1111173Y167871D01*
Y164538D01*
X1112839Y162872D01*
X1117838D01*
X1121170D02*
Y172869D01*
Y166204D02*
X1126168Y169537D01*
X1121170Y166204D02*
X1126168Y162872D01*
X360975Y-27131D02*
X367639D01*
X364307D01*
Y-37128D01*
X372637D02*
X375970D01*
X377636Y-35461D01*
Y-32129D01*
X375970Y-30463D01*
X372637D01*
X370971Y-32129D01*
Y-35461D01*
X372637Y-37128D01*
X382634Y-28797D02*
Y-30463D01*
X380968D01*
X384300D01*
X382634D01*
Y-35461D01*
X384300Y-37128D01*
X390965Y-30463D02*
X394297D01*
X395963Y-32129D01*
Y-37128D01*
X390965D01*
X389299Y-35461D01*
X390965Y-33795D01*
X395963D01*
X399296Y-37128D02*
X402628D01*
X400962D01*
Y-27131D01*
X399296D01*
X417623D02*
Y-37128D01*
X422621D01*
X424287Y-35461D01*
Y-33795D01*
Y-32129D01*
X422621Y-30463D01*
X417623D01*
X429286Y-37128D02*
X432618D01*
X434284Y-35461D01*
Y-32129D01*
X432618Y-30463D01*
X429286D01*
X427620Y-32129D01*
Y-35461D01*
X429286Y-37128D01*
X439283Y-30463D02*
X442615D01*
X444281Y-32129D01*
Y-37128D01*
X439283D01*
X437616Y-35461D01*
X439283Y-33795D01*
X444281D01*
X447613Y-30463D02*
Y-37128D01*
Y-33795D01*
X449279Y-32129D01*
X450946Y-30463D01*
X452612D01*
X464274Y-27131D02*
Y-37128D01*
X459276D01*
X457610Y-35461D01*
Y-32129D01*
X459276Y-30463D01*
X464274D01*
X479270Y-28797D02*
Y-30463D01*
X477604D01*
X480936D01*
X479270D01*
Y-35461D01*
X480936Y-37128D01*
X485934Y-27131D02*
Y-37128D01*
Y-32129D01*
X487600Y-30463D01*
X490933D01*
X492599Y-32129D01*
Y-37128D01*
X495931D02*
X499263D01*
X497597D01*
Y-30463D01*
X495931D01*
X510926D02*
X505928D01*
X504262Y-32129D01*
Y-35461D01*
X505928Y-37128D01*
X510926D01*
X514258D02*
Y-27131D01*
Y-33795D02*
X519257Y-30463D01*
X514258Y-33795D02*
X519257Y-37128D01*
X524255D02*
Y-30463D01*
X529254D01*
X530920Y-32129D01*
Y-37128D01*
X539250D02*
X535918D01*
X534252Y-35461D01*
Y-32129D01*
X535918Y-30463D01*
X539250D01*
X540916Y-32129D01*
Y-33795D01*
X534252D01*
X544249Y-37128D02*
X549247D01*
X550913Y-35461D01*
X549247Y-33795D01*
X545915D01*
X544249Y-32129D01*
X545915Y-30463D01*
X550913D01*
X554245Y-37128D02*
X559244D01*
X560910Y-35461D01*
X559244Y-33795D01*
X555912D01*
X554245Y-32129D01*
X555912Y-30463D01*
X560910D01*
X564242D02*
X565908D01*
Y-32129D01*
X564242D01*
Y-30463D01*
Y-35461D02*
X565908D01*
Y-37128D01*
X564242D01*
Y-35461D01*
X756111Y-28797D02*
X757777Y-27131D01*
X761110D01*
X762776Y-28797D01*
Y-35461D01*
X761110Y-37128D01*
X757777D01*
X756111Y-35461D01*
Y-28797D01*
X766108Y-37128D02*
Y-35461D01*
X767774D01*
Y-37128D01*
X766108D01*
X774439Y-27131D02*
X781103D01*
Y-28797D01*
X774439Y-35461D01*
Y-37128D01*
X791100Y-27131D02*
X787768Y-28797D01*
X784436Y-32129D01*
Y-35461D01*
X786102Y-37128D01*
X789434D01*
X791100Y-35461D01*
Y-33795D01*
X789434Y-32129D01*
X784436D01*
X794432Y-37128D02*
X797765D01*
X796098D01*
Y-27131D01*
X794432Y-28797D01*
X802763Y-37128D02*
Y-30463D01*
X804429D01*
X806095Y-32129D01*
Y-37128D01*
Y-32129D01*
X807761Y-30463D01*
X809427Y-32129D01*
Y-37128D01*
X812760D02*
Y-30463D01*
X814426D01*
X816092Y-32129D01*
Y-37128D01*
Y-32129D01*
X817758Y-30463D01*
X819424Y-32129D01*
Y-37128D01*
D55*
X348434Y157872D02*
X1138708D01*
X348434Y177872D02*
X1138708D01*
X348434Y-22128D02*
Y177872D01*
Y-22128D02*
X418500D01*
X348434Y-2128D02*
X418500D01*
X348434Y17872D02*
X418500D01*
X348434Y37872D02*
X418500D01*
X348434Y57872D02*
X418500D01*
X348434Y77872D02*
X418500D01*
X348434Y97872D02*
X418500D01*
X348434Y117872D02*
X418500D01*
X348434Y137872D02*
X418500D01*
Y-22128D02*
Y177872D01*
Y-22128D02*
X641849D01*
X418500Y-2128D02*
X641849D01*
X418500Y17872D02*
X641849D01*
X418500Y37872D02*
X641849D01*
X418500Y57872D02*
X641849D01*
X418500Y77872D02*
X641849D01*
X418500Y97872D02*
X641849D01*
X418500Y117872D02*
X641849D01*
X418500Y137872D02*
X641849D01*
Y-22128D02*
Y177872D01*
Y-22128D02*
X743571D01*
X641849Y-2128D02*
X743571D01*
X641849Y17872D02*
X743571D01*
X641849Y37872D02*
X743571D01*
X641849Y57872D02*
X743571D01*
X641849Y77872D02*
X743571D01*
X641849Y97872D02*
X743571D01*
X641849Y117872D02*
X743571D01*
X641849Y137872D02*
X743571D01*
Y-22128D02*
Y177872D01*
Y-22128D02*
X853624D01*
X743571Y-2128D02*
X853624D01*
X743571Y17872D02*
X853624D01*
X743571Y37872D02*
X853624D01*
X743571Y57872D02*
X853624D01*
X743571Y77872D02*
X853624D01*
X743571Y97872D02*
X853624D01*
X743571Y117872D02*
X853624D01*
X743571Y137872D02*
X853624D01*
Y-22128D02*
Y177872D01*
Y-22128D02*
X950348D01*
X853624Y-2128D02*
X950348D01*
X853624Y17872D02*
X950348D01*
X853624Y37872D02*
X950348D01*
X853624Y57872D02*
X950348D01*
X853624Y77872D02*
X950348D01*
X853624Y97872D02*
X950348D01*
X853624Y117872D02*
X950348D01*
X853624Y137872D02*
X950348D01*
Y-22128D02*
Y177872D01*
Y-22128D02*
X1138708D01*
X950348Y-2128D02*
X1138708D01*
X950348Y17872D02*
X1138708D01*
X950348Y37872D02*
X1138708D01*
X950348Y57872D02*
X1138708D01*
X950348Y77872D02*
X1138708D01*
X950348Y97872D02*
X1138708D01*
X950348Y117872D02*
X1138708D01*
X950348Y137872D02*
X1138708D01*
Y-22128D02*
Y177872D01*
D56*
X1128708Y-22128D02*
X1138708Y-12128D01*
X1118708Y-22128D02*
X1138708Y-2128D01*
X1108708Y-22128D02*
X1128708Y-2128D01*
X1098708Y-22128D02*
X1118708Y-2128D01*
X1088708Y-22128D02*
X1108708Y-2128D01*
X1078708Y-22128D02*
X1098708Y-2128D01*
X1068708Y-22128D02*
X1088708Y-2128D01*
X1058708Y-22128D02*
X1078708Y-2128D01*
X1048708Y-22128D02*
X1068708Y-2128D01*
X1038708Y-22128D02*
X1058708Y-2128D01*
X1028708Y-22128D02*
X1048708Y-2128D01*
X1018708Y-22128D02*
X1038708Y-2128D01*
X1008708Y-22128D02*
X1028708Y-2128D01*
X998708Y-22128D02*
X1018708Y-2128D01*
X988708Y-22128D02*
X1008708Y-2128D01*
X978708Y-22128D02*
X998708Y-2128D01*
X968708Y-22128D02*
X988708Y-2128D01*
X958708Y-22128D02*
X978708Y-2128D01*
X950348Y-20488D02*
X968708Y-2128D01*
X950348Y-10488D02*
X958708Y-2128D01*
X1128708D02*
X1138708Y7872D01*
X1118708Y-2128D02*
X1138708Y17872D01*
X1108708Y-2128D02*
X1128708Y17872D01*
X1098708Y-2128D02*
X1118708Y17872D01*
X1088708Y-2128D02*
X1108708Y17872D01*
X1078708Y-2128D02*
X1098708Y17872D01*
X1068708Y-2128D02*
X1088708Y17872D01*
X1058708Y-2128D02*
X1078708Y17872D01*
X1048708Y-2128D02*
X1068708Y17872D01*
X1038708Y-2128D02*
X1058708Y17872D01*
X1028708Y-2128D02*
X1048708Y17872D01*
X1018708Y-2128D02*
X1038708Y17872D01*
X1008708Y-2128D02*
X1028708Y17872D01*
X998708Y-2128D02*
X1018708Y17872D01*
X988708Y-2128D02*
X1008708Y17872D01*
X978708Y-2128D02*
X998708Y17872D01*
X968708Y-2128D02*
X988708Y17872D01*
X958708Y-2128D02*
X978708Y17872D01*
X950348Y-488D02*
X968708Y17872D01*
X950348Y9512D02*
X958708Y17872D01*
X1128708D02*
X1138708Y27872D01*
X1118708Y17872D02*
X1138708Y37872D01*
X1108708Y17872D02*
X1128708Y37872D01*
X1098708Y17872D02*
X1118708Y37872D01*
X1088708Y17872D02*
X1108708Y37872D01*
X1078708Y17872D02*
X1098708Y37872D01*
X1068708Y17872D02*
X1088708Y37872D01*
X1058708Y17872D02*
X1078708Y37872D01*
X1048708Y17872D02*
X1068708Y37872D01*
X1038708Y17872D02*
X1058708Y37872D01*
X1028708Y17872D02*
X1048708Y37872D01*
X1018708Y17872D02*
X1038708Y37872D01*
X1008708Y17872D02*
X1028708Y37872D01*
X998708Y17872D02*
X1018708Y37872D01*
X988708Y17872D02*
X1008708Y37872D01*
X978708Y17872D02*
X998708Y37872D01*
X968708Y17872D02*
X988708Y37872D01*
X958708Y17872D02*
X978708Y37872D01*
X950348Y19512D02*
X968708Y37872D01*
X950348Y29512D02*
X958708Y37872D01*
X1128708D02*
X1138708Y47872D01*
X1118708Y37872D02*
X1138708Y57872D01*
X1108708Y37872D02*
X1128708Y57872D01*
X1098708Y37872D02*
X1118708Y57872D01*
X1088708Y37872D02*
X1108708Y57872D01*
X1078708Y37872D02*
X1098708Y57872D01*
X1068708Y37872D02*
X1088708Y57872D01*
X1058708Y37872D02*
X1078708Y57872D01*
X1048708Y37872D02*
X1068708Y57872D01*
X1038708Y37872D02*
X1058708Y57872D01*
X1028708Y37872D02*
X1048708Y57872D01*
X1018708Y37872D02*
X1038708Y57872D01*
X1008708Y37872D02*
X1028708Y57872D01*
X998708Y37872D02*
X1018708Y57872D01*
X988708Y37872D02*
X1008708Y57872D01*
X978708Y37872D02*
X998708Y57872D01*
X968708Y37872D02*
X988708Y57872D01*
X958708Y37872D02*
X978708Y57872D01*
X950348Y39512D02*
X968708Y57872D01*
X950348Y49512D02*
X958708Y57872D01*
X1128708D02*
X1138708Y67872D01*
X1118708Y57872D02*
X1138708Y77872D01*
X1108708Y57872D02*
X1128708Y77872D01*
X1098708Y57872D02*
X1118708Y77872D01*
X1088708Y57872D02*
X1108708Y77872D01*
X1078708Y57872D02*
X1098708Y77872D01*
X1068708Y57872D02*
X1088708Y77872D01*
X1058708Y57872D02*
X1078708Y77872D01*
X1048708Y57872D02*
X1068708Y77872D01*
X1038708Y57872D02*
X1058708Y77872D01*
X1028708Y57872D02*
X1048708Y77872D01*
X1018708Y57872D02*
X1038708Y77872D01*
X1008708Y57872D02*
X1028708Y77872D01*
X998708Y57872D02*
X1018708Y77872D01*
X988708Y57872D02*
X1008708Y77872D01*
X978708Y57872D02*
X998708Y77872D01*
X968708Y57872D02*
X988708Y77872D01*
X958708Y57872D02*
X978708Y77872D01*
X950348Y59512D02*
X968708Y77872D01*
X950348Y69512D02*
X958708Y77872D01*
X1128708D02*
X1138708Y87872D01*
X1118708Y77872D02*
X1138708Y97872D01*
X1108708Y77872D02*
X1128708Y97872D01*
X1098708Y77872D02*
X1118708Y97872D01*
X1088708Y77872D02*
X1108708Y97872D01*
X1078708Y77872D02*
X1098708Y97872D01*
X1068708Y77872D02*
X1088708Y97872D01*
X1058708Y77872D02*
X1078708Y97872D01*
X1048708Y77872D02*
X1068708Y97872D01*
X1038708Y77872D02*
X1058708Y97872D01*
X1028708Y77872D02*
X1048708Y97872D01*
X1018708Y77872D02*
X1038708Y97872D01*
X1008708Y77872D02*
X1028708Y97872D01*
X998708Y77872D02*
X1018708Y97872D01*
X988708Y77872D02*
X1008708Y97872D01*
X978708Y77872D02*
X998708Y97872D01*
X968708Y77872D02*
X988708Y97872D01*
X958708Y77872D02*
X978708Y97872D01*
X950348Y79512D02*
X968708Y97872D01*
X950348Y89512D02*
X958708Y97872D01*
X1128708D02*
X1138708Y107872D01*
X1118708Y97872D02*
X1138708Y117872D01*
X1108708Y97872D02*
X1128708Y117872D01*
X1098708Y97872D02*
X1118708Y117872D01*
X1088708Y97872D02*
X1108708Y117872D01*
X1078708Y97872D02*
X1098708Y117872D01*
X1068708Y97872D02*
X1088708Y117872D01*
X1058708Y97872D02*
X1078708Y117872D01*
X1048708Y97872D02*
X1068708Y117872D01*
X1038708Y97872D02*
X1058708Y117872D01*
X1028708Y97872D02*
X1048708Y117872D01*
X1018708Y97872D02*
X1038708Y117872D01*
X1008708Y97872D02*
X1028708Y117872D01*
X998708Y97872D02*
X1018708Y117872D01*
X988708Y97872D02*
X1008708Y117872D01*
X978708Y97872D02*
X998708Y117872D01*
X968708Y97872D02*
X988708Y117872D01*
X958708Y97872D02*
X978708Y117872D01*
X950348Y99512D02*
X968708Y117872D01*
X950348Y109512D02*
X958708Y117872D01*
X1128708D02*
X1138708Y127872D01*
X1118708Y117872D02*
X1138708Y137872D01*
X1108708Y117872D02*
X1128708Y137872D01*
X1098708Y117872D02*
X1118708Y137872D01*
X1088708Y117872D02*
X1108708Y137872D01*
X1078708Y117872D02*
X1098708Y137872D01*
X1068708Y117872D02*
X1088708Y137872D01*
X1058708Y117872D02*
X1078708Y137872D01*
X1048708Y117872D02*
X1068708Y137872D01*
X1038708Y117872D02*
X1058708Y137872D01*
X1028708Y117872D02*
X1048708Y137872D01*
X1018708Y117872D02*
X1038708Y137872D01*
X1008708Y117872D02*
X1028708Y137872D01*
X998708Y117872D02*
X1018708Y137872D01*
X988708Y117872D02*
X1008708Y137872D01*
X978708Y117872D02*
X998708Y137872D01*
X968708Y117872D02*
X988708Y137872D01*
X958708Y117872D02*
X978708Y137872D01*
X950348Y119512D02*
X968708Y137872D01*
X950348Y129512D02*
X958708Y137872D01*
X1128708D02*
X1138708Y147872D01*
X1118708Y137872D02*
X1138708Y157872D01*
X1108708Y137872D02*
X1128708Y157872D01*
X1098708Y137872D02*
X1118708Y157872D01*
X1088708Y137872D02*
X1108708Y157872D01*
X1078708Y137872D02*
X1098708Y157872D01*
X1068708Y137872D02*
X1088708Y157872D01*
X1058708Y137872D02*
X1078708Y157872D01*
X1048708Y137872D02*
X1068708Y157872D01*
X1038708Y137872D02*
X1058708Y157872D01*
X1028708Y137872D02*
X1048708Y157872D01*
X1018708Y137872D02*
X1038708Y157872D01*
X1008708Y137872D02*
X1028708Y157872D01*
X998708Y137872D02*
X1018708Y157872D01*
X988708Y137872D02*
X1008708Y157872D01*
X978708Y137872D02*
X998708Y157872D01*
X968708Y137872D02*
X988708Y157872D01*
X958708Y137872D02*
X978708Y157872D01*
X950348Y139512D02*
X968708Y157872D01*
X950348Y149512D02*
X958708Y157872D01*
M02*
