G04*
G04 #@! TF.GenerationSoftware,Altium Limited,Altium Designer,22.2.1 (43)*
G04*
G04 Layer_Color=128*
%FSLAX44Y44*%
%MOMM*%
G71*
G04*
G04 #@! TF.SameCoordinates,05D4EE7A-A614-4991-951A-A7459AF70658*
G04*
G04*
G04 #@! TF.FilePolarity,Positive*
G04*
G01*
G75*
%ADD57C,0.0508*%
D57*
X40500Y101500D02*
X43500D01*
X42000Y100000D02*
Y103000D01*
X160500Y60500D02*
X163500D01*
X162000Y59000D02*
Y62000D01*
X23500Y128000D02*
X26500D01*
X25000Y126500D02*
Y129500D01*
X10500Y128000D02*
X13500D01*
X12000Y126500D02*
Y129500D01*
X140500Y44000D02*
X143500D01*
X142000Y42500D02*
Y45500D01*
X53500Y64500D02*
X56500D01*
X55000Y63000D02*
Y66000D01*
X23500Y62000D02*
X26500D01*
X25000Y60500D02*
Y63500D01*
X9000Y65500D02*
X12000D01*
X10500Y64000D02*
Y67000D01*
X68500Y53000D02*
X71500D01*
X70000Y51500D02*
Y54500D01*
X112500Y58000D02*
X115500D01*
X114000Y56500D02*
Y59500D01*
X52500Y115000D02*
X55500D01*
X54000Y113500D02*
Y116500D01*
X11500Y13000D02*
X14500D01*
X13000Y11500D02*
Y14500D01*
X181500Y43000D02*
X184500D01*
X183000Y41500D02*
Y44500D01*
X106500Y145000D02*
X109500D01*
X108000Y143500D02*
Y146500D01*
X138500Y129000D02*
X141500D01*
X140000Y127500D02*
Y130500D01*
X139500Y70000D02*
X142500D01*
X141000Y68500D02*
Y71500D01*
X113500Y23000D02*
X116500D01*
X115000Y21500D02*
Y24500D01*
X22500Y29000D02*
X25500D01*
X24000Y27500D02*
Y30500D01*
X113500Y11000D02*
X116500D01*
X115000Y9500D02*
Y12500D01*
X183500Y124500D02*
X186500D01*
X185000Y123000D02*
Y126000D01*
X109500Y132000D02*
X112500D01*
X111000Y130500D02*
Y133500D01*
X95500Y122000D02*
X98500D01*
X97000Y120500D02*
Y123500D01*
X95500Y132000D02*
X98500D01*
X97000Y130500D02*
Y133500D01*
X95604Y72296D02*
X98604D01*
X97104Y70796D02*
Y73796D01*
X88500Y56000D02*
X91500D01*
X90000Y54500D02*
Y57500D01*
X160500Y143500D02*
X163500D01*
X162000Y142000D02*
Y145000D01*
X16500Y41000D02*
X19500D01*
X18000Y39500D02*
Y42500D01*
X28500Y21500D02*
X31500D01*
X30000Y20000D02*
Y23000D01*
X37050Y25000D02*
X40050D01*
X38550Y23500D02*
Y26500D01*
X75750Y40750D02*
X78750D01*
X77250Y39250D02*
Y42250D01*
X64518Y25282D02*
X67518D01*
X66018Y23782D02*
Y26782D01*
X66500Y11000D02*
X69500D01*
X68000Y9500D02*
Y12500D01*
X81500Y144000D02*
X84500D01*
X83000Y142500D02*
Y145500D01*
X61000Y80000D02*
X64000D01*
X62500Y78500D02*
Y81500D01*
X32500Y115000D02*
X35500D01*
X34000Y113500D02*
Y116500D01*
X140500Y15000D02*
X143500D01*
X142000Y13500D02*
Y16500D01*
X72050Y95000D02*
X75050D01*
X73550Y93500D02*
Y96500D01*
X23500Y93000D02*
X26500D01*
X25000Y91500D02*
Y94500D01*
X49500Y39000D02*
X52500D01*
X51000Y37500D02*
Y40500D01*
X38500Y79000D02*
X41500D01*
X40000Y77500D02*
Y80500D01*
M02*
