G04*
G04 #@! TF.GenerationSoftware,Altium Limited,Altium Designer,22.2.1 (43)*
G04*
G04 Layer_Physical_Order=2*
G04 Layer_Color=9720587*
%FSLAX44Y44*%
%MOMM*%
G71*
G04*
G04 #@! TF.SameCoordinates,05D4EE7A-A614-4991-951A-A7459AF70658*
G04*
G04*
G04 #@! TF.FilePolarity,Positive*
G04*
G01*
G75*
%ADD51C,0.3000*%
%ADD53C,0.6000*%
G36*
X189000Y7000D02*
X77999D01*
X77645Y7642D01*
X77538Y8270D01*
X88189Y18922D01*
X111300D01*
X111884Y18337D01*
X113906Y17500D01*
X116094D01*
X118116Y18337D01*
X119663Y19885D01*
X120500Y21906D01*
Y24094D01*
X119663Y26116D01*
X118116Y27663D01*
X116094Y28500D01*
X113906D01*
X111884Y27663D01*
X111300Y27078D01*
X89689D01*
X88078Y28689D01*
Y43192D01*
X87768Y44753D01*
X86884Y46076D01*
X86364Y46596D01*
X90268Y50500D01*
X91094D01*
X93116Y51337D01*
X94663Y52884D01*
X95500Y54906D01*
Y57094D01*
X94663Y59116D01*
X93116Y60663D01*
X91094Y61500D01*
X88906D01*
X86884Y60663D01*
X85337Y59116D01*
X84500Y57094D01*
Y56268D01*
X80596Y52364D01*
X77076Y55884D01*
X75753Y56768D01*
X74192Y57078D01*
X74192Y57078D01*
X73700D01*
X73116Y57663D01*
X71094Y58500D01*
X68906D01*
X66884Y57663D01*
X65337Y56115D01*
X64500Y54094D01*
Y51906D01*
X65337Y49885D01*
X66884Y48337D01*
X68906Y47500D01*
X71094D01*
X73096Y48329D01*
X74654Y46771D01*
X74406Y45525D01*
X74134Y45413D01*
X73550Y44828D01*
X68750D01*
X67189Y44518D01*
X65866Y43634D01*
X51311Y29078D01*
X42250D01*
X41666Y29663D01*
X39644Y30500D01*
X37456D01*
X35435Y29663D01*
X33887Y28115D01*
X33084Y26176D01*
X31094Y27000D01*
X28906D01*
X26885Y26163D01*
X25337Y24615D01*
X24500Y22594D01*
Y20406D01*
X25337Y18384D01*
X26885Y16837D01*
X28906Y16000D01*
X29732D01*
X32616Y13116D01*
X32616Y13116D01*
X33939Y12232D01*
X35500Y11922D01*
X52500D01*
X52500Y11922D01*
X54061Y12232D01*
X55384Y13116D01*
X62895Y20627D01*
X62903Y20619D01*
X64924Y19782D01*
X67112D01*
X69134Y20619D01*
X70681Y22166D01*
X71518Y24188D01*
Y26376D01*
X70681Y28397D01*
X69134Y29944D01*
X67112Y30782D01*
X66345D01*
X65819Y32052D01*
X70439Y36672D01*
X73550D01*
X74134Y36087D01*
X76156Y35250D01*
X78344D01*
X78866Y35466D01*
X79922Y34760D01*
Y27000D01*
X79922Y27000D01*
X80232Y25439D01*
X81116Y24116D01*
X81482Y23750D01*
X72811Y15078D01*
X71700D01*
X71115Y15663D01*
X69094Y16500D01*
X66906D01*
X64885Y15663D01*
X63337Y14116D01*
X62500Y12094D01*
Y9906D01*
X63178Y8270D01*
X62562Y7000D01*
X7000D01*
Y123426D01*
X8270Y123952D01*
X8885Y123337D01*
X10906Y122500D01*
X13094D01*
X15115Y123337D01*
X16663Y124885D01*
X17500Y126906D01*
Y127732D01*
X29689Y139922D01*
X79300D01*
X79885Y139337D01*
X81906Y138500D01*
X84094D01*
X86116Y139337D01*
X87663Y140885D01*
X88500Y142906D01*
Y145094D01*
X87663Y147115D01*
X86116Y148663D01*
X85953Y148730D01*
X86206Y150000D01*
X160002D01*
X160254Y148730D01*
X158884Y148163D01*
X158800Y148078D01*
X142000D01*
X142000Y148078D01*
X140439Y147768D01*
X139116Y146884D01*
X116311Y124078D01*
X110595D01*
X109790Y124884D01*
X108649Y125646D01*
X109251Y126771D01*
X109906Y126500D01*
X112094D01*
X114115Y127337D01*
X115663Y128884D01*
X116500Y130906D01*
Y133094D01*
X115663Y135115D01*
X114115Y136663D01*
X112094Y137500D01*
X109906D01*
X107885Y136663D01*
X107300Y136078D01*
X100700D01*
X100115Y136663D01*
X98094Y137500D01*
X95906D01*
X93884Y136663D01*
X92337Y135115D01*
X91500Y133094D01*
Y130906D01*
X92337Y128884D01*
X93392Y127830D01*
X93742Y127000D01*
X93392Y126170D01*
X92337Y125115D01*
X91500Y123094D01*
Y120906D01*
X92337Y118884D01*
X93884Y117337D01*
X95906Y116500D01*
X98094D01*
X100115Y117337D01*
X100700Y117922D01*
X105217D01*
X106022Y117116D01*
X106022Y117116D01*
X107345Y116232D01*
X108906Y115922D01*
X108906Y115922D01*
X118000D01*
X118000Y115922D01*
X119561Y116232D01*
X120884Y117116D01*
X143689Y139922D01*
X157800D01*
X158884Y138837D01*
X160906Y138000D01*
X163094D01*
X165116Y138837D01*
X166663Y140385D01*
X167500Y142406D01*
Y144594D01*
X166663Y146615D01*
X165116Y148163D01*
X163746Y148730D01*
X163998Y150000D01*
X189000D01*
Y7000D01*
D02*
G37*
%LPC*%
G36*
X35094Y120500D02*
X32906D01*
X30884Y119663D01*
X29337Y118116D01*
X28500Y116094D01*
Y115268D01*
X15116Y101884D01*
X14232Y100561D01*
X13922Y99000D01*
X13922Y99000D01*
Y44700D01*
X13337Y44116D01*
X12500Y42094D01*
Y39906D01*
X13337Y37885D01*
X14885Y36337D01*
X16906Y35500D01*
X19094D01*
X21116Y36337D01*
X22663Y37885D01*
X23500Y39906D01*
Y42094D01*
X22663Y44116D01*
X22078Y44700D01*
Y56114D01*
X23134Y56820D01*
X23906Y56500D01*
X26094D01*
X28115Y57337D01*
X29663Y58885D01*
X30500Y60906D01*
Y63094D01*
X29663Y65115D01*
X29078Y65700D01*
Y88922D01*
X34500D01*
X34500Y88922D01*
X36061Y89232D01*
X37384Y90116D01*
X41102Y93834D01*
X41152Y93875D01*
X42646Y94086D01*
X57000Y79732D01*
Y78906D01*
X57837Y76884D01*
X59384Y75337D01*
X61406Y74500D01*
X63594D01*
X65616Y75337D01*
X67163Y76884D01*
X68000Y78906D01*
Y81094D01*
X67163Y83116D01*
X65616Y84663D01*
X63594Y85500D01*
X62768D01*
X47500Y100768D01*
Y102594D01*
X46663Y104615D01*
X45115Y106163D01*
X43094Y107000D01*
X40906D01*
X38884Y106163D01*
X37337Y104615D01*
X36500Y102594D01*
Y100956D01*
X35373Y99829D01*
X34994Y99262D01*
X32811Y97078D01*
X28700D01*
X28115Y97663D01*
X26094Y98500D01*
X25064D01*
X24538Y99770D01*
X34268Y109500D01*
X35094D01*
X37115Y110337D01*
X38663Y111884D01*
X39500Y113906D01*
Y116094D01*
X38663Y118116D01*
X37115Y119663D01*
X35094Y120500D01*
D02*
G37*
G36*
X98198Y77796D02*
X96010D01*
X93988Y76959D01*
X92441Y75412D01*
X91604Y73390D01*
Y71202D01*
X92441Y69181D01*
X93988Y67634D01*
X96010Y66796D01*
X98198D01*
X100219Y67634D01*
X100507Y67922D01*
X114311D01*
X121116Y61116D01*
X124616Y57616D01*
X124616Y57616D01*
X125939Y56732D01*
X127500Y56422D01*
X127500Y56422D01*
X158300D01*
X158884Y55837D01*
X160906Y55000D01*
X163094D01*
X165116Y55837D01*
X166663Y57385D01*
X167500Y59406D01*
Y61594D01*
X166663Y63615D01*
X165116Y65163D01*
X163094Y66000D01*
X160906D01*
X158884Y65163D01*
X158300Y64578D01*
X129189D01*
X126884Y66884D01*
X118884Y74884D01*
X117561Y75768D01*
X116000Y76078D01*
X116000Y76078D01*
X101100D01*
X100219Y76959D01*
X98198Y77796D01*
D02*
G37*
%LPD*%
D51*
X87250Y23750D02*
X88000Y23000D01*
X115000D01*
X65833Y25097D02*
X66018Y25282D01*
X52500Y16000D02*
X61597Y25097D01*
X65833D01*
X35500Y16000D02*
X52500D01*
X84000Y27000D02*
X87250Y23750D01*
X68000Y11000D02*
X74500D01*
X87250Y23750D01*
X38257Y96757D02*
Y96946D01*
X34500Y93000D02*
X38257Y96757D01*
X42000Y100688D02*
Y101500D01*
X38257Y96946D02*
X42000Y100688D01*
X127500Y60500D02*
X162000D01*
X124000Y64000D02*
X127500Y60500D01*
X42000Y100500D02*
X62500Y80000D01*
X25000Y93000D02*
X34500D01*
X62500Y80000D02*
Y80000D01*
X28000Y144000D02*
X83000D01*
X12000Y128000D02*
X28000Y144000D01*
X25000Y62000D02*
Y93000D01*
X25000Y62000D02*
X25000Y62000D01*
X80096Y47096D02*
X84000Y43192D01*
X74192Y53000D02*
X80096Y47096D01*
X73000Y53000D02*
X74192D01*
X97000Y132000D02*
X111000D01*
X108906Y120000D02*
X118000D01*
X97000Y122000D02*
X106906D01*
X108906Y120000D01*
X118000D02*
X142000Y144000D01*
X97400Y72000D02*
X116000D01*
X97104Y72296D02*
X97400Y72000D01*
X116000D02*
X124000Y64000D01*
X80096Y47096D02*
X81096D01*
X90000Y56000D01*
X142000Y144000D02*
X162000D01*
X18000Y99000D02*
X34000Y115000D01*
X18000Y41000D02*
Y99000D01*
X30000Y21500D02*
X35500Y16000D01*
X68750Y40750D02*
X77250D01*
X53000Y25000D02*
X68750Y40750D01*
X38550Y25000D02*
X53000D01*
X84000Y27000D02*
Y43192D01*
D53*
X42000Y101500D02*
D03*
X162000Y60500D02*
D03*
X25000Y128000D02*
D03*
X12000D02*
D03*
X142000Y44000D02*
D03*
X55000Y64500D02*
D03*
X25000Y62000D02*
D03*
X10500Y65500D02*
D03*
X70000Y53000D02*
D03*
X114000Y58000D02*
D03*
X54000Y115000D02*
D03*
X13000Y13000D02*
D03*
X183000Y43000D02*
D03*
X108000Y145000D02*
D03*
X140000Y129000D02*
D03*
X141000Y70000D02*
D03*
X115000Y23000D02*
D03*
X24000Y29000D02*
D03*
X115000Y11000D02*
D03*
X185000Y124500D02*
D03*
X111000Y132000D02*
D03*
X97000Y122000D02*
D03*
Y132000D02*
D03*
X97104Y72296D02*
D03*
X90000Y56000D02*
D03*
X162000Y143500D02*
D03*
X18000Y41000D02*
D03*
X30000Y21500D02*
D03*
X38550Y25000D02*
D03*
X77250Y40750D02*
D03*
X66018Y25282D02*
D03*
X68000Y11000D02*
D03*
X83000Y144000D02*
D03*
X62500Y80000D02*
D03*
X34000Y115000D02*
D03*
X142000Y15000D02*
D03*
X73550Y95000D02*
D03*
X25000Y93000D02*
D03*
X51000Y39000D02*
D03*
X40000Y79000D02*
D03*
M02*
