G04*
G04 #@! TF.GenerationSoftware,Altium Limited,Altium Designer,22.2.1 (43)*
G04*
G04 Layer_Color=15441517*
%FSLAX44Y44*%
%MOMM*%
G71*
G04*
G04 #@! TF.SameCoordinates,05D4EE7A-A614-4991-951A-A7459AF70658*
G04*
G04*
G04 #@! TF.FilePolarity,Positive*
G04*
G01*
G75*
%ADD11C,0.2540*%
%ADD54C,0.1524*%
D11*
X204920Y15240D02*
X210000Y0D01*
X215080Y15240D01*
X210000Y155000D02*
X215080Y139760D01*
X204920D02*
X210000Y155000D01*
Y0D02*
Y47712D01*
Y99160D02*
Y155000D01*
X198540Y0D02*
X212540D01*
X198540Y155000D02*
X212540D01*
X0Y-15000D02*
X15240Y-9920D01*
X0Y-15000D02*
X15240Y-20080D01*
X179760D02*
X195000Y-15000D01*
X179760Y-9920D02*
X195000Y-15000D01*
X0D02*
X67712D01*
X119160D02*
X195000D01*
X0Y-17540D02*
Y-3540D01*
X195000Y-17540D02*
Y-3540D01*
D54*
X216522Y51776D02*
Y55109D01*
Y53443D01*
X206526D01*
X208192Y51776D01*
X206526Y66771D02*
Y60107D01*
X211524D01*
X209858Y63439D01*
Y65105D01*
X211524Y66771D01*
X214856D01*
X216522Y65105D01*
Y61773D01*
X214856Y60107D01*
X216522Y70104D02*
X214856D01*
Y71770D01*
X216522D01*
Y70104D01*
X206526Y85099D02*
Y78434D01*
X211524D01*
X209858Y81767D01*
Y83433D01*
X211524Y85099D01*
X214856D01*
X216522Y83433D01*
Y80100D01*
X214856Y78434D01*
X208192Y88431D02*
X206526Y90097D01*
Y93430D01*
X208192Y95096D01*
X214856D01*
X216522Y93430D01*
Y90097D01*
X214856Y88431D01*
X208192D01*
X71776Y-21522D02*
X75109D01*
X73442D01*
Y-11526D01*
X71776Y-13192D01*
X80107Y-19856D02*
X81773Y-21522D01*
X85105D01*
X86771Y-19856D01*
Y-13192D01*
X85105Y-11526D01*
X81773D01*
X80107Y-13192D01*
Y-14858D01*
X81773Y-16524D01*
X86771D01*
X90104Y-21522D02*
Y-19856D01*
X91770D01*
Y-21522D01*
X90104D01*
X105099Y-11526D02*
X98434D01*
Y-16524D01*
X101767Y-14858D01*
X103433D01*
X105099Y-16524D01*
Y-19856D01*
X103433Y-21522D01*
X100100D01*
X98434Y-19856D01*
X108431Y-13192D02*
X110097Y-11526D01*
X113429D01*
X115096Y-13192D01*
Y-19856D01*
X113429Y-21522D01*
X110097D01*
X108431Y-19856D01*
Y-13192D01*
M02*
