G04*
G04 #@! TF.GenerationSoftware,Altium Limited,Altium Designer,22.2.1 (43)*
G04*
G04 Layer_Color=65535*
%FSLAX44Y44*%
%MOMM*%
G71*
G04*
G04 #@! TF.SameCoordinates,05D4EE7A-A614-4991-951A-A7459AF70658*
G04*
G04*
G04 #@! TF.FilePolarity,Positive*
G04*
G01*
G75*
%ADD10C,0.2000*%
%ADD11C,0.2540*%
%ADD12R,0.5000X0.6000*%
D10*
X57000Y64000D02*
G03*
X57000Y64000I-2000J0D01*
G01*
X68000Y24000D02*
G03*
X68000Y24000I-2000J0D01*
G01*
D11*
X25000Y64000D02*
Y67000D01*
Y64000D02*
X28000D01*
X25000Y94000D02*
X28000D01*
X25000Y91000D02*
Y94000D01*
X55000Y91000D02*
Y94000D01*
X52000D02*
X55000D01*
X36000Y24000D02*
X39000D01*
X36000D02*
Y27000D01*
Y51000D02*
Y54000D01*
X39000D01*
X63000D02*
X66000D01*
Y51000D02*
Y54000D01*
X96000Y146950D02*
X150000D01*
X109000Y129750D02*
Y135750D01*
X137000D01*
X96000Y55050D02*
X150000D01*
X137000Y66250D02*
Y72250D01*
X109000Y78950D02*
X137000D01*
X109000Y66250D02*
Y72250D01*
X137000D01*
X109000Y66250D02*
X137000D01*
X150000Y55050D02*
Y146950D01*
X137000Y78950D02*
Y84950D01*
Y91650D02*
Y97650D01*
Y129750D02*
Y135750D01*
Y104350D02*
Y110350D01*
Y117050D02*
Y123050D01*
X109000Y78950D02*
Y84950D01*
X96000Y55050D02*
Y146950D01*
X109000Y91650D02*
Y97650D01*
Y84950D02*
X137000D01*
X109000Y97650D02*
X137000D01*
X109000Y91650D02*
X137000D01*
X109000Y104350D02*
Y110350D01*
X137000D01*
X109000Y104350D02*
X137000D01*
X109000Y117050D02*
Y123050D01*
X137000D01*
X109000Y117050D02*
X137000D01*
X109000Y129750D02*
X137000D01*
X36500Y155000D02*
X71500D01*
X36500Y107000D02*
X71500D01*
X36500Y144000D02*
Y155000D01*
Y107000D02*
Y118000D01*
X139000Y11500D02*
Y46500D01*
X91000Y11500D02*
Y46500D01*
X128000D02*
X139000D01*
X91000D02*
X102000D01*
X190000Y11500D02*
Y46500D01*
X142000Y11500D02*
Y46500D01*
X179000D02*
X190000D01*
X142000D02*
X153000D01*
X146960Y68040D02*
Y70373D01*
Y69206D01*
X139962D01*
X141129Y68040D01*
X98962Y73039D02*
Y70706D01*
X100129Y69540D01*
X104794D01*
X105960Y70706D01*
Y73039D01*
X104794Y74205D01*
X100129D01*
X98962Y73039D01*
X105960Y76538D02*
X98962D01*
X105960Y81203D01*
X98962D01*
X3462Y3540D02*
X9460D01*
X7461Y5539D01*
X9460Y7539D01*
X3462D01*
X5461Y10538D02*
Y12537D01*
X6461Y13537D01*
X9460D01*
Y10538D01*
X8460Y9538D01*
X7461Y10538D01*
Y13537D01*
X9460Y15536D02*
Y17535D01*
Y16536D01*
X3462D01*
Y15536D01*
X9460Y20535D02*
X3462D01*
X7461D02*
X5461Y23533D01*
X7461Y20535D02*
X9460Y23533D01*
Y26532D02*
X3462D01*
X5461Y28532D01*
X3462Y30531D01*
X9460D01*
Y33530D02*
Y35530D01*
X8460Y36529D01*
X6461D01*
X5461Y35530D01*
Y33530D01*
X6461Y32531D01*
X8460D01*
X9460Y33530D01*
X3462Y42527D02*
X9460D01*
Y39528D01*
X8460Y38529D01*
X6461D01*
X5461Y39528D01*
Y42527D01*
X20960Y3540D02*
X14962D01*
Y6539D01*
X15962Y7539D01*
X17961D01*
X18961Y6539D01*
Y3540D01*
Y5539D02*
X20960Y7539D01*
Y12537D02*
Y10538D01*
X19960Y9538D01*
X17961D01*
X16961Y10538D01*
Y12537D01*
X17961Y13537D01*
X18961D01*
Y9538D01*
X16961Y15536D02*
X20960Y17536D01*
X16961Y19535D01*
X14962Y27532D02*
X20960D01*
Y30531D01*
X19960Y31531D01*
X18961D01*
X17961Y30531D01*
Y27532D01*
Y30531D01*
X16961Y31531D01*
X15962D01*
X14962Y30531D01*
Y27532D01*
X15962Y33530D02*
X14962Y34530D01*
Y36529D01*
X15962Y37529D01*
X19960D01*
X20960Y36529D01*
Y34530D01*
X19960Y33530D01*
X15962D01*
X84999Y14002D02*
X79001D01*
Y17001D01*
X80001Y18000D01*
X82000D01*
X83000Y17001D01*
Y14002D01*
Y16001D02*
X84999Y18000D01*
X80001Y23998D02*
X79001Y22999D01*
Y20999D01*
X80001Y20000D01*
X83999D01*
X84999Y20999D01*
Y22999D01*
X83999Y23998D01*
X86999Y141002D02*
X81001D01*
Y144001D01*
X82001Y145000D01*
X84000D01*
X85000Y144001D01*
Y141002D01*
Y143001D02*
X86999Y145000D01*
Y147000D02*
X83000D01*
X81001Y148999D01*
X83000Y150998D01*
X86999D01*
X84000D01*
Y147000D01*
X158002Y55001D02*
Y60999D01*
X161001D01*
X162000Y59999D01*
Y58000D01*
X161001Y57000D01*
X158002D01*
X160001D02*
X162000Y55001D01*
X164000Y60999D02*
Y55001D01*
X166999D01*
X167998Y56001D01*
Y57000D01*
X166999Y58000D01*
X164000D01*
X166999D01*
X167998Y59000D01*
Y59999D01*
X166999Y60999D01*
X164000D01*
D12*
X131492Y94647D02*
D03*
Y107347D02*
D03*
Y120047D02*
D03*
Y132747D02*
D03*
Y69247D02*
D03*
Y81947D02*
D03*
M02*
