G04*
G04 #@! TF.GenerationSoftware,Altium Limited,Altium Designer,22.2.1 (43)*
G04*
G04 Layer_Color=16711935*
%FSLAX44Y44*%
%MOMM*%
G71*
G04*
G04 #@! TF.SameCoordinates,672CECB2-DF13-49BD-9E49-C01950E57CCB*
G04*
G04*
G04 #@! TF.FilePolarity,Negative*
G04*
G01*
G75*
%ADD46C,0.7100*%
D46*
X73000Y89000D02*
D03*
X10500Y126500D02*
D03*
X72000Y59000D02*
D03*
X54500Y93500D02*
D03*
X162000Y60500D02*
D03*
X142000Y44000D02*
D03*
X55000Y64500D02*
D03*
X25000Y62000D02*
D03*
X10500Y65500D02*
D03*
X114000Y58000D02*
D03*
X55000Y118000D02*
D03*
X13000Y13000D02*
D03*
X183000Y43000D02*
D03*
X108000Y145000D02*
D03*
X140000Y129000D02*
D03*
X141000Y70000D02*
D03*
X115000Y23000D02*
D03*
X24000Y29000D02*
D03*
X115000Y11000D02*
D03*
X185000Y124500D02*
D03*
X111000Y132000D02*
D03*
X97000Y122000D02*
D03*
Y132000D02*
D03*
X97104Y72296D02*
D03*
X90000Y56000D02*
D03*
X162000Y143500D02*
D03*
X18000Y41000D02*
D03*
X30000Y21500D02*
D03*
X38550Y25000D02*
D03*
X77250Y40750D02*
D03*
X66018Y25282D02*
D03*
X68000Y11000D02*
D03*
X83000Y144000D02*
D03*
X62500Y80000D02*
D03*
X34000Y115000D02*
D03*
X142000Y15000D02*
D03*
X25000Y93000D02*
D03*
X51000Y39000D02*
D03*
X40000Y79000D02*
D03*
M02*
