G04*
G04 #@! TF.GenerationSoftware,Altium Limited,Altium Designer,22.2.1 (43)*
G04*
G04 Layer_Color=255*
%FSLAX44Y44*%
%MOMM*%
G71*
G04*
G04 #@! TF.SameCoordinates,05D4EE7A-A614-4991-951A-A7459AF70658*
G04*
G04*
G04 #@! TF.FilePolarity,Positive*
G04*
G01*
G75*
%ADD13R,0.8500X0.9000*%
%ADD14R,1.7000X1.7000*%
%ADD15R,0.3000X0.7000*%
%ADD16R,0.7000X0.3000*%
%ADD20R,1.2700X0.7600*%
%ADD21R,0.9000X0.8500*%
%ADD22R,0.5000X0.4500*%
%ADD23R,1.6000X1.3000*%
%ADD24R,1.6000X2.0000*%
%ADD25R,1.3000X1.6000*%
%ADD26R,2.0000X1.6000*%
%ADD27R,0.4500X0.5000*%
%ADD47R,1.8000X1.8000*%
%ADD48R,0.2400X0.8500*%
%ADD49R,0.8500X0.2400*%
%ADD50R,2.0000X1.5000*%
D13*
X186500Y117000D02*
D03*
X173500D02*
D03*
X11500Y120000D02*
D03*
X24500D02*
D03*
X186500Y131500D02*
D03*
X173500D02*
D03*
X186500Y104000D02*
D03*
X173500D02*
D03*
X45500Y12000D02*
D03*
X32500D02*
D03*
D14*
X40000Y79000D02*
D03*
D15*
X32500Y65000D02*
D03*
X37500D02*
D03*
X42500D02*
D03*
X47500D02*
D03*
Y93000D02*
D03*
X42500D02*
D03*
X37500D02*
D03*
X32500D02*
D03*
D16*
X26000Y86500D02*
D03*
Y81500D02*
D03*
Y76500D02*
D03*
Y71500D02*
D03*
X54000D02*
D03*
Y76500D02*
D03*
Y81500D02*
D03*
Y86500D02*
D03*
D20*
X84900Y132750D02*
D03*
X161100D02*
D03*
X84900Y120050D02*
D03*
X161100D02*
D03*
X84900Y107350D02*
D03*
X161100D02*
D03*
X84900Y94650D02*
D03*
X161100D02*
D03*
X84900Y81950D02*
D03*
X161100D02*
D03*
X84900Y69250D02*
D03*
X161100D02*
D03*
D21*
X72000Y65500D02*
D03*
Y78500D02*
D03*
D22*
X63250Y87500D02*
D03*
X70750D02*
D03*
X50250Y101500D02*
D03*
X57750D02*
D03*
X78250Y48000D02*
D03*
X85750D02*
D03*
Y33000D02*
D03*
X78250D02*
D03*
X25250Y101500D02*
D03*
X32750D02*
D03*
D23*
X68500Y118500D02*
D03*
Y143500D02*
D03*
D24*
X39500Y131000D02*
D03*
D25*
X102500Y14500D02*
D03*
X127500D02*
D03*
X153500D02*
D03*
X178500D02*
D03*
D26*
X115000Y43500D02*
D03*
X166000D02*
D03*
D27*
X66000Y102750D02*
D03*
Y95250D02*
D03*
D47*
X51000Y39000D02*
D03*
D48*
X58500Y23250D02*
D03*
X53500D02*
D03*
X48500D02*
D03*
X43500D02*
D03*
Y54750D02*
D03*
X48500D02*
D03*
X53500D02*
D03*
X58500D02*
D03*
D49*
X35250Y31500D02*
D03*
Y36500D02*
D03*
Y41500D02*
D03*
Y46500D02*
D03*
X66750D02*
D03*
Y41500D02*
D03*
Y36500D02*
D03*
Y31500D02*
D03*
D50*
X180000Y147500D02*
D03*
X185000Y62000D02*
D03*
Y87000D02*
D03*
X10000Y54000D02*
D03*
Y142000D02*
D03*
Y79000D02*
D03*
Y104000D02*
D03*
M02*
