M48
;Layer_Color=9474304
;FILE_FORMAT=2:5
INCH,LZ
;TYPE=PLATED
T1F00S00C0.01181
%
T01
X000748Y0009843
X0010827
X0017717Y0011614
X002126Y0007283
X0022835Y0004528
X0020003Y000315
X0031693Y0006299
Y0009646
X0029134Y0011614
X0033071Y0015748
X0023622Y0016732
X0017205Y002185
Y0025
X001122Y0029921
X0013386Y0037598
X0017126Y0036614
X0021457Y0037008
X0016732Y0041339
X001063Y0040157
X0007283Y0039961
X0015354Y0048031
X0024016Y0043504
X0031299Y0044685
X0027756Y0053051
X002815Y0032087
X0034252Y003189
X0029331Y0023819
X0009646Y0020079
X0036614Y0024213
X0042717
X0044685Y0031693
X0050394Y0029921
X0048209Y0019746
X0049409Y0009843
X0040945Y0013386
X0039173Y0038386
X0038797Y0049132
X0042126Y0048622
X004685Y005315
X0051575Y005
X0054921Y0039961
M30
