M48
;Layer_Color=9474304
;FILE_FORMAT=2:5
INCH,LZ
;TYPE=PLATED
T1F00S00C0.01181
%
T01
X0004331Y0004331
X0010433Y0007087
X0016929Y0014173
Y001811
X0022638Y0021063
X0021457Y0024213
X0016339Y0029724
X0007874Y0030869
X0007542Y0036811
X0010827Y0034646
X0014567Y0039764
X001771Y0039967
X0017126Y004311
X0016535Y0048425
X0015551Y0057874
X0010039Y005315
X0007874Y0050787
X0005081Y0057661
X0008858Y0062776
X0004528Y0066339
X001657Y0067339
X0021063Y0062795
X0026181Y0061221
X0025787Y0054724
X0023228Y0052441
X0023031Y0043307
X0022736Y0034646
X0031496Y0035039
X003189Y0026772
X0035433Y0022441
X0026378Y0012598
X0029134Y0009646
X0029528Y0004921
X0008071Y0019094
X001063Y0024016
X0005315Y0025197
X0031496Y0059646
X0031299Y0063779
X0041339Y0063976
X0047835Y0051772
X0055709Y0057677
X0061811Y0060433
X0063976Y0056299
X0061614Y0043307
X0061024Y0034252
X0054134Y0032087
X0051181Y0025197
X0044685Y0022638
X0045079Y0034646
X0040748Y0044291
X0038583Y0012795
X0054528Y0011417
X0063779Y001122
X0066929Y0004331
X0049213
X0067126Y0022244
M30
