M48
;Layer_Color=9474304
;FILE_FORMAT=2:5
INCH,LZ
;TYPE=PLATED
T1F00S00C0.01181
%
T01
X0004331Y0004331
X0013386Y0005118
X0029134Y0004331
X002874Y0017717
X0019685Y0015945
X0019291Y0020079
X0012159Y0021983
X0008268Y0019291
X0004953Y0032512
X0009646Y0035433
X0015157Y0040945
X0014124Y0049198
X001752Y0049803
X0020079Y0046457
X0023031Y0048622
X0022047Y005374
X0025777Y0058218
X0025197Y0065748
X002126Y0064646
X0028769Y0063583
X0034252Y0062697
X0035039Y0055138
X0031496Y004813
X0031594Y0041535
X0025984Y0033071
X0020669Y0035433
X0016929Y0029528
X000748Y004626
X0008563Y0049803
X0006496Y0055118
X0007874Y0064764
X0008268Y0067913
X0011811
X0015289Y0068651
X0016339Y0059252
X0038189Y005748
X0042323Y0051968
X0041339Y0044291
X0045276Y0044488
X0048327Y0054724
X005315Y005748
X0055118Y006063
X0050787Y0060236
X0061221Y0060039
X0063386Y0056299
X0061417Y0047638
X0059842Y0037402
X0060236Y0031496
X0064173Y0022047
X0048819Y0020866
X0044882Y0027165
X003937Y001752
X0049213Y0004331
X0066535Y0066535
M30
