G04*
G04 #@! TF.GenerationSoftware,Altium Limited,Altium Designer,22.2.1 (43)*
G04*
G04 Layer_Color=2752767*
%FSLAX44Y44*%
%MOMM*%
G71*
G04*
G04 #@! TF.SameCoordinates,55AAE711-CEB4-47FC-94B9-92884521197F*
G04*
G04*
G04 #@! TF.FilePolarity,Positive*
G04*
G01*
G75*
%ADD11C,0.2000*%
%ADD47C,0.3810*%
%ADD49C,0.0508*%
%ADD50C,0.3200*%
D11*
X-44344Y269500D02*
X-35455D01*
Y278389D01*
X-44344D02*
X-35455D01*
X-44344Y269500D02*
Y278389D01*
X800850Y269500D02*
X798184Y272166D01*
Y274832D01*
X800850Y277497D01*
X804848Y269500D02*
Y277497D01*
X807514Y274832D01*
X810180Y277497D01*
Y269500D01*
X812846D02*
X815511D01*
X814178D01*
Y274832D01*
X812846D01*
X819510D02*
X824842Y269500D01*
X822176Y272166D01*
X824842Y274832D01*
X819510Y269500D01*
X831506D02*
X828840D01*
X827507Y270833D01*
Y273499D01*
X828840Y274832D01*
X831506D01*
X832839Y273499D01*
Y272166D01*
X827507D01*
X840837Y277497D02*
Y269500D01*
X836838D01*
X835505Y270833D01*
Y273499D01*
X836838Y274832D01*
X840837D01*
X843502Y269500D02*
X846168Y272166D01*
Y274832D01*
X843502Y277497D01*
X696610Y269500D02*
Y277497D01*
X700609D01*
X701942Y276164D01*
Y273499D01*
X700609Y272166D01*
X696610D01*
X699276D02*
X701942Y269500D01*
X705941D02*
X708607D01*
X709939Y270833D01*
Y273499D01*
X708607Y274832D01*
X705941D01*
X704608Y273499D01*
Y270833D01*
X705941Y269500D01*
X712605Y274832D02*
Y270833D01*
X713938Y269500D01*
X717937D01*
Y274832D01*
X720603Y269500D02*
Y274832D01*
X724602D01*
X725934Y273499D01*
Y269500D01*
X733932Y277497D02*
Y269500D01*
X729933D01*
X728600Y270833D01*
Y273499D01*
X729933Y274832D01*
X733932D01*
X740596Y269500D02*
X737931D01*
X736598Y270833D01*
Y273499D01*
X737931Y274832D01*
X740596D01*
X741929Y273499D01*
Y272166D01*
X736598D01*
X749927Y277497D02*
Y269500D01*
X745928D01*
X744595Y270833D01*
Y273499D01*
X745928Y274832D01*
X749927D01*
X615831Y277497D02*
Y272166D01*
X618497Y269500D01*
X621162Y272166D01*
Y277497D01*
X623828Y269500D02*
X626494D01*
X625161D01*
Y274832D01*
X623828D01*
X631825D02*
X634491D01*
X635824Y273499D01*
Y269500D01*
X631825D01*
X630493Y270833D01*
X631825Y272166D01*
X635824D01*
X414557Y277497D02*
X419889D01*
X417223D01*
Y269500D01*
X423887D02*
X426553D01*
X427886Y270833D01*
Y273499D01*
X426553Y274832D01*
X423887D01*
X422555Y273499D01*
Y270833D01*
X423887Y269500D01*
X430552Y266834D02*
Y274832D01*
X434551D01*
X435884Y273499D01*
Y270833D01*
X434551Y269500D01*
X430552D01*
X446547Y277497D02*
Y269500D01*
X451878D01*
X455877Y274832D02*
X458543D01*
X459876Y273499D01*
Y269500D01*
X455877D01*
X454544Y270833D01*
X455877Y272166D01*
X459876D01*
X462542Y274832D02*
Y270833D01*
X463875Y269500D01*
X467873D01*
Y268167D01*
X466540Y266834D01*
X465207D01*
X467873Y269500D02*
Y274832D01*
X474538Y269500D02*
X471872D01*
X470539Y270833D01*
Y273499D01*
X471872Y274832D01*
X474538D01*
X475871Y273499D01*
Y272166D01*
X470539D01*
X478536Y274832D02*
Y269500D01*
Y272166D01*
X479869Y273499D01*
X481202Y274832D01*
X482535D01*
X494531Y273499D02*
X499863D01*
X510526Y277497D02*
Y269500D01*
X514525D01*
X515858Y270833D01*
Y272166D01*
X514525Y273499D01*
X510526D01*
X514525D01*
X515858Y274832D01*
Y276164D01*
X514525Y277497D01*
X510526D01*
X519856Y269500D02*
X522522D01*
X523855Y270833D01*
Y273499D01*
X522522Y274832D01*
X519856D01*
X518524Y273499D01*
Y270833D01*
X519856Y269500D01*
X527854Y276164D02*
Y274832D01*
X526521D01*
X529187D01*
X527854D01*
Y270833D01*
X529187Y269500D01*
X534518Y276164D02*
Y274832D01*
X533186D01*
X535851D01*
X534518D01*
Y270833D01*
X535851Y269500D01*
X541183D02*
X543849D01*
X545182Y270833D01*
Y273499D01*
X543849Y274832D01*
X541183D01*
X539850Y273499D01*
Y270833D01*
X541183Y269500D01*
X547847D02*
Y274832D01*
X549180D01*
X550513Y273499D01*
Y269500D01*
Y273499D01*
X551846Y274832D01*
X553179Y273499D01*
Y269500D01*
X563842Y277497D02*
Y269500D01*
X569174D01*
X573173Y274832D02*
X575838D01*
X577171Y273499D01*
Y269500D01*
X573173D01*
X571840Y270833D01*
X573173Y272166D01*
X577171D01*
X579837Y274832D02*
Y270833D01*
X581170Y269500D01*
X585169D01*
Y268167D01*
X583836Y266834D01*
X582503D01*
X585169Y269500D02*
Y274832D01*
X591833Y269500D02*
X589168D01*
X587835Y270833D01*
Y273499D01*
X589168Y274832D01*
X591833D01*
X593166Y273499D01*
Y272166D01*
X587835D01*
X595832Y274832D02*
Y269500D01*
Y272166D01*
X597165Y273499D01*
X598498Y274832D01*
X599831D01*
X314583Y269500D02*
Y277497D01*
X318582D01*
X319915Y276164D01*
Y273499D01*
X318582Y272166D01*
X314583D01*
X317249D02*
X319915Y269500D01*
X323914D02*
X326580D01*
X327912Y270833D01*
Y273499D01*
X326580Y274832D01*
X323914D01*
X322581Y273499D01*
Y270833D01*
X323914Y269500D01*
X330578Y274832D02*
Y270833D01*
X331911Y269500D01*
X335910D01*
Y274832D01*
X338576Y269500D02*
Y274832D01*
X342574D01*
X343907Y273499D01*
Y269500D01*
X351905Y277497D02*
Y269500D01*
X347906D01*
X346573Y270833D01*
Y273499D01*
X347906Y274832D01*
X351905D01*
X245000Y269500D02*
Y277497D01*
X248999D01*
X250332Y276164D01*
Y273499D01*
X248999Y272166D01*
X245000D01*
X252997Y277497D02*
X258329D01*
X255663D01*
Y269500D01*
X260995Y277497D02*
Y269500D01*
Y273499D01*
X266326D01*
Y277497D01*
Y269500D01*
X101041D02*
X103707D01*
X102374D01*
Y277497D01*
X101041Y276164D01*
X107706Y269500D02*
X110372D01*
X109039D01*
Y277497D01*
X107706Y276164D01*
X114370Y269500D02*
Y270833D01*
X115703D01*
Y269500D01*
X114370D01*
X121035Y276164D02*
X122368Y277497D01*
X125034D01*
X126366Y276164D01*
Y274832D01*
X125034Y273499D01*
X126366Y272166D01*
Y270833D01*
X125034Y269500D01*
X122368D01*
X121035Y270833D01*
Y272166D01*
X122368Y273499D01*
X121035Y274832D01*
Y276164D01*
X122368Y273499D02*
X125034D01*
X129032Y269500D02*
X131698D01*
X130365D01*
Y277497D01*
X129032Y276164D01*
X135697Y269500D02*
Y274832D01*
X137030D01*
X138363Y273499D01*
Y269500D01*
Y273499D01*
X139696Y274832D01*
X141028Y273499D01*
Y269500D01*
X143694D02*
X146360D01*
X145027D01*
Y274832D01*
X143694D01*
X150359Y269500D02*
X153025D01*
X151692D01*
Y277497D01*
X150359D01*
X167687Y269500D02*
X165021Y272166D01*
Y274832D01*
X167687Y277497D01*
X171685Y276164D02*
X173018Y277497D01*
X175684D01*
X177017Y276164D01*
Y270833D01*
X175684Y269500D01*
X173018D01*
X171685Y270833D01*
Y276164D01*
X179683Y269500D02*
Y270833D01*
X181015D01*
Y269500D01*
X179683D01*
X186347Y276164D02*
X187680Y277497D01*
X190346D01*
X191679Y276164D01*
Y274832D01*
X190346Y273499D01*
X189013D01*
X190346D01*
X191679Y272166D01*
Y270833D01*
X190346Y269500D01*
X187680D01*
X186347Y270833D01*
X194345Y276164D02*
X195678Y277497D01*
X198343D01*
X199676Y276164D01*
Y270833D01*
X198343Y269500D01*
X195678D01*
X194345Y270833D01*
Y276164D01*
X202342D02*
X203675Y277497D01*
X206341D01*
X207674Y276164D01*
Y270833D01*
X206341Y269500D01*
X203675D01*
X202342Y270833D01*
Y276164D01*
X210339Y269500D02*
Y274832D01*
X211672D01*
X213005Y273499D01*
Y269500D01*
Y273499D01*
X214338Y274832D01*
X215671Y273499D01*
Y269500D01*
X218337D02*
Y274832D01*
X219670D01*
X221003Y273499D01*
Y269500D01*
Y273499D01*
X222335Y274832D01*
X223668Y273499D01*
Y269500D01*
X226334D02*
X229000Y272166D01*
Y274832D01*
X226334Y277497D01*
X33058Y249500D02*
Y257497D01*
X29059Y253499D01*
X34391D01*
X37057Y249500D02*
X39722D01*
X38390D01*
Y257497D01*
X37057Y256164D01*
X51719Y257497D02*
X57050D01*
X54384D01*
Y249500D01*
X61049D02*
X63715D01*
X65048Y250833D01*
Y253499D01*
X63715Y254832D01*
X61049D01*
X59716Y253499D01*
Y250833D01*
X61049Y249500D01*
X69046Y256164D02*
Y254832D01*
X67713D01*
X70379D01*
X69046D01*
Y250833D01*
X70379Y249500D01*
X75711Y254832D02*
X78377D01*
X79710Y253499D01*
Y249500D01*
X75711D01*
X74378Y250833D01*
X75711Y252166D01*
X79710D01*
X82375Y249500D02*
X85041D01*
X83708D01*
Y257497D01*
X82375D01*
X33058Y269500D02*
Y277497D01*
X29059Y273499D01*
X34391D01*
X37057Y269500D02*
X39722D01*
X38390D01*
Y277497D01*
X37057Y276164D01*
D47*
X-52524Y283500D02*
X886961D01*
X-52524Y263500D02*
X886961D01*
X-52524Y243500D02*
X886961D01*
Y303500D01*
X-52524D02*
X886961D01*
X-52524Y243500D02*
Y303500D01*
X792184Y243500D02*
Y303500D01*
X690611Y243500D02*
Y303500D01*
X609831Y243500D02*
Y303500D01*
X408557Y243500D02*
Y303500D01*
X308584Y243500D02*
Y303500D01*
X239000Y243500D02*
Y303500D01*
X95041Y243500D02*
Y303500D01*
X23059Y243500D02*
Y303500D01*
D49*
X104460Y120960D02*
X109540D01*
Y126040D01*
X104460D02*
X109540D01*
X104460Y120960D02*
Y126040D01*
X96960Y94960D02*
X102040D01*
Y100040D01*
X96960D02*
X102040D01*
X96960Y94960D02*
Y100040D01*
X24960Y22460D02*
X30040D01*
Y27540D01*
X24960D02*
X30040D01*
X24960Y22460D02*
Y27540D01*
X42460Y26960D02*
X47540D01*
Y32040D01*
X42460D02*
X47540D01*
X42460Y26960D02*
Y32040D01*
X16460Y22460D02*
X21540D01*
Y27540D01*
X16460D02*
X21540D01*
X16460Y22460D02*
Y27540D01*
X90460Y58960D02*
X95540D01*
Y64040D01*
X90460D02*
X95540D01*
X90460Y58960D02*
Y64040D01*
X57460Y39960D02*
X62540D01*
Y45040D01*
X57460D02*
X62540D01*
X57460Y39960D02*
Y45040D01*
X81460Y37460D02*
X86540D01*
Y42540D01*
X81460D02*
X86540D01*
X81460Y37460D02*
Y42540D01*
X55460Y8960D02*
X60540D01*
Y14040D01*
X55460D02*
X60540D01*
X55460Y8960D02*
Y14040D01*
X51460Y15960D02*
X56540D01*
Y21040D01*
X51460D02*
X56540D01*
X51460Y15960D02*
Y21040D01*
X48266Y5460D02*
X53346D01*
Y10540D01*
X48266D02*
X53346D01*
X48266Y5460D02*
Y10540D01*
X76960Y110960D02*
X82040D01*
Y116040D01*
X76960D02*
X82040D01*
X76960Y110960D02*
Y116040D01*
X105960Y58960D02*
X111040D01*
Y64040D01*
X105960D02*
X111040D01*
X105960Y58960D02*
Y64040D01*
X122960Y22460D02*
X128040D01*
Y27540D01*
X122960D02*
X128040D01*
X122960Y22460D02*
Y27540D01*
X41160Y60960D02*
X46240D01*
Y66040D01*
X41160D02*
X46240D01*
X41160Y60960D02*
Y66040D01*
X71960Y57960D02*
X77040D01*
Y63040D01*
X71960D02*
X77040D01*
X71960Y57960D02*
Y63040D01*
X116460Y132460D02*
X121540D01*
Y137540D01*
X116460D02*
X121540D01*
X116460Y132460D02*
Y137540D01*
X128460Y124460D02*
X133540D01*
Y129540D01*
X128460D02*
X133540D01*
X128460Y124460D02*
Y129540D01*
X101460Y31460D02*
X106540D01*
Y36540D01*
X101460D02*
X106540D01*
X101460Y31460D02*
Y36540D01*
X136960Y98960D02*
X142040D01*
Y104040D01*
X136960D02*
X142040D01*
X136960Y98960D02*
Y104040D01*
X110960Y77960D02*
X116040D01*
Y83040D01*
X110960D02*
X116040D01*
X110960Y77960D02*
Y83040D01*
X96004Y122254D02*
X101084D01*
Y127334D01*
X96004D02*
X101084D01*
X96004Y122254D02*
Y127334D01*
X21960Y48460D02*
X27040D01*
Y53540D01*
X21960D02*
X27040D01*
X21960Y48460D02*
Y53540D01*
X58460Y107960D02*
X63540D01*
Y113040D01*
X58460D02*
X63540D01*
X58460Y107960D02*
Y113040D01*
X125460Y73460D02*
X130540D01*
Y78540D01*
X125460D02*
X130540D01*
X125460Y73460D02*
Y78540D01*
X84460Y78460D02*
X89540D01*
Y83540D01*
X84460D02*
X89540D01*
X84460Y78460D02*
Y83540D01*
X77960Y13460D02*
X83040D01*
Y18540D01*
X77960D02*
X83040D01*
X77960Y13460D02*
Y18540D01*
X71460Y26960D02*
X76540D01*
Y32040D01*
X71460D02*
X76540D01*
X71460Y26960D02*
Y32040D01*
X77960Y21960D02*
X83040D01*
Y27040D01*
X77960D02*
X83040D01*
X77960Y21960D02*
Y27040D01*
X67960Y132210D02*
X73040D01*
Y137290D01*
X67960D02*
X73040D01*
X67960Y132210D02*
Y137290D01*
X36460Y119460D02*
X41540D01*
Y124540D01*
X36460D02*
X41540D01*
X36460Y119460D02*
Y124540D01*
X41160Y52960D02*
X46240D01*
Y58040D01*
X41160D02*
X46240D01*
X41160Y52960D02*
Y58040D01*
X119910Y47614D02*
X124990D01*
Y52694D01*
X119910D02*
X124990D01*
X119910Y47614D02*
Y52694D01*
X68960Y78960D02*
X74040D01*
Y84040D01*
X68960D02*
X74040D01*
X68960Y78960D02*
Y84040D01*
X40960Y90460D02*
X46040D01*
Y95540D01*
X40960D02*
X46040D01*
X40960Y90460D02*
Y95540D01*
X51960Y91460D02*
X57040D01*
Y96540D01*
X51960D02*
X57040D01*
X51960Y91460D02*
Y96540D01*
X39960Y102460D02*
X45040D01*
Y107540D01*
X39960D02*
X45040D01*
X39960Y102460D02*
Y107540D01*
X31460Y92960D02*
X36540D01*
Y98040D01*
X31460D02*
X36540D01*
X31460Y92960D02*
Y98040D01*
X25960Y73460D02*
X31040D01*
Y78540D01*
X25960D02*
X31040D01*
X25960Y73460D02*
Y78540D01*
X15960Y98960D02*
X21040D01*
Y104040D01*
X15960D02*
X21040D01*
X15960Y98960D02*
Y104040D01*
X24460Y99460D02*
X29540D01*
Y104540D01*
X24460D02*
X29540D01*
X24460Y99460D02*
Y104540D01*
D50*
X798184Y299097D02*
X804582D01*
X801383D01*
Y289500D01*
X812579D02*
X809380D01*
X807781Y291099D01*
Y294298D01*
X809380Y295898D01*
X812579D01*
X814178Y294298D01*
Y292699D01*
X807781D01*
X817377Y289500D02*
Y295898D01*
X818977D01*
X820576Y294298D01*
Y289500D01*
Y294298D01*
X822176Y295898D01*
X823775Y294298D01*
Y289500D01*
X826974Y286301D02*
Y295898D01*
X831773D01*
X833372Y294298D01*
Y291099D01*
X831773Y289500D01*
X826974D01*
X836571D02*
X839770D01*
X838171D01*
Y299097D01*
X836571D01*
X846168Y295898D02*
X849367D01*
X850967Y294298D01*
Y289500D01*
X846168D01*
X844569Y291099D01*
X846168Y292699D01*
X850967D01*
X855765Y297497D02*
Y295898D01*
X854166D01*
X857365D01*
X855765D01*
Y291099D01*
X857365Y289500D01*
X866962D02*
X863763D01*
X862163Y291099D01*
Y294298D01*
X863763Y295898D01*
X866962D01*
X868561Y294298D01*
Y292699D01*
X862163D01*
X696610Y289500D02*
Y299097D01*
X701409D01*
X703008Y297497D01*
Y294298D01*
X701409Y292699D01*
X696610D01*
X707807Y295898D02*
X711006D01*
X712605Y294298D01*
Y289500D01*
X707807D01*
X706207Y291099D01*
X707807Y292699D01*
X712605D01*
X722202Y299097D02*
Y289500D01*
X717404D01*
X715804Y291099D01*
Y294298D01*
X717404Y295898D01*
X722202D01*
X741396Y297497D02*
X739797Y299097D01*
X736598D01*
X734998Y297497D01*
Y295898D01*
X736598Y294298D01*
X739797D01*
X741396Y292699D01*
Y291099D01*
X739797Y289500D01*
X736598D01*
X734998Y291099D01*
X744595Y299097D02*
Y289500D01*
Y294298D01*
X746195Y295898D01*
X749393D01*
X750993Y294298D01*
Y289500D01*
X755791Y295898D02*
X758990D01*
X760590Y294298D01*
Y289500D01*
X755791D01*
X754192Y291099D01*
X755791Y292699D01*
X760590D01*
X763789Y286301D02*
Y295898D01*
X768587D01*
X770187Y294298D01*
Y291099D01*
X768587Y289500D01*
X763789D01*
X778184D02*
X774985D01*
X773386Y291099D01*
Y294298D01*
X774985Y295898D01*
X778184D01*
X779784Y294298D01*
Y292699D01*
X773386D01*
X615831Y299097D02*
Y292699D01*
X619030Y289500D01*
X622229Y292699D01*
Y299097D01*
X625428Y289500D02*
X628627D01*
X627027D01*
Y295898D01*
X625428D01*
X635024D02*
X638223D01*
X639823Y294298D01*
Y289500D01*
X635024D01*
X633425Y291099D01*
X635024Y292699D01*
X639823D01*
X643022Y289500D02*
X649420Y295898D01*
X652619Y289500D02*
Y299097D01*
X657417D01*
X659017Y297497D01*
Y294298D01*
X657417Y292699D01*
X652619D01*
X663815Y295898D02*
X667014D01*
X668614Y294298D01*
Y289500D01*
X663815D01*
X662216Y291099D01*
X663815Y292699D01*
X668614D01*
X678211Y299097D02*
Y289500D01*
X673412D01*
X671813Y291099D01*
Y294298D01*
X673412Y295898D01*
X678211D01*
X414557Y299097D02*
Y289500D01*
X419356D01*
X420955Y291099D01*
Y297497D01*
X419356Y299097D01*
X414557D01*
X424154Y295898D02*
Y289500D01*
Y292699D01*
X425754Y294298D01*
X427353Y295898D01*
X428952D01*
X433751Y289500D02*
X436950D01*
X435350D01*
Y295898D01*
X433751D01*
X441748Y289500D02*
X444947D01*
X443348D01*
Y299097D01*
X441748D01*
X449746Y289500D02*
X452945D01*
X451345D01*
Y299097D01*
X449746D01*
X467340D02*
Y289500D01*
X473738D01*
X478536Y295898D02*
X481735D01*
X483335Y294298D01*
Y289500D01*
X478536D01*
X476937Y291099D01*
X478536Y292699D01*
X483335D01*
X486534Y295898D02*
Y291099D01*
X488133Y289500D01*
X492932D01*
Y287901D01*
X491332Y286301D01*
X489733D01*
X492932Y289500D02*
Y295898D01*
X500929Y289500D02*
X497730D01*
X496131Y291099D01*
Y294298D01*
X497730Y295898D01*
X500929D01*
X502529Y294298D01*
Y292699D01*
X496131D01*
X505728Y295898D02*
Y289500D01*
Y292699D01*
X507327Y294298D01*
X508927Y295898D01*
X510526D01*
X524921Y289500D02*
Y299097D01*
X529720D01*
X531320Y297497D01*
Y294298D01*
X529720Y292699D01*
X524921D01*
X536118Y295898D02*
X539317D01*
X540916Y294298D01*
Y289500D01*
X536118D01*
X534518Y291099D01*
X536118Y292699D01*
X540916D01*
X544115Y289500D02*
X547314D01*
X545715D01*
Y295898D01*
X544115D01*
X552113D02*
Y289500D01*
Y292699D01*
X553712Y294298D01*
X555312Y295898D01*
X556911D01*
X314583Y299097D02*
Y289500D01*
Y294298D01*
X320981D01*
Y299097D01*
Y289500D01*
X325780D02*
X328979D01*
X330578Y291099D01*
Y294298D01*
X328979Y295898D01*
X325780D01*
X324180Y294298D01*
Y291099D01*
X325780Y289500D01*
X333777D02*
X336976D01*
X335377D01*
Y299097D01*
X333777D01*
X346573Y289500D02*
X343374D01*
X341775Y291099D01*
Y294298D01*
X343374Y295898D01*
X346573D01*
X348173Y294298D01*
Y292699D01*
X341775D01*
X360969Y299097D02*
X367366D01*
X364168D01*
Y289500D01*
X370565Y295898D02*
Y291099D01*
X372165Y289500D01*
X376963D01*
Y287901D01*
X375364Y286301D01*
X373764D01*
X376963Y289500D02*
Y295898D01*
X380162Y286301D02*
Y295898D01*
X384961D01*
X386560Y294298D01*
Y291099D01*
X384961Y289500D01*
X380162D01*
X394558D02*
X391359D01*
X389759Y291099D01*
Y294298D01*
X391359Y295898D01*
X394558D01*
X396157Y294298D01*
Y292699D01*
X389759D01*
X245000Y289500D02*
Y299097D01*
X249798D01*
X251398Y297497D01*
Y294298D01*
X249798Y292699D01*
X245000D01*
X254597Y289500D02*
X257796D01*
X256196D01*
Y299097D01*
X254597D01*
X264194Y295898D02*
X267393D01*
X268992Y294298D01*
Y289500D01*
X264194D01*
X262594Y291099D01*
X264194Y292699D01*
X268992D01*
X273791Y297497D02*
Y295898D01*
X272191D01*
X275390D01*
X273791D01*
Y291099D01*
X275390Y289500D01*
X284987D02*
X281788D01*
X280189Y291099D01*
Y294298D01*
X281788Y295898D01*
X284987D01*
X286587Y294298D01*
Y292699D01*
X280189D01*
X296183Y299097D02*
Y289500D01*
X291385D01*
X289786Y291099D01*
Y294298D01*
X291385Y295898D01*
X296183D01*
X101041Y299097D02*
Y289500D01*
Y294298D01*
X107439D01*
Y299097D01*
Y289500D01*
X112238D02*
X115437D01*
X117036Y291099D01*
Y294298D01*
X115437Y295898D01*
X112238D01*
X110638Y294298D01*
Y291099D01*
X112238Y289500D01*
X120235D02*
X123434D01*
X121834D01*
Y299097D01*
X120235D01*
X133031Y289500D02*
X129832D01*
X128232Y291099D01*
Y294298D01*
X129832Y295898D01*
X133031D01*
X134630Y294298D01*
Y292699D01*
X128232D01*
X153824Y297497D02*
X152225Y299097D01*
X149026D01*
X147426Y297497D01*
Y295898D01*
X149026Y294298D01*
X152225D01*
X153824Y292699D01*
Y291099D01*
X152225Y289500D01*
X149026D01*
X147426Y291099D01*
X157023Y289500D02*
X160222D01*
X158623D01*
Y295898D01*
X157023D01*
X165021D02*
X171418D01*
X165021Y289500D01*
X171418D01*
X179416D02*
X176217D01*
X174618Y291099D01*
Y294298D01*
X176217Y295898D01*
X179416D01*
X181015Y294298D01*
Y292699D01*
X174618D01*
X35457Y297497D02*
X33858Y299097D01*
X30659D01*
X29059Y297497D01*
Y291099D01*
X30659Y289500D01*
X33858D01*
X35457Y291099D01*
X40256Y289500D02*
X43455D01*
X45054Y291099D01*
Y294298D01*
X43455Y295898D01*
X40256D01*
X38656Y294298D01*
Y291099D01*
X40256Y289500D01*
X48253Y295898D02*
Y291099D01*
X49853Y289500D01*
X54651D01*
Y295898D01*
X57850Y289500D02*
Y295898D01*
X62649D01*
X64248Y294298D01*
Y289500D01*
X69046Y297497D02*
Y295898D01*
X67447D01*
X70646D01*
X69046D01*
Y291099D01*
X70646Y289500D01*
X-34126Y297497D02*
X-35726Y299097D01*
X-38925D01*
X-40524Y297497D01*
Y295898D01*
X-38925Y294298D01*
X-35726D01*
X-34126Y292699D01*
Y291099D01*
X-35726Y289500D01*
X-38925D01*
X-40524Y291099D01*
X-30927Y295898D02*
Y291099D01*
X-29328Y289500D01*
X-24529D01*
Y287901D01*
X-26129Y286301D01*
X-27728D01*
X-24529Y289500D02*
Y295898D01*
X-21330Y289500D02*
Y295898D01*
X-19731D01*
X-18131Y294298D01*
Y289500D01*
Y294298D01*
X-16532Y295898D01*
X-14932Y294298D01*
Y289500D01*
X-11733Y299097D02*
Y289500D01*
X-6935D01*
X-5336Y291099D01*
Y292699D01*
Y294298D01*
X-6935Y295898D01*
X-11733D01*
X-537Y289500D02*
X2662D01*
X4261Y291099D01*
Y294298D01*
X2662Y295898D01*
X-537D01*
X-2137Y294298D01*
Y291099D01*
X-537Y289500D01*
X7460D02*
X10659D01*
X9060D01*
Y299097D01*
X7460D01*
M02*
