G04*
G04 #@! TF.GenerationSoftware,Altium Limited,Altium Designer,22.2.1 (43)*
G04*
G04 Layer_Physical_Order=1*
G04 Layer_Color=3707366*
%FSLAX44Y44*%
%MOMM*%
G71*
G04*
G04 #@! TF.SameCoordinates,55AAE711-CEB4-47FC-94B9-92884521197F*
G04*
G04*
G04 #@! TF.FilePolarity,Positive*
G04*
G01*
G75*
%ADD11C,0.2000*%
%ADD12R,0.3000X1.4000*%
%ADD13R,0.4500X1.6000*%
%ADD14R,0.7500X0.3000*%
%ADD15R,1.8000X1.8000*%
%ADD16R,0.8000X0.2000*%
%ADD17R,0.2000X0.8000*%
%ADD18R,0.4500X0.5000*%
%ADD19R,0.5400X0.5800*%
%ADD20R,0.8500X0.9000*%
%ADD24R,0.5000X0.4500*%
%ADD41R,2.8000X1.5000*%
%ADD42R,1.5000X2.0000*%
%ADD43R,0.2400X0.8500*%
%ADD44R,0.8500X0.2400*%
%ADD45C,0.2500*%
%ADD46C,0.6000*%
G36*
X147000Y124100D02*
X136895D01*
X136189Y125156D01*
X136500Y125906D01*
Y128094D01*
X135663Y130115D01*
X134115Y131663D01*
X132094Y132500D01*
X129906D01*
X127885Y131663D01*
X127045Y130823D01*
X123926D01*
X122463Y130532D01*
X121223Y129704D01*
X113673Y122154D01*
X113612Y122167D01*
X112500Y122777D01*
Y124594D01*
X111663Y126615D01*
X110115Y128163D01*
X109953Y128230D01*
X110205Y129500D01*
X113500D01*
Y147000D01*
X147000D01*
Y124100D01*
D02*
G37*
G36*
X83677Y115050D02*
X83218Y114363D01*
X82927Y112900D01*
Y108700D01*
X77000D01*
Y107000D01*
X73419D01*
X73050Y107073D01*
X71323D01*
Y113035D01*
X71032Y114499D01*
X70204Y115739D01*
X68073Y117869D01*
Y119895D01*
X69300Y120000D01*
Y120000D01*
X79700D01*
Y129500D01*
X83677D01*
Y115050D01*
D02*
G37*
G36*
X37906Y116500D02*
X40000D01*
Y113500D01*
X45427D01*
Y112250D01*
X45718Y110787D01*
X46546Y109546D01*
X55296Y100796D01*
X56537Y99968D01*
X58000Y99677D01*
X60416D01*
X67796Y92296D01*
X69037Y91468D01*
X70500Y91177D01*
X77000D01*
Y86300D01*
X76380Y85287D01*
X75796Y84704D01*
X74968Y83463D01*
X74677Y82000D01*
Y77500D01*
X71750D01*
Y70974D01*
X70666Y70576D01*
X70480Y70567D01*
X68069Y72978D01*
Y78500D01*
X68000Y78845D01*
Y88500D01*
X50000D01*
Y72780D01*
X49743Y72569D01*
X48069D01*
Y78500D01*
X48000Y78845D01*
Y88500D01*
X48000D01*
X47642Y89364D01*
X48163Y89885D01*
X49000Y91906D01*
Y94094D01*
X48163Y96116D01*
X46616Y97663D01*
X44594Y98500D01*
X42406D01*
X40425Y97679D01*
X40076Y97568D01*
X39009Y97780D01*
X38663Y98616D01*
X37823Y99455D01*
Y111724D01*
X37532Y113187D01*
X36704Y114427D01*
X36573Y114557D01*
Y115909D01*
X37629Y116615D01*
X37906Y116500D01*
D02*
G37*
G36*
X23228Y77644D02*
X23000Y77094D01*
Y74906D01*
X23837Y72884D01*
X25385Y71337D01*
X27406Y70500D01*
X29594D01*
X29867Y70613D01*
X30800Y69756D01*
Y59000D01*
X37822D01*
X38671Y57730D01*
X38200Y56594D01*
Y54406D01*
X38500Y53682D01*
Y47000D01*
X37700Y46069D01*
X37355Y46000D01*
X30800D01*
X30500Y47146D01*
Y47900D01*
X5000D01*
Y78700D01*
X22522D01*
X23228Y77644D01*
D02*
G37*
G36*
X108500Y101300D02*
X117378D01*
X118250Y101127D01*
X119470D01*
X120883Y99714D01*
X121500Y98700D01*
Y93700D01*
X108500D01*
Y86300D01*
X109862D01*
X110160Y85652D01*
X110252Y85030D01*
X108837Y83616D01*
X108000Y81594D01*
Y79406D01*
X108583Y77998D01*
X108250Y77500D01*
X108250D01*
Y67000D01*
X107406D01*
X105385Y66163D01*
X103837Y64616D01*
X103000Y62594D01*
Y60406D01*
X102395Y59500D01*
X100250D01*
Y46167D01*
X100091Y45425D01*
X99187Y45000D01*
X92547D01*
X89250Y48297D01*
Y60250D01*
X88323D01*
Y60500D01*
X88032Y61963D01*
X87204Y63204D01*
X85323Y65084D01*
Y67500D01*
X85250Y67869D01*
Y77500D01*
X82324D01*
Y80416D01*
X83704Y81796D01*
X84532Y83037D01*
X84823Y84500D01*
Y86300D01*
X90500D01*
Y96300D01*
Y104681D01*
X90573Y105050D01*
Y106500D01*
X108500D01*
Y101300D01*
D02*
G37*
G36*
X68500Y39000D02*
X68500Y39000D01*
Y38000D01*
X68500D01*
X68500Y37730D01*
Y34000D01*
X51500D01*
Y46000D01*
X51500D01*
Y47000D01*
X51500D01*
Y51000D01*
X68500D01*
Y39000D01*
D02*
G37*
G36*
X106177Y45000D02*
X106468Y43537D01*
X107296Y42296D01*
X107927Y41666D01*
Y41250D01*
X108000Y40881D01*
Y32000D01*
Y22500D01*
X91073D01*
Y22654D01*
X90782Y24117D01*
X90573Y24430D01*
Y26927D01*
X93500D01*
X93869Y27000D01*
X100000D01*
Y32000D01*
Y44334D01*
X100159Y45075D01*
X101063Y45500D01*
X106177D01*
Y45000D01*
D02*
G37*
G36*
X68477Y20477D02*
X69634Y19703D01*
X71000Y19431D01*
X75985D01*
X77351Y19703D01*
X77488Y19795D01*
X79406Y19000D01*
X81594D01*
X82371Y19322D01*
X83427Y18616D01*
Y16250D01*
X83500Y15881D01*
Y5000D01*
X59998D01*
X59746Y6270D01*
X61115Y6837D01*
X62663Y8385D01*
X63500Y10406D01*
Y12594D01*
X62897Y14050D01*
X63297Y14649D01*
X63569Y16015D01*
Y21000D01*
X67953D01*
X68477Y20477D01*
D02*
G37*
D11*
X60000Y42500D02*
X64000Y38500D01*
X75000D01*
X27000Y102000D02*
Y107600D01*
X14000Y114100D02*
X20500D01*
X27000Y107600D01*
X18500Y93200D02*
Y101500D01*
X31832Y73750D02*
X34750D01*
X28500Y76000D02*
X29582D01*
X31832Y73750D01*
X14000Y88700D02*
X18500Y93200D01*
X117017Y49664D02*
X121960D01*
X116946Y49735D02*
X117017Y49664D01*
X121960D02*
X122450Y50154D01*
X116000Y48788D02*
X116946Y49735D01*
X43000Y50500D02*
Y54800D01*
Y50500D02*
X45000D01*
X43000Y54800D02*
X43700Y55500D01*
X74000Y29500D02*
Y34500D01*
X79735Y23735D02*
X80500Y24500D01*
X76720Y23735D02*
X79735D01*
X75985Y23000D02*
X76720Y23735D01*
X64000Y79000D02*
X64500Y78500D01*
X68000Y57500D02*
Y68000D01*
X64500Y71500D02*
X68000Y68000D01*
X64500Y71500D02*
Y78500D01*
X134500Y63300D02*
X138000D01*
X128000Y69800D02*
Y76000D01*
Y69800D02*
X134500Y63300D01*
X59000Y113519D02*
X61000Y111519D01*
X59000Y113519D02*
Y123000D01*
X61000Y110500D02*
Y111519D01*
X27000Y25157D02*
X31000Y29157D01*
X116000Y48500D02*
Y48788D01*
X74500Y50500D02*
X75000D01*
X74500D02*
Y60500D01*
X43700Y63572D02*
X44272Y63000D01*
X49500D01*
X132000Y37900D02*
X138000D01*
X125500Y25000D02*
Y31400D01*
X132000Y37900D01*
X71000Y23000D02*
X75985D01*
X68000Y26000D02*
X71000Y23000D01*
X74000Y34500D02*
X75000D01*
Y46500D02*
X83250D01*
X84500Y47750D01*
Y47500D02*
X85750Y46250D01*
X86250D01*
X84500Y47500D02*
Y47750D01*
X86250Y46250D02*
X91500Y41000D01*
X93750D01*
Y36000D02*
Y41000D01*
X114250Y31000D02*
Y36000D01*
X114750Y36500D01*
X119243D02*
X121000Y38257D01*
Y43743D01*
X117493Y47250D02*
X121000Y43743D01*
X116000Y48500D02*
X117250Y47250D01*
X114750Y36500D02*
X119243D01*
X117250Y47250D02*
X117493D01*
X54000Y18500D02*
Y19582D01*
X56000Y21582D01*
Y27000D01*
X60000Y16015D02*
Y27500D01*
X58765Y14780D02*
X60000Y16015D01*
X58765Y12265D02*
Y14780D01*
X58000Y11500D02*
X58765Y12265D01*
X49000Y24500D02*
X52000D01*
X38422Y23500D02*
X48000D01*
X52000Y24500D02*
Y27500D01*
X48000Y23500D02*
X49000Y24500D01*
X75000Y42500D02*
X80418D01*
X82918Y40000D02*
X84000D01*
X80418Y42500D02*
X82918Y40000D01*
X36000Y25000D02*
X37250Y23750D01*
X38172D01*
X38422Y23500D01*
X49500Y63000D02*
X52000Y60500D01*
X46257Y69000D02*
X49743D01*
X56000Y62743D01*
X44500Y70757D02*
X46257Y69000D01*
X34750Y73750D02*
X36000Y72500D01*
Y72250D02*
Y72500D01*
Y64400D02*
Y72250D01*
X44500Y70757D02*
Y78500D01*
X54500Y70000D02*
Y78500D01*
Y70000D02*
X60000Y64500D01*
X59500Y70657D02*
X64000Y66157D01*
X59500Y70657D02*
Y78500D01*
X52000Y57500D02*
Y60500D01*
X56000Y46500D02*
X60000Y42500D01*
X45000Y46500D02*
X56000D01*
X36000Y48400D02*
Y56600D01*
Y48200D02*
X37700Y46500D01*
X36000Y48200D02*
Y48400D01*
X38872Y46500D02*
X45000D01*
X38872Y46500D02*
X38872Y46500D01*
X37700Y46500D02*
X38872D01*
X45000Y29500D02*
Y34500D01*
X27000Y24500D02*
X27500Y25000D01*
X27000Y19000D02*
Y24500D01*
X36000Y25000D02*
Y25250D01*
X20500Y12500D02*
X27000Y19000D01*
X14000Y12500D02*
X20500D01*
X60000Y57500D02*
Y64500D01*
X56000Y57500D02*
Y62743D01*
X44000Y79000D02*
X44500Y78500D01*
X64000Y57500D02*
Y66157D01*
X59000Y79000D02*
X59500Y78500D01*
X54000Y79000D02*
X54500Y78500D01*
X33007Y31250D02*
X34750D01*
X36000Y32500D02*
Y32750D01*
X31000Y29157D02*
Y29243D01*
X33007Y31250D01*
X34750D02*
X36000Y32500D01*
Y40800D02*
X37700Y42500D01*
X45000D01*
D12*
X64000Y123000D02*
D03*
X59000D02*
D03*
X54000D02*
D03*
X49000D02*
D03*
X44000D02*
D03*
Y79000D02*
D03*
X49000D02*
D03*
X54000D02*
D03*
X59000D02*
D03*
X64000D02*
D03*
D13*
X104000Y33500D02*
D03*
D14*
X114250Y41000D02*
D03*
Y36000D02*
D03*
Y31000D02*
D03*
Y26000D02*
D03*
X93750D02*
D03*
Y31000D02*
D03*
Y36000D02*
D03*
Y41000D02*
D03*
D15*
X60000Y42500D02*
D03*
X99500Y97500D02*
D03*
D16*
X45000Y34500D02*
D03*
Y38500D02*
D03*
Y42500D02*
D03*
Y46500D02*
D03*
Y50500D02*
D03*
X75000D02*
D03*
Y46500D02*
D03*
Y42500D02*
D03*
Y38500D02*
D03*
Y34500D02*
D03*
D17*
X52000Y57500D02*
D03*
X56000D02*
D03*
X60000D02*
D03*
X64000D02*
D03*
X68000D02*
D03*
Y27500D02*
D03*
X64000D02*
D03*
X60000D02*
D03*
X56000D02*
D03*
X52000D02*
D03*
D18*
X36000Y72250D02*
D03*
Y79750D02*
D03*
Y25250D02*
D03*
Y32750D02*
D03*
X84500Y55250D02*
D03*
Y47750D02*
D03*
X116000Y56250D02*
D03*
Y48750D02*
D03*
D19*
X36000Y48400D02*
D03*
Y40600D02*
D03*
Y64400D02*
D03*
Y56600D02*
D03*
X74500Y125400D02*
D03*
Y117600D02*
D03*
Y101600D02*
D03*
Y109400D02*
D03*
D20*
X102000Y70500D02*
D03*
X115000D02*
D03*
X94000Y52500D02*
D03*
X107000D02*
D03*
X91500Y70500D02*
D03*
X78500D02*
D03*
D24*
X56750Y136000D02*
D03*
X64250D02*
D03*
D41*
X14000Y12500D02*
D03*
Y37900D02*
D03*
Y63300D02*
D03*
Y88700D02*
D03*
Y114100D02*
D03*
Y139500D02*
D03*
X138000D02*
D03*
Y114100D02*
D03*
Y88700D02*
D03*
Y63300D02*
D03*
Y37900D02*
D03*
Y12500D02*
D03*
D42*
X70500Y10000D02*
D03*
X40500D02*
D03*
X112500D02*
D03*
X93500D02*
D03*
X44000Y142000D02*
D03*
X83500D02*
D03*
X103500D02*
D03*
D43*
X92000Y81750D02*
D03*
X97000D02*
D03*
X102000D02*
D03*
X107000D02*
D03*
Y113250D02*
D03*
X102000D02*
D03*
X97000D02*
D03*
X92000D02*
D03*
D44*
X115250Y90000D02*
D03*
Y95000D02*
D03*
Y100000D02*
D03*
Y105000D02*
D03*
X83750D02*
D03*
Y100000D02*
D03*
Y95000D02*
D03*
Y90000D02*
D03*
D45*
X34000Y95500D02*
Y111724D01*
X32750Y112974D02*
Y128250D01*
Y112974D02*
X34000Y111724D01*
X32750Y128250D02*
X44000Y139500D01*
X42553Y93000D02*
X43500D01*
X38821Y89268D02*
X42553Y93000D01*
X39000Y122000D02*
X43750D01*
X44000Y122250D01*
Y123000D01*
X68607Y135696D02*
X69553Y134750D01*
X64250Y136000D02*
X64554Y135696D01*
X69553Y134750D02*
X70500D01*
X64554Y135696D02*
X68607D01*
X62000Y103500D02*
X70500Y95000D01*
X58000Y103500D02*
X62000D01*
X49250Y112250D02*
X58000Y103500D01*
X70500Y95000D02*
X83750D01*
X94500Y51750D02*
Y52500D01*
X99500Y46654D02*
Y46750D01*
X94500Y51750D02*
X99500Y46750D01*
X104000Y34000D02*
Y39250D01*
X100750Y42500D02*
X104000Y39250D01*
X100750Y42500D02*
Y45404D01*
X99500Y46654D02*
X100750Y45404D01*
X64125Y135875D02*
X64250Y136000D01*
X49250Y112250D02*
Y122750D01*
X64250Y116285D02*
Y125150D01*
Y116285D02*
X67500Y113035D01*
X64000Y116536D02*
X64250Y116285D01*
X64000Y116536D02*
Y117000D01*
X64125Y125275D02*
X64250Y125150D01*
X67500Y105000D02*
Y113035D01*
Y105000D02*
X69250Y103250D01*
X73050D01*
X97000Y122303D02*
X98544Y123847D01*
Y124794D01*
X97000Y113250D02*
Y122303D01*
X113500Y72000D02*
Y80500D01*
Y72000D02*
X115000Y70500D01*
X73950Y102050D02*
X75950Y100050D01*
X74500Y101600D02*
Y101800D01*
X73050Y103250D02*
X74500Y101800D01*
X124504Y101500D02*
X139500D01*
X121054Y104950D02*
X124504Y101500D01*
X118250Y104950D02*
X121054D01*
X123926Y127000D02*
X131000D01*
X107050Y116250D02*
X113176D01*
X123926Y127000D01*
X116000Y56250D02*
Y69500D01*
X115500Y70000D02*
X116000Y69500D01*
X81000Y84500D02*
Y89950D01*
X78500Y82000D02*
X81000Y84500D01*
X78500Y70500D02*
Y82000D01*
X81000Y89950D02*
X81050Y90000D01*
X83750D01*
X37768Y89268D02*
X38821D01*
X36000Y87500D02*
X37768Y89268D01*
X36000Y79750D02*
Y87500D01*
X14000Y63300D02*
X15500Y64800D01*
X108500Y54000D02*
Y61500D01*
X107000Y52500D02*
X108500Y54000D01*
X107000Y52500D02*
X110000Y49500D01*
X114250Y12250D02*
Y26000D01*
X112000Y10000D02*
X114250Y12250D01*
X78500Y70500D02*
X81500Y67500D01*
Y63500D02*
Y67500D01*
Y63500D02*
X84500Y60500D01*
Y55250D02*
Y60500D01*
X86750Y23154D02*
X87250Y22654D01*
Y16250D02*
Y22654D01*
X86750Y23154D02*
Y28846D01*
X88654Y30750D01*
X87250Y16250D02*
X93500Y10000D01*
X88654Y30750D02*
X93500D01*
X93750Y31000D01*
X110000Y45000D02*
X111750Y43250D01*
Y41250D02*
X112000Y41000D01*
X111750Y41250D02*
Y43250D01*
X110000Y45000D02*
Y49500D01*
X112000Y41000D02*
X114250D01*
X86000Y142000D02*
X87500Y140500D01*
Y113650D02*
Y140500D01*
X86750Y112900D02*
X87500Y113650D01*
X86750Y105050D02*
Y112900D01*
X86700Y105000D02*
X86750Y105050D01*
X83750Y105000D02*
X86700D01*
X100000Y136000D02*
X101500D01*
X92000Y128000D02*
X100000Y136000D01*
X92000Y113250D02*
Y128000D01*
X14000Y37900D02*
X19000Y32900D01*
Y25000D02*
Y32900D01*
X49000Y123000D02*
X49250Y122750D01*
X64125Y125275D02*
X64250Y125400D01*
X64125Y125275D02*
Y135875D01*
X64250Y125400D02*
X74500D01*
X75950Y100050D02*
X83700D01*
X83750Y100000D01*
X50000Y136000D02*
X56750D01*
X44000Y142000D02*
X50000Y136000D01*
X35900Y56500D02*
X36000Y56600D01*
X31000Y56500D02*
X35900D01*
X20250Y57050D02*
X30450D01*
X14000Y63300D02*
X20250Y57050D01*
X30450D02*
X31000Y56500D01*
X107000Y113250D02*
Y116200D01*
X107050Y116250D01*
X44000Y139500D02*
Y142000D01*
X36000Y40600D02*
Y40800D01*
X14000Y37900D02*
X16700Y40600D01*
X36000D01*
X102050Y118550D02*
X107000Y123500D01*
X102050Y113300D02*
Y118550D01*
X102000Y113250D02*
X102050Y113300D01*
D46*
X27000Y102000D02*
D03*
X18500Y101500D02*
D03*
X28500Y76000D02*
D03*
X34000Y95500D02*
D03*
X42500Y105000D02*
D03*
X54500Y94000D02*
D03*
X43500Y93000D02*
D03*
X71500Y81500D02*
D03*
X122450Y50154D02*
D03*
X43700Y55500D02*
D03*
X39000Y122000D02*
D03*
X70500Y134750D02*
D03*
X80500Y24500D02*
D03*
X74000Y29500D02*
D03*
X80500Y16000D02*
D03*
X87000Y81000D02*
D03*
X128000Y76000D02*
D03*
X61000Y110500D02*
D03*
X24500Y51000D02*
D03*
X98544Y124794D02*
D03*
X113500Y80500D02*
D03*
X139500Y101500D02*
D03*
X104000Y34000D02*
D03*
X131000Y127000D02*
D03*
X119000Y135000D02*
D03*
X74500Y60500D02*
D03*
X43700Y63500D02*
D03*
X125500Y25000D02*
D03*
X108500Y61500D02*
D03*
X79500Y113500D02*
D03*
X50806Y8000D02*
D03*
X54000Y18500D02*
D03*
X58000Y11500D02*
D03*
X84000Y40000D02*
D03*
X60000Y42500D02*
D03*
X93000Y61500D02*
D03*
X19000Y25000D02*
D03*
X45000Y29500D02*
D03*
X27500Y25000D02*
D03*
X99500Y97500D02*
D03*
X107000Y123500D02*
D03*
M02*
