G04*
G04 #@! TF.GenerationSoftware,Altium Limited,Altium Designer,22.2.1 (43)*
G04*
G04 Layer_Color=255*
%FSLAX44Y44*%
%MOMM*%
G71*
G04*
G04 #@! TF.SameCoordinates,55AAE711-CEB4-47FC-94B9-92884521197F*
G04*
G04*
G04 #@! TF.FilePolarity,Positive*
G04*
G01*
G75*
%ADD12R,0.3000X1.4000*%
%ADD13R,0.4500X1.6000*%
%ADD14R,0.7500X0.3000*%
%ADD15R,1.8000X1.8000*%
%ADD16R,0.8000X0.2000*%
%ADD17R,0.2000X0.8000*%
%ADD18R,0.4500X0.5000*%
%ADD19R,0.5400X0.5800*%
%ADD20R,0.8500X0.9000*%
%ADD24R,0.5000X0.4500*%
%ADD41R,2.8000X1.5000*%
%ADD42R,1.5000X2.0000*%
%ADD43R,0.2400X0.8500*%
%ADD44R,0.8500X0.2400*%
D12*
X64000Y123000D02*
D03*
X59000D02*
D03*
X54000D02*
D03*
X49000D02*
D03*
X44000D02*
D03*
Y79000D02*
D03*
X49000D02*
D03*
X54000D02*
D03*
X59000D02*
D03*
X64000D02*
D03*
D13*
X104000Y33500D02*
D03*
D14*
X114250Y41000D02*
D03*
Y36000D02*
D03*
Y31000D02*
D03*
Y26000D02*
D03*
X93750D02*
D03*
Y31000D02*
D03*
Y36000D02*
D03*
Y41000D02*
D03*
D15*
X60000Y42500D02*
D03*
X99500Y97500D02*
D03*
D16*
X45000Y34500D02*
D03*
Y38500D02*
D03*
Y42500D02*
D03*
Y46500D02*
D03*
Y50500D02*
D03*
X75000D02*
D03*
Y46500D02*
D03*
Y42500D02*
D03*
Y38500D02*
D03*
Y34500D02*
D03*
D17*
X52000Y57500D02*
D03*
X56000D02*
D03*
X60000D02*
D03*
X64000D02*
D03*
X68000D02*
D03*
Y27500D02*
D03*
X64000D02*
D03*
X60000D02*
D03*
X56000D02*
D03*
X52000D02*
D03*
D18*
X36000Y72250D02*
D03*
Y79750D02*
D03*
Y25250D02*
D03*
Y32750D02*
D03*
X84500Y55250D02*
D03*
Y47750D02*
D03*
X116000Y56250D02*
D03*
Y48750D02*
D03*
D19*
X36000Y48400D02*
D03*
Y40600D02*
D03*
Y64400D02*
D03*
Y56600D02*
D03*
X74500Y125400D02*
D03*
Y117600D02*
D03*
Y101600D02*
D03*
Y109400D02*
D03*
D20*
X102000Y70500D02*
D03*
X115000D02*
D03*
X94000Y52500D02*
D03*
X107000D02*
D03*
X91500Y70500D02*
D03*
X78500D02*
D03*
D24*
X56750Y136000D02*
D03*
X64250D02*
D03*
D41*
X14000Y12500D02*
D03*
Y37900D02*
D03*
Y63300D02*
D03*
Y88700D02*
D03*
Y114100D02*
D03*
Y139500D02*
D03*
X138000D02*
D03*
Y114100D02*
D03*
Y88700D02*
D03*
Y63300D02*
D03*
Y37900D02*
D03*
Y12500D02*
D03*
D42*
X70500Y10000D02*
D03*
X40500D02*
D03*
X112500D02*
D03*
X93500D02*
D03*
X44000Y142000D02*
D03*
X83500D02*
D03*
X103500D02*
D03*
D43*
X92000Y81750D02*
D03*
X97000D02*
D03*
X102000D02*
D03*
X107000D02*
D03*
Y113250D02*
D03*
X102000D02*
D03*
X97000D02*
D03*
X92000D02*
D03*
D44*
X115250Y90000D02*
D03*
Y95000D02*
D03*
Y100000D02*
D03*
Y105000D02*
D03*
X83750D02*
D03*
Y100000D02*
D03*
Y95000D02*
D03*
Y90000D02*
D03*
M02*
