G04*
G04 #@! TF.GenerationSoftware,Altium Limited,Altium Designer,22.2.1 (43)*
G04*
G04 Layer_Color=6740479*
%FSLAX44Y44*%
%MOMM*%
G71*
G04*
G04 #@! TF.SameCoordinates,55AAE711-CEB4-47FC-94B9-92884521197F*
G04*
G04*
G04 #@! TF.FilePolarity,Positive*
G04*
G01*
G75*
%ADD11C,0.2000*%
%ADD47C,0.3810*%
%ADD48C,0.0254*%
D11*
X282896Y156997D02*
Y149000D01*
X288228D01*
X292226Y154332D02*
X294892D01*
X296225Y152999D01*
Y149000D01*
X292226D01*
X290893Y150333D01*
X292226Y151666D01*
X296225D01*
X298891Y154332D02*
Y150333D01*
X300224Y149000D01*
X304223D01*
Y147667D01*
X302890Y146334D01*
X301557D01*
X304223Y149000D02*
Y154332D01*
X310887Y149000D02*
X308221D01*
X306888Y150333D01*
Y152999D01*
X308221Y154332D01*
X310887D01*
X312220Y152999D01*
Y151666D01*
X306888D01*
X314886Y154332D02*
Y149000D01*
Y151666D01*
X316219Y152999D01*
X317551Y154332D01*
X318885D01*
X288228Y53000D02*
X282896D01*
X288228Y58332D01*
Y59665D01*
X286895Y60997D01*
X284229D01*
X282896Y59665D01*
Y85000D02*
X285562D01*
X284229D01*
Y92997D01*
X282896Y91664D01*
X338885Y149000D02*
Y156997D01*
X344216Y149000D01*
Y156997D01*
X348215Y154332D02*
X350881D01*
X352214Y152999D01*
Y149000D01*
X348215D01*
X346882Y150333D01*
X348215Y151666D01*
X352214D01*
X354879Y149000D02*
Y154332D01*
X356212D01*
X357545Y152999D01*
Y149000D01*
Y152999D01*
X358878Y154332D01*
X360211Y152999D01*
Y149000D01*
X366875D02*
X364210D01*
X362877Y150333D01*
Y152999D01*
X364210Y154332D01*
X366875D01*
X368208Y152999D01*
Y151666D01*
X362877D01*
X338885Y12997D02*
Y5000D01*
X342883D01*
X344216Y6333D01*
Y7666D01*
X342883Y8999D01*
X338885D01*
X342883D01*
X344216Y10332D01*
Y11665D01*
X342883Y12997D01*
X338885D01*
X348215Y5000D02*
X350881D01*
X352214Y6333D01*
Y8999D01*
X350881Y10332D01*
X348215D01*
X346882Y8999D01*
Y6333D01*
X348215Y5000D01*
X356212Y11665D02*
Y10332D01*
X354879D01*
X357545D01*
X356212D01*
Y6333D01*
X357545Y5000D01*
X362877Y11665D02*
Y10332D01*
X361544D01*
X364210D01*
X362877D01*
Y6333D01*
X364210Y5000D01*
X369541D02*
X372207D01*
X373540Y6333D01*
Y8999D01*
X372207Y10332D01*
X369541D01*
X368208Y8999D01*
Y6333D01*
X369541Y5000D01*
X376206D02*
Y10332D01*
X377539D01*
X378872Y8999D01*
Y5000D01*
Y8999D01*
X380205Y10332D01*
X381537Y8999D01*
Y5000D01*
X396199Y12997D02*
X393534D01*
X392201Y11665D01*
Y6333D01*
X393534Y5000D01*
X396199D01*
X397532Y6333D01*
Y11665D01*
X396199Y12997D01*
X400198Y10332D02*
X402864Y5000D01*
X405530Y10332D01*
X412194Y5000D02*
X409528D01*
X408195Y6333D01*
Y8999D01*
X409528Y10332D01*
X412194D01*
X413527Y8999D01*
Y7666D01*
X408195D01*
X416193Y10332D02*
Y5000D01*
Y7666D01*
X417526Y8999D01*
X418859Y10332D01*
X420192D01*
X424190Y5000D02*
X426856D01*
X425523D01*
Y12997D01*
X424190D01*
X432188Y10332D02*
X434854D01*
X436186Y8999D01*
Y5000D01*
X432188D01*
X430855Y6333D01*
X432188Y7666D01*
X436186D01*
X438852Y10332D02*
Y6333D01*
X440185Y5000D01*
X444184D01*
Y3667D01*
X442851Y2334D01*
X441518D01*
X444184Y5000D02*
Y10332D01*
X338885Y28997D02*
Y21000D01*
X342883D01*
X344216Y22333D01*
Y23666D01*
X342883Y24999D01*
X338885D01*
X342883D01*
X344216Y26332D01*
Y27664D01*
X342883Y28997D01*
X338885D01*
X348215Y21000D02*
X350881D01*
X352214Y22333D01*
Y24999D01*
X350881Y26332D01*
X348215D01*
X346882Y24999D01*
Y22333D01*
X348215Y21000D01*
X356212Y27664D02*
Y26332D01*
X354879D01*
X357545D01*
X356212D01*
Y22333D01*
X357545Y21000D01*
X362877Y27664D02*
Y26332D01*
X361544D01*
X364210D01*
X362877D01*
Y22333D01*
X364210Y21000D01*
X369541D02*
X372207D01*
X373540Y22333D01*
Y24999D01*
X372207Y26332D01*
X369541D01*
X368208Y24999D01*
Y22333D01*
X369541Y21000D01*
X376206D02*
Y26332D01*
X377539D01*
X378872Y24999D01*
Y21000D01*
Y24999D01*
X380205Y26332D01*
X381537Y24999D01*
Y21000D01*
X397532Y27664D02*
X396199Y28997D01*
X393534D01*
X392201Y27664D01*
Y26332D01*
X393534Y24999D01*
X396199D01*
X397532Y23666D01*
Y22333D01*
X396199Y21000D01*
X393534D01*
X392201Y22333D01*
X401531Y21000D02*
X404197D01*
X405530Y22333D01*
Y24999D01*
X404197Y26332D01*
X401531D01*
X400198Y24999D01*
Y22333D01*
X401531Y21000D01*
X408195D02*
X410861D01*
X409528D01*
Y28997D01*
X408195D01*
X420192D02*
Y21000D01*
X416193D01*
X414860Y22333D01*
Y24999D01*
X416193Y26332D01*
X420192D01*
X426856Y21000D02*
X424190D01*
X422857Y22333D01*
Y24999D01*
X424190Y26332D01*
X426856D01*
X428189Y24999D01*
Y23666D01*
X422857D01*
X430855Y26332D02*
Y21000D01*
Y23666D01*
X432188Y24999D01*
X433521Y26332D01*
X434854D01*
X338885Y44997D02*
Y37000D01*
X342883D01*
X344216Y38333D01*
Y39666D01*
X342883Y40999D01*
X338885D01*
X342883D01*
X344216Y42332D01*
Y43664D01*
X342883Y44997D01*
X338885D01*
X348215Y37000D02*
X350881D01*
X352214Y38333D01*
Y40999D01*
X350881Y42332D01*
X348215D01*
X346882Y40999D01*
Y38333D01*
X348215Y37000D01*
X356212Y43664D02*
Y42332D01*
X354879D01*
X357545D01*
X356212D01*
Y38333D01*
X357545Y37000D01*
X362877Y43664D02*
Y42332D01*
X361544D01*
X364210D01*
X362877D01*
Y38333D01*
X364210Y37000D01*
X369541D02*
X372207D01*
X373540Y38333D01*
Y40999D01*
X372207Y42332D01*
X369541D01*
X368208Y40999D01*
Y38333D01*
X369541Y37000D01*
X376206D02*
Y42332D01*
X377539D01*
X378872Y40999D01*
Y37000D01*
Y40999D01*
X380205Y42332D01*
X381537Y40999D01*
Y37000D01*
X397532Y43664D02*
X396199Y44997D01*
X393534D01*
X392201Y43664D01*
Y42332D01*
X393534Y40999D01*
X396199D01*
X397532Y39666D01*
Y38333D01*
X396199Y37000D01*
X393534D01*
X392201Y38333D01*
X400198Y42332D02*
Y38333D01*
X401531Y37000D01*
X405530D01*
Y42332D01*
X408195D02*
Y37000D01*
Y39666D01*
X409528Y40999D01*
X410861Y42332D01*
X412194D01*
X417526Y37000D02*
Y43664D01*
Y40999D01*
X416193D01*
X418859D01*
X417526D01*
Y43664D01*
X418859Y44997D01*
X424190Y42332D02*
X426856D01*
X428189Y40999D01*
Y37000D01*
X424190D01*
X422857Y38333D01*
X424190Y39666D01*
X428189D01*
X436186Y42332D02*
X432188D01*
X430855Y40999D01*
Y38333D01*
X432188Y37000D01*
X436186D01*
X442851D02*
X440185D01*
X438852Y38333D01*
Y40999D01*
X440185Y42332D01*
X442851D01*
X444184Y40999D01*
Y39666D01*
X438852D01*
X460179Y44997D02*
X454847D01*
Y40999D01*
X457513D01*
X454847D01*
Y37000D01*
X462845D02*
X465510D01*
X464177D01*
Y42332D01*
X462845D01*
X469509Y37000D02*
Y42332D01*
X473508D01*
X474841Y40999D01*
Y37000D01*
X477506D02*
X480172D01*
X478839D01*
Y42332D01*
X477506D01*
X484171Y37000D02*
X488170D01*
X489503Y38333D01*
X488170Y39666D01*
X485504D01*
X484171Y40999D01*
X485504Y42332D01*
X489503D01*
X492168Y44997D02*
Y37000D01*
Y40999D01*
X493501Y42332D01*
X496167D01*
X497500Y40999D01*
Y37000D01*
X338885Y60997D02*
Y53000D01*
X342883D01*
X344216Y54333D01*
Y55666D01*
X342883Y56999D01*
X338885D01*
X342883D01*
X344216Y58332D01*
Y59665D01*
X342883Y60997D01*
X338885D01*
X348215Y53000D02*
X350881D01*
X352214Y54333D01*
Y56999D01*
X350881Y58332D01*
X348215D01*
X346882Y56999D01*
Y54333D01*
X348215Y53000D01*
X356212Y59665D02*
Y58332D01*
X354879D01*
X357545D01*
X356212D01*
Y54333D01*
X357545Y53000D01*
X362877Y59665D02*
Y58332D01*
X361544D01*
X364210D01*
X362877D01*
Y54333D01*
X364210Y53000D01*
X369541D02*
X372207D01*
X373540Y54333D01*
Y56999D01*
X372207Y58332D01*
X369541D01*
X368208Y56999D01*
Y54333D01*
X369541Y53000D01*
X376206D02*
Y58332D01*
X377539D01*
X378872Y56999D01*
Y53000D01*
Y56999D01*
X380205Y58332D01*
X381537Y56999D01*
Y53000D01*
X392201Y60997D02*
Y53000D01*
X397532D01*
X401531Y58332D02*
X404197D01*
X405530Y56999D01*
Y53000D01*
X401531D01*
X400198Y54333D01*
X401531Y55666D01*
X405530D01*
X408195Y58332D02*
Y54333D01*
X409528Y53000D01*
X413527D01*
Y51667D01*
X412194Y50334D01*
X410861D01*
X413527Y53000D02*
Y58332D01*
X420192Y53000D02*
X417526D01*
X416193Y54333D01*
Y56999D01*
X417526Y58332D01*
X420192D01*
X421525Y56999D01*
Y55666D01*
X416193D01*
X424190Y58332D02*
Y53000D01*
Y55666D01*
X425523Y56999D01*
X426856Y58332D01*
X428189D01*
X338885Y76997D02*
Y69000D01*
X342883D01*
X344216Y70333D01*
Y75665D01*
X342883Y76997D01*
X338885D01*
X346882Y69000D02*
X349548D01*
X348215D01*
Y74332D01*
X346882D01*
X357545Y69000D02*
X354879D01*
X353546Y70333D01*
Y72999D01*
X354879Y74332D01*
X357545D01*
X358878Y72999D01*
Y71666D01*
X353546D01*
X361544Y69000D02*
X364210D01*
X362877D01*
Y76997D01*
X361544D01*
X372207Y69000D02*
X369541D01*
X368208Y70333D01*
Y72999D01*
X369541Y74332D01*
X372207D01*
X373540Y72999D01*
Y71666D01*
X368208D01*
X381537Y74332D02*
X377539D01*
X376206Y72999D01*
Y70333D01*
X377539Y69000D01*
X381537D01*
X385536Y75665D02*
Y74332D01*
X384203D01*
X386869D01*
X385536D01*
Y70333D01*
X386869Y69000D01*
X390868Y74332D02*
Y69000D01*
Y71666D01*
X392201Y72999D01*
X393534Y74332D01*
X394866D01*
X398865Y69000D02*
X401531D01*
X400198D01*
Y74332D01*
X398865D01*
X410861D02*
X406863D01*
X405530Y72999D01*
Y70333D01*
X406863Y69000D01*
X410861D01*
X421525D02*
X424190D01*
X422857D01*
Y76997D01*
X421525Y75665D01*
X338885Y92997D02*
X344216D01*
X341550D01*
Y85000D01*
X348215D02*
X350881D01*
X352214Y86333D01*
Y88999D01*
X350881Y90332D01*
X348215D01*
X346882Y88999D01*
Y86333D01*
X348215Y85000D01*
X354879Y82334D02*
Y90332D01*
X358878D01*
X360211Y88999D01*
Y86333D01*
X358878Y85000D01*
X354879D01*
X370874Y92997D02*
Y85000D01*
X376206D01*
X380205Y90332D02*
X382870D01*
X384203Y88999D01*
Y85000D01*
X380205D01*
X378872Y86333D01*
X380205Y87666D01*
X384203D01*
X386869Y90332D02*
Y86333D01*
X388202Y85000D01*
X392201D01*
Y83667D01*
X390868Y82334D01*
X389535D01*
X392201Y85000D02*
Y90332D01*
X398865Y85000D02*
X396199D01*
X394866Y86333D01*
Y88999D01*
X396199Y90332D01*
X398865D01*
X400198Y88999D01*
Y87666D01*
X394866D01*
X402864Y90332D02*
Y85000D01*
Y87666D01*
X404197Y88999D01*
X405530Y90332D01*
X406862D01*
X338885Y108997D02*
X344216D01*
X341550D01*
Y101000D01*
X348215D02*
X350881D01*
X352214Y102333D01*
Y104999D01*
X350881Y106332D01*
X348215D01*
X346882Y104999D01*
Y102333D01*
X348215Y101000D01*
X354879Y98334D02*
Y106332D01*
X358878D01*
X360211Y104999D01*
Y102333D01*
X358878Y101000D01*
X354879D01*
X376206Y107664D02*
X374873Y108997D01*
X372207D01*
X370874Y107664D01*
Y106332D01*
X372207Y104999D01*
X374873D01*
X376206Y103666D01*
Y102333D01*
X374873Y101000D01*
X372207D01*
X370874Y102333D01*
X378872Y106332D02*
Y102333D01*
X380205Y101000D01*
X384203D01*
Y106332D01*
X386869D02*
Y101000D01*
Y103666D01*
X388202Y104999D01*
X389535Y106332D01*
X390868D01*
X396199Y101000D02*
Y107664D01*
Y104999D01*
X394866D01*
X397532D01*
X396199D01*
Y107664D01*
X397532Y108997D01*
X402864Y106332D02*
X405530D01*
X406862Y104999D01*
Y101000D01*
X402864D01*
X401531Y102333D01*
X402864Y103666D01*
X406862D01*
X414860Y106332D02*
X410861D01*
X409528Y104999D01*
Y102333D01*
X410861Y101000D01*
X414860D01*
X421525D02*
X418859D01*
X417526Y102333D01*
Y104999D01*
X418859Y106332D01*
X421525D01*
X422857Y104999D01*
Y103666D01*
X417526D01*
X438852Y108997D02*
X433521D01*
Y104999D01*
X436186D01*
X433521D01*
Y101000D01*
X441518D02*
X444184D01*
X442851D01*
Y106332D01*
X441518D01*
X448182Y101000D02*
Y106332D01*
X452181D01*
X453514Y104999D01*
Y101000D01*
X456180D02*
X458846D01*
X457513D01*
Y106332D01*
X456180D01*
X462845Y101000D02*
X466843D01*
X468176Y102333D01*
X466843Y103666D01*
X464177D01*
X462845Y104999D01*
X464177Y106332D01*
X468176D01*
X470842Y108997D02*
Y101000D01*
Y104999D01*
X472175Y106332D01*
X474841D01*
X476174Y104999D01*
Y101000D01*
X338885Y124997D02*
X344216D01*
X341550D01*
Y117000D01*
X348215D02*
X350881D01*
X352214Y118333D01*
Y120999D01*
X350881Y122332D01*
X348215D01*
X346882Y120999D01*
Y118333D01*
X348215Y117000D01*
X354879Y114334D02*
Y122332D01*
X358878D01*
X360211Y120999D01*
Y118333D01*
X358878Y117000D01*
X354879D01*
X376206Y123665D02*
X374873Y124997D01*
X372207D01*
X370874Y123665D01*
Y122332D01*
X372207Y120999D01*
X374873D01*
X376206Y119666D01*
Y118333D01*
X374873Y117000D01*
X372207D01*
X370874Y118333D01*
X380205Y117000D02*
X382870D01*
X384203Y118333D01*
Y120999D01*
X382870Y122332D01*
X380205D01*
X378872Y120999D01*
Y118333D01*
X380205Y117000D01*
X386869D02*
X389535D01*
X388202D01*
Y124997D01*
X386869D01*
X398865D02*
Y117000D01*
X394866D01*
X393534Y118333D01*
Y120999D01*
X394866Y122332D01*
X398865D01*
X405530Y117000D02*
X402864D01*
X401531Y118333D01*
Y120999D01*
X402864Y122332D01*
X405530D01*
X406862Y120999D01*
Y119666D01*
X401531D01*
X409528Y122332D02*
Y117000D01*
Y119666D01*
X410861Y120999D01*
X412194Y122332D01*
X413527D01*
X338885Y140997D02*
X344216D01*
X341550D01*
Y133000D01*
X348215D02*
X350881D01*
X352214Y134333D01*
Y136999D01*
X350881Y138332D01*
X348215D01*
X346882Y136999D01*
Y134333D01*
X348215Y133000D01*
X354879Y130334D02*
Y138332D01*
X358878D01*
X360211Y136999D01*
Y134333D01*
X358878Y133000D01*
X354879D01*
X374873Y140997D02*
X372207D01*
X370874Y139664D01*
Y134333D01*
X372207Y133000D01*
X374873D01*
X376206Y134333D01*
Y139664D01*
X374873Y140997D01*
X378872Y138332D02*
X381537Y133000D01*
X384203Y138332D01*
X390868Y133000D02*
X388202D01*
X386869Y134333D01*
Y136999D01*
X388202Y138332D01*
X390868D01*
X392201Y136999D01*
Y135666D01*
X386869D01*
X394866Y138332D02*
Y133000D01*
Y135666D01*
X396199Y136999D01*
X397532Y138332D01*
X398865D01*
X402864Y133000D02*
X405530D01*
X404197D01*
Y140997D01*
X402864D01*
X410861Y138332D02*
X413527D01*
X414860Y136999D01*
Y133000D01*
X410861D01*
X409528Y134333D01*
X410861Y135666D01*
X414860D01*
X417526Y138332D02*
Y134333D01*
X418859Y133000D01*
X422857D01*
Y131667D01*
X421525Y130334D01*
X420192D01*
X422857Y133000D02*
Y138332D01*
X517500Y149000D02*
Y156997D01*
X520166Y154332D01*
X522832Y156997D01*
Y149000D01*
X526830Y154332D02*
X529496D01*
X530829Y152999D01*
Y149000D01*
X526830D01*
X525497Y150333D01*
X526830Y151666D01*
X530829D01*
X534828Y155665D02*
Y154332D01*
X533495D01*
X536161D01*
X534828D01*
Y150333D01*
X536161Y149000D01*
X544158D02*
X541492D01*
X540159Y150333D01*
Y152999D01*
X541492Y154332D01*
X544158D01*
X545491Y152999D01*
Y151666D01*
X540159D01*
X548157Y154332D02*
Y149000D01*
Y151666D01*
X549490Y152999D01*
X550823Y154332D01*
X552155D01*
X556154Y149000D02*
X558820D01*
X557487D01*
Y154332D01*
X556154D01*
X564152D02*
X566818D01*
X568150Y152999D01*
Y149000D01*
X564152D01*
X562819Y150333D01*
X564152Y151666D01*
X568150D01*
X570816Y149000D02*
X573482D01*
X572149D01*
Y156997D01*
X570816D01*
X522832Y27664D02*
X521499Y28997D01*
X518833D01*
X517500Y27664D01*
Y26332D01*
X518833Y24999D01*
X521499D01*
X522832Y23666D01*
Y22333D01*
X521499Y21000D01*
X518833D01*
X517500Y22333D01*
X525497Y21000D02*
Y28997D01*
X528163Y26332D01*
X530829Y28997D01*
Y21000D01*
X533495Y24999D02*
X538826D01*
X541492Y27664D02*
X542825Y28997D01*
X545491D01*
X546824Y27664D01*
Y22333D01*
X545491Y21000D01*
X542825D01*
X541492Y22333D01*
Y27664D01*
X549490D02*
X550823Y28997D01*
X553488D01*
X554821Y27664D01*
Y22333D01*
X553488Y21000D01*
X550823D01*
X549490Y22333D01*
Y27664D01*
X557487Y21000D02*
X560153D01*
X558820D01*
Y28997D01*
X557487Y27664D01*
X517500Y37000D02*
Y44997D01*
X521499D01*
X522832Y43664D01*
Y40999D01*
X521499Y39666D01*
X517500D01*
X525497Y44997D02*
Y37000D01*
X529496D01*
X530829Y38333D01*
Y39666D01*
Y40999D01*
X529496Y42332D01*
X525497D01*
X538826Y43664D02*
X537494Y44997D01*
X534828D01*
X533495Y43664D01*
Y42332D01*
X534828Y40999D01*
X537494D01*
X538826Y39666D01*
Y38333D01*
X537494Y37000D01*
X534828D01*
X533495Y38333D01*
X541492Y37000D02*
Y42332D01*
X545491D01*
X546824Y40999D01*
Y37000D01*
X522832Y59665D02*
X521499Y60997D01*
X518833D01*
X517500Y59665D01*
Y54333D01*
X518833Y53000D01*
X521499D01*
X522832Y54333D01*
X530829Y60997D02*
X525497D01*
Y56999D01*
X528163D01*
X525497D01*
Y53000D01*
X533495Y56999D02*
X538826D01*
X541492Y59665D02*
X542825Y60997D01*
X545491D01*
X546824Y59665D01*
Y54333D01*
X545491Y53000D01*
X542825D01*
X541492Y54333D01*
Y59665D01*
X549490D02*
X550823Y60997D01*
X553488D01*
X554821Y59665D01*
Y54333D01*
X553488Y53000D01*
X550823D01*
X549490Y54333D01*
Y59665D01*
X561486Y53000D02*
Y60997D01*
X557487Y56999D01*
X562819D01*
X522832Y75665D02*
X521499Y76997D01*
X518833D01*
X517500Y75665D01*
Y70333D01*
X518833Y69000D01*
X521499D01*
X522832Y70333D01*
X526830Y69000D02*
X529496D01*
X530829Y70333D01*
Y72999D01*
X529496Y74332D01*
X526830D01*
X525497Y72999D01*
Y70333D01*
X526830Y69000D01*
X533495Y74332D02*
Y69000D01*
Y71666D01*
X534828Y72999D01*
X536161Y74332D01*
X537494D01*
X545491Y69000D02*
X542825D01*
X541492Y70333D01*
Y72999D01*
X542825Y74332D01*
X545491D01*
X546824Y72999D01*
Y71666D01*
X541492D01*
X549490Y72999D02*
X554821D01*
X557487Y75665D02*
X558820Y76997D01*
X561486D01*
X562819Y75665D01*
Y70333D01*
X561486Y69000D01*
X558820D01*
X557487Y70333D01*
Y75665D01*
X565485D02*
X566817Y76997D01*
X569483D01*
X570816Y75665D01*
Y74332D01*
X569483Y72999D01*
X568150D01*
X569483D01*
X570816Y71666D01*
Y70333D01*
X569483Y69000D01*
X566817D01*
X565485Y70333D01*
X573482Y75665D02*
X574815Y76997D01*
X577481D01*
X578814Y75665D01*
Y74332D01*
X577481Y72999D01*
X578814Y71666D01*
Y70333D01*
X577481Y69000D01*
X574815D01*
X573482Y70333D01*
Y71666D01*
X574815Y72999D01*
X573482Y74332D01*
Y75665D01*
X574815Y72999D02*
X577481D01*
X522832Y91664D02*
X521499Y92997D01*
X518833D01*
X517500Y91664D01*
Y86333D01*
X518833Y85000D01*
X521499D01*
X522832Y86333D01*
X530829Y92997D02*
X525497D01*
Y88999D01*
X528163D01*
X525497D01*
Y85000D01*
X533495Y88999D02*
X538826D01*
X541492Y91664D02*
X542825Y92997D01*
X545491D01*
X546824Y91664D01*
Y86333D01*
X545491Y85000D01*
X542825D01*
X541492Y86333D01*
Y91664D01*
X549490D02*
X550823Y92997D01*
X553488D01*
X554821Y91664D01*
Y86333D01*
X553488Y85000D01*
X550823D01*
X549490Y86333D01*
Y91664D01*
X561486Y85000D02*
Y92997D01*
X557487Y88999D01*
X562819D01*
X517500Y101000D02*
Y108997D01*
X521499D01*
X522832Y107664D01*
Y104999D01*
X521499Y103666D01*
X517500D01*
X525497Y108997D02*
Y101000D01*
X529496D01*
X530829Y102333D01*
Y103666D01*
Y104999D01*
X529496Y106332D01*
X525497D01*
X538826Y107664D02*
X537494Y108997D01*
X534828D01*
X533495Y107664D01*
Y106332D01*
X534828Y104999D01*
X537494D01*
X538826Y103666D01*
Y102333D01*
X537494Y101000D01*
X534828D01*
X533495Y102333D01*
X541492Y101000D02*
Y106332D01*
X545491D01*
X546824Y104999D01*
Y101000D01*
X522832Y123665D02*
X521499Y124997D01*
X518833D01*
X517500Y123665D01*
Y122332D01*
X518833Y120999D01*
X521499D01*
X522832Y119666D01*
Y118333D01*
X521499Y117000D01*
X518833D01*
X517500Y118333D01*
X525497Y117000D02*
Y124997D01*
X528163Y122332D01*
X530829Y124997D01*
Y117000D01*
X533495Y120999D02*
X538826D01*
X541492Y123665D02*
X542825Y124997D01*
X545491D01*
X546824Y123665D01*
Y118333D01*
X545491Y117000D01*
X542825D01*
X541492Y118333D01*
Y123665D01*
X549490D02*
X550823Y124997D01*
X553488D01*
X554821Y123665D01*
Y118333D01*
X553488Y117000D01*
X550823D01*
X549490Y118333D01*
Y123665D01*
X557487Y117000D02*
X560153D01*
X558820D01*
Y124997D01*
X557487Y123665D01*
X598814Y156997D02*
X604145D01*
X601479D01*
Y149000D01*
X606811Y156997D02*
Y149000D01*
Y152999D01*
X608144Y154332D01*
X610810D01*
X612143Y152999D01*
Y149000D01*
X614808D02*
X617474D01*
X616141D01*
Y154332D01*
X614808D01*
X626805D02*
X622806D01*
X621473Y152999D01*
Y150333D01*
X622806Y149000D01*
X626805D01*
X629470D02*
Y156997D01*
Y151666D02*
X633469Y154332D01*
X629470Y151666D02*
X633469Y149000D01*
X637468D02*
Y154332D01*
X641467D01*
X642799Y152999D01*
Y149000D01*
X649464D02*
X646798D01*
X645465Y150333D01*
Y152999D01*
X646798Y154332D01*
X649464D01*
X650797Y152999D01*
Y151666D01*
X645465D01*
X653463Y149000D02*
X657461D01*
X658794Y150333D01*
X657461Y151666D01*
X654796D01*
X653463Y152999D01*
X654796Y154332D01*
X658794D01*
X661460Y149000D02*
X665459D01*
X666792Y150333D01*
X665459Y151666D01*
X662793D01*
X661460Y152999D01*
X662793Y154332D01*
X666792D01*
X598814Y27664D02*
X600146Y28997D01*
X602812D01*
X604145Y27664D01*
Y22333D01*
X602812Y21000D01*
X600146D01*
X598814Y22333D01*
Y27664D01*
X606811Y21000D02*
Y22333D01*
X608144D01*
Y21000D01*
X606811D01*
X613475Y27664D02*
X614808Y28997D01*
X617474D01*
X618807Y27664D01*
Y22333D01*
X617474Y21000D01*
X614808D01*
X613475Y22333D01*
Y27664D01*
X626805Y21000D02*
X621473D01*
X626805Y26332D01*
Y27664D01*
X625472Y28997D01*
X622806D01*
X621473Y27664D01*
X634802Y28997D02*
X629470D01*
Y24999D01*
X632136Y26332D01*
X633469D01*
X634802Y24999D01*
Y22333D01*
X633469Y21000D01*
X630803D01*
X629470Y22333D01*
X637468Y21000D02*
Y26332D01*
X638801D01*
X640134Y24999D01*
Y21000D01*
Y24999D01*
X641467Y26332D01*
X642799Y24999D01*
Y21000D01*
X645465D02*
Y26332D01*
X646798D01*
X648131Y24999D01*
Y21000D01*
Y24999D01*
X649464Y26332D01*
X650797Y24999D01*
Y21000D01*
X598814Y43664D02*
X600146Y44997D01*
X602812D01*
X604145Y43664D01*
Y38333D01*
X602812Y37000D01*
X600146D01*
X598814Y38333D01*
Y43664D01*
X606811Y37000D02*
Y38333D01*
X608144D01*
Y37000D01*
X606811D01*
X613475Y43664D02*
X614808Y44997D01*
X617474D01*
X618807Y43664D01*
Y38333D01*
X617474Y37000D01*
X614808D01*
X613475Y38333D01*
Y43664D01*
X626805Y37000D02*
X621473D01*
X626805Y42332D01*
Y43664D01*
X625472Y44997D01*
X622806D01*
X621473Y43664D01*
X629470D02*
X630803Y44997D01*
X633469D01*
X634802Y43664D01*
Y38333D01*
X633469Y37000D01*
X630803D01*
X629470Y38333D01*
Y43664D01*
X637468Y37000D02*
Y42332D01*
X638801D01*
X640134Y40999D01*
Y37000D01*
Y40999D01*
X641467Y42332D01*
X642799Y40999D01*
Y37000D01*
X645465D02*
Y42332D01*
X646798D01*
X648131Y40999D01*
Y37000D01*
Y40999D01*
X649464Y42332D01*
X650797Y40999D01*
Y37000D01*
X598814Y59665D02*
X600146Y60997D01*
X602812D01*
X604145Y59665D01*
Y54333D01*
X602812Y53000D01*
X600146D01*
X598814Y54333D01*
Y59665D01*
X606811Y53000D02*
Y54333D01*
X608144D01*
Y53000D01*
X606811D01*
X613475Y59665D02*
X614808Y60997D01*
X617474D01*
X618807Y59665D01*
Y54333D01*
X617474Y53000D01*
X614808D01*
X613475Y54333D01*
Y59665D01*
X621473D02*
X622806Y60997D01*
X625472D01*
X626805Y59665D01*
Y58332D01*
X625472Y56999D01*
X624139D01*
X625472D01*
X626805Y55666D01*
Y54333D01*
X625472Y53000D01*
X622806D01*
X621473Y54333D01*
X634802Y60997D02*
X629470D01*
Y56999D01*
X632136Y58332D01*
X633469D01*
X634802Y56999D01*
Y54333D01*
X633469Y53000D01*
X630803D01*
X629470Y54333D01*
X637468Y53000D02*
Y58332D01*
X638801D01*
X640134Y56999D01*
Y53000D01*
Y56999D01*
X641467Y58332D01*
X642799Y56999D01*
Y53000D01*
X645465D02*
Y58332D01*
X646798D01*
X648131Y56999D01*
Y53000D01*
Y56999D01*
X649464Y58332D01*
X650797Y56999D01*
Y53000D01*
X598814Y75665D02*
X600146Y76997D01*
X602812D01*
X604145Y75665D01*
Y70333D01*
X602812Y69000D01*
X600146D01*
X598814Y70333D01*
Y75665D01*
X606811Y69000D02*
Y70333D01*
X608144D01*
Y69000D01*
X606811D01*
X618807Y76997D02*
X616141Y75665D01*
X613475Y72999D01*
Y70333D01*
X614808Y69000D01*
X617474D01*
X618807Y70333D01*
Y71666D01*
X617474Y72999D01*
X613475D01*
X621473Y75665D02*
X622806Y76997D01*
X625472D01*
X626805Y75665D01*
Y70333D01*
X625472Y69000D01*
X622806D01*
X621473Y70333D01*
Y75665D01*
X629470D02*
X630803Y76997D01*
X633469D01*
X634802Y75665D01*
Y70333D01*
X633469Y69000D01*
X630803D01*
X629470Y70333D01*
Y75665D01*
X637468Y69000D02*
Y74332D01*
X638801D01*
X640134Y72999D01*
Y69000D01*
Y72999D01*
X641467Y74332D01*
X642799Y72999D01*
Y69000D01*
X645465D02*
Y74332D01*
X646798D01*
X648131Y72999D01*
Y69000D01*
Y72999D01*
X649464Y74332D01*
X650797Y72999D01*
Y69000D01*
X598814Y91664D02*
X600146Y92997D01*
X602812D01*
X604145Y91664D01*
Y86333D01*
X602812Y85000D01*
X600146D01*
X598814Y86333D01*
Y91664D01*
X606811Y85000D02*
Y86333D01*
X608144D01*
Y85000D01*
X606811D01*
X613475Y91664D02*
X614808Y92997D01*
X617474D01*
X618807Y91664D01*
Y86333D01*
X617474Y85000D01*
X614808D01*
X613475Y86333D01*
Y91664D01*
X621473D02*
X622806Y92997D01*
X625472D01*
X626805Y91664D01*
Y90332D01*
X625472Y88999D01*
X624139D01*
X625472D01*
X626805Y87666D01*
Y86333D01*
X625472Y85000D01*
X622806D01*
X621473Y86333D01*
X634802Y92997D02*
X629470D01*
Y88999D01*
X632136Y90332D01*
X633469D01*
X634802Y88999D01*
Y86333D01*
X633469Y85000D01*
X630803D01*
X629470Y86333D01*
X637468Y85000D02*
Y90332D01*
X638801D01*
X640134Y88999D01*
Y85000D01*
Y88999D01*
X641467Y90332D01*
X642799Y88999D01*
Y85000D01*
X645465D02*
Y90332D01*
X646798D01*
X648131Y88999D01*
Y85000D01*
Y88999D01*
X649464Y90332D01*
X650797Y88999D01*
Y85000D01*
X598814Y107664D02*
X600146Y108997D01*
X602812D01*
X604145Y107664D01*
Y102333D01*
X602812Y101000D01*
X600146D01*
X598814Y102333D01*
Y107664D01*
X606811Y101000D02*
Y102333D01*
X608144D01*
Y101000D01*
X606811D01*
X613475Y107664D02*
X614808Y108997D01*
X617474D01*
X618807Y107664D01*
Y102333D01*
X617474Y101000D01*
X614808D01*
X613475Y102333D01*
Y107664D01*
X626805Y101000D02*
X621473D01*
X626805Y106332D01*
Y107664D01*
X625472Y108997D01*
X622806D01*
X621473Y107664D01*
X629470D02*
X630803Y108997D01*
X633469D01*
X634802Y107664D01*
Y102333D01*
X633469Y101000D01*
X630803D01*
X629470Y102333D01*
Y107664D01*
X637468Y101000D02*
Y106332D01*
X638801D01*
X640134Y104999D01*
Y101000D01*
Y104999D01*
X641467Y106332D01*
X642799Y104999D01*
Y101000D01*
X645465D02*
Y106332D01*
X646798D01*
X648131Y104999D01*
Y101000D01*
Y104999D01*
X649464Y106332D01*
X650797Y104999D01*
Y101000D01*
X598814Y123665D02*
X600146Y124997D01*
X602812D01*
X604145Y123665D01*
Y118333D01*
X602812Y117000D01*
X600146D01*
X598814Y118333D01*
Y123665D01*
X606811Y117000D02*
Y118333D01*
X608144D01*
Y117000D01*
X606811D01*
X613475Y123665D02*
X614808Y124997D01*
X617474D01*
X618807Y123665D01*
Y118333D01*
X617474Y117000D01*
X614808D01*
X613475Y118333D01*
Y123665D01*
X626805Y117000D02*
X621473D01*
X626805Y122332D01*
Y123665D01*
X625472Y124997D01*
X622806D01*
X621473Y123665D01*
X634802Y124997D02*
X629470D01*
Y120999D01*
X632136Y122332D01*
X633469D01*
X634802Y120999D01*
Y118333D01*
X633469Y117000D01*
X630803D01*
X629470Y118333D01*
X637468Y117000D02*
Y122332D01*
X638801D01*
X640134Y120999D01*
Y117000D01*
Y120999D01*
X641467Y122332D01*
X642799Y120999D01*
Y117000D01*
X645465D02*
Y122332D01*
X646798D01*
X648131Y120999D01*
Y117000D01*
Y120999D01*
X649464Y122332D01*
X650797Y120999D01*
Y117000D01*
X692123Y155665D02*
X690790Y156997D01*
X688125D01*
X686792Y155665D01*
Y150333D01*
X688125Y149000D01*
X690790D01*
X692123Y150333D01*
X696122Y149000D02*
X698788D01*
X700121Y150333D01*
Y152999D01*
X698788Y154332D01*
X696122D01*
X694789Y152999D01*
Y150333D01*
X696122Y149000D01*
X702786D02*
Y154332D01*
X706785D01*
X708118Y152999D01*
Y149000D01*
X710784D02*
X714783D01*
X716115Y150333D01*
X714783Y151666D01*
X712117D01*
X710784Y152999D01*
X712117Y154332D01*
X716115D01*
X720114Y155665D02*
Y154332D01*
X718781D01*
X721447D01*
X720114D01*
Y150333D01*
X721447Y149000D01*
X726779Y154332D02*
X729445D01*
X730778Y152999D01*
Y149000D01*
X726779D01*
X725446Y150333D01*
X726779Y151666D01*
X730778D01*
X733443Y149000D02*
Y154332D01*
X737442D01*
X738775Y152999D01*
Y149000D01*
X742774Y155665D02*
Y154332D01*
X741441D01*
X744107D01*
X742774D01*
Y150333D01*
X744107Y149000D01*
X690790Y21000D02*
Y28997D01*
X686792Y24999D01*
X692123D01*
X690790Y69000D02*
Y76997D01*
X686792Y72999D01*
X692123D01*
X694789Y69000D02*
Y70333D01*
X696122D01*
Y69000D01*
X694789D01*
X706785Y76997D02*
X704119Y75665D01*
X701454Y72999D01*
Y70333D01*
X702786Y69000D01*
X705452D01*
X706785Y70333D01*
Y71666D01*
X705452Y72999D01*
X701454D01*
X690790Y117000D02*
Y124997D01*
X686792Y120999D01*
X692123D01*
X764107Y156997D02*
Y149000D01*
X768105D01*
X769438Y150333D01*
Y151666D01*
X768105Y152999D01*
X764107D01*
X768105D01*
X769438Y154332D01*
Y155665D01*
X768105Y156997D01*
X764107D01*
X773437Y149000D02*
X776103D01*
X777436Y150333D01*
Y152999D01*
X776103Y154332D01*
X773437D01*
X772104Y152999D01*
Y150333D01*
X773437Y149000D01*
X781434Y154332D02*
X784100D01*
X785433Y152999D01*
Y149000D01*
X781434D01*
X780101Y150333D01*
X781434Y151666D01*
X785433D01*
X788099Y154332D02*
Y149000D01*
Y151666D01*
X789432Y152999D01*
X790765Y154332D01*
X792097D01*
X801428Y156997D02*
Y149000D01*
X797429D01*
X796096Y150333D01*
Y152999D01*
X797429Y154332D01*
X801428D01*
X812091Y156997D02*
Y149000D01*
X817423D01*
X821421Y154332D02*
X824087D01*
X825420Y152999D01*
Y149000D01*
X821421D01*
X820088Y150333D01*
X821421Y151666D01*
X825420D01*
X828086Y154332D02*
Y150333D01*
X829419Y149000D01*
X833418D01*
Y147667D01*
X832085Y146334D01*
X830752D01*
X833418Y149000D02*
Y154332D01*
X840082Y149000D02*
X837416D01*
X836083Y150333D01*
Y152999D01*
X837416Y154332D01*
X840082D01*
X841415Y152999D01*
Y151666D01*
X836083D01*
X844081Y154332D02*
Y149000D01*
Y151666D01*
X845414Y152999D01*
X846747Y154332D01*
X848079D01*
X865407Y155665D02*
X864074Y156997D01*
X861408D01*
X860076Y155665D01*
Y154332D01*
X861408Y152999D01*
X864074D01*
X865407Y151666D01*
Y150333D01*
X864074Y149000D01*
X861408D01*
X860076Y150333D01*
X869406Y155665D02*
Y154332D01*
X868073D01*
X870739D01*
X869406D01*
Y150333D01*
X870739Y149000D01*
X876070Y154332D02*
X878736D01*
X880069Y152999D01*
Y149000D01*
X876070D01*
X874737Y150333D01*
X876070Y151666D01*
X880069D01*
X888066Y154332D02*
X884068D01*
X882735Y152999D01*
Y150333D01*
X884068Y149000D01*
X888066D01*
X890732D02*
Y156997D01*
Y151666D02*
X894731Y154332D01*
X890732Y151666D02*
X894731Y149000D01*
D47*
X272896Y145000D02*
X904731D01*
X272896Y161000D02*
X904731D01*
X272896Y1000D02*
Y161000D01*
Y1000D02*
X328885D01*
X272896Y17000D02*
X328885D01*
X272896Y33000D02*
X328885D01*
X272896Y49000D02*
X328885D01*
X272896Y65000D02*
X328885D01*
X272896Y81000D02*
X328885D01*
X272896Y97000D02*
X328885D01*
X272896Y113000D02*
X328885D01*
X272896Y129000D02*
X328885D01*
Y1000D02*
Y161000D01*
Y1000D02*
X507500D01*
X328885Y17000D02*
X507500D01*
X328885Y33000D02*
X507500D01*
X328885Y49000D02*
X507500D01*
X328885Y65000D02*
X507500D01*
X328885Y81000D02*
X507500D01*
X328885Y97000D02*
X507500D01*
X328885Y113000D02*
X507500D01*
X328885Y129000D02*
X507500D01*
Y1000D02*
Y161000D01*
Y1000D02*
X588814D01*
X507500Y17000D02*
X588814D01*
X507500Y33000D02*
X588814D01*
X507500Y49000D02*
X588814D01*
X507500Y65000D02*
X588814D01*
X507500Y81000D02*
X588814D01*
X507500Y97000D02*
X588814D01*
X507500Y113000D02*
X588814D01*
X507500Y129000D02*
X588814D01*
Y1000D02*
Y161000D01*
Y1000D02*
X676792D01*
X588814Y17000D02*
X676792D01*
X588814Y33000D02*
X676792D01*
X588814Y49000D02*
X676792D01*
X588814Y65000D02*
X676792D01*
X588814Y81000D02*
X676792D01*
X588814Y97000D02*
X676792D01*
X588814Y113000D02*
X676792D01*
X588814Y129000D02*
X676792D01*
Y1000D02*
Y161000D01*
Y1000D02*
X754107D01*
X676792Y17000D02*
X754107D01*
X676792Y33000D02*
X754107D01*
X676792Y49000D02*
X754107D01*
X676792Y65000D02*
X754107D01*
X676792Y81000D02*
X754107D01*
X676792Y97000D02*
X754107D01*
X676792Y113000D02*
X754107D01*
X676792Y129000D02*
X754107D01*
Y1000D02*
Y161000D01*
Y1000D02*
X904731D01*
X754107Y17000D02*
X904731D01*
X754107Y33000D02*
X904731D01*
X754107Y49000D02*
X904731D01*
X754107Y65000D02*
X904731D01*
X754107Y81000D02*
X904731D01*
X754107Y97000D02*
X904731D01*
X754107Y113000D02*
X904731D01*
X754107Y129000D02*
X904731D01*
Y1000D02*
Y161000D01*
D48*
X896731Y1000D02*
X904731Y9000D01*
X888731Y1000D02*
X904731Y17000D01*
X880731Y1000D02*
X896731Y17000D01*
X872731Y1000D02*
X888731Y17000D01*
X864731Y1000D02*
X880731Y17000D01*
X856731Y1000D02*
X872731Y17000D01*
X848731Y1000D02*
X864731Y17000D01*
X840731Y1000D02*
X856731Y17000D01*
X832731Y1000D02*
X848731Y17000D01*
X824731Y1000D02*
X840731Y17000D01*
X816731Y1000D02*
X832731Y17000D01*
X808731Y1000D02*
X824731Y17000D01*
X800731Y1000D02*
X816731Y17000D01*
X792731Y1000D02*
X808731Y17000D01*
X784731Y1000D02*
X800731Y17000D01*
X776731Y1000D02*
X792731Y17000D01*
X768731Y1000D02*
X784731Y17000D01*
X760731Y1000D02*
X776731Y17000D01*
X754107Y2376D02*
X768731Y17000D01*
X754107Y10376D02*
X760731Y17000D01*
X896731D02*
X904731Y25000D01*
X888731Y17000D02*
X904731Y33000D01*
X880731Y17000D02*
X896731Y33000D01*
X872731Y17000D02*
X888731Y33000D01*
X864731Y17000D02*
X880731Y33000D01*
X856731Y17000D02*
X872731Y33000D01*
X848731Y17000D02*
X864731Y33000D01*
X840731Y17000D02*
X856731Y33000D01*
X832731Y17000D02*
X848731Y33000D01*
X824731Y17000D02*
X840731Y33000D01*
X816731Y17000D02*
X832731Y33000D01*
X808731Y17000D02*
X824731Y33000D01*
X800731Y17000D02*
X816731Y33000D01*
X792731Y17000D02*
X808731Y33000D01*
X784731Y17000D02*
X800731Y33000D01*
X776731Y17000D02*
X792731Y33000D01*
X768731Y17000D02*
X784731Y33000D01*
X760731Y17000D02*
X776731Y33000D01*
X754107Y18376D02*
X768731Y33000D01*
X754107Y26376D02*
X760731Y33000D01*
X896731D02*
X904731Y41000D01*
X888731Y33000D02*
X904731Y49000D01*
X880731Y33000D02*
X896731Y49000D01*
X872731Y33000D02*
X888731Y49000D01*
X864731Y33000D02*
X880731Y49000D01*
X856731Y33000D02*
X872731Y49000D01*
X848731Y33000D02*
X864731Y49000D01*
X840731Y33000D02*
X856731Y49000D01*
X832731Y33000D02*
X848731Y49000D01*
X824731Y33000D02*
X840731Y49000D01*
X816731Y33000D02*
X832731Y49000D01*
X808731Y33000D02*
X824731Y49000D01*
X800731Y33000D02*
X816731Y49000D01*
X792731Y33000D02*
X808731Y49000D01*
X784731Y33000D02*
X800731Y49000D01*
X776731Y33000D02*
X792731Y49000D01*
X768731Y33000D02*
X784731Y49000D01*
X760731Y33000D02*
X776731Y49000D01*
X754107Y34376D02*
X768731Y49000D01*
X754107Y42376D02*
X760731Y49000D01*
X896731D02*
X904731Y57000D01*
X888731Y49000D02*
X904731Y65000D01*
X880731Y49000D02*
X896731Y65000D01*
X872731Y49000D02*
X888731Y65000D01*
X864731Y49000D02*
X880731Y65000D01*
X856731Y49000D02*
X872731Y65000D01*
X848731Y49000D02*
X864731Y65000D01*
X840731Y49000D02*
X856731Y65000D01*
X832731Y49000D02*
X848731Y65000D01*
X824731Y49000D02*
X840731Y65000D01*
X816731Y49000D02*
X832731Y65000D01*
X808731Y49000D02*
X824731Y65000D01*
X800731Y49000D02*
X816731Y65000D01*
X792731Y49000D02*
X808731Y65000D01*
X784731Y49000D02*
X800731Y65000D01*
X776731Y49000D02*
X792731Y65000D01*
X768731Y49000D02*
X784731Y65000D01*
X760731Y49000D02*
X776731Y65000D01*
X754107Y50376D02*
X768731Y65000D01*
X754107Y58376D02*
X760731Y65000D01*
X896731D02*
X904731Y73000D01*
X888731Y65000D02*
X904731Y81000D01*
X880731Y65000D02*
X896731Y81000D01*
X872731Y65000D02*
X888731Y81000D01*
X864731Y65000D02*
X880731Y81000D01*
X856731Y65000D02*
X872731Y81000D01*
X848731Y65000D02*
X864731Y81000D01*
X840731Y65000D02*
X856731Y81000D01*
X832731Y65000D02*
X848731Y81000D01*
X824731Y65000D02*
X840731Y81000D01*
X816731Y65000D02*
X832731Y81000D01*
X808731Y65000D02*
X824731Y81000D01*
X800731Y65000D02*
X816731Y81000D01*
X792731Y65000D02*
X808731Y81000D01*
X784731Y65000D02*
X800731Y81000D01*
X776731Y65000D02*
X792731Y81000D01*
X768731Y65000D02*
X784731Y81000D01*
X760731Y65000D02*
X776731Y81000D01*
X754107Y66376D02*
X768731Y81000D01*
X754107Y74376D02*
X760731Y81000D01*
X896731D02*
X904731Y89000D01*
X888731Y81000D02*
X904731Y97000D01*
X880731Y81000D02*
X896731Y97000D01*
X872731Y81000D02*
X888731Y97000D01*
X864731Y81000D02*
X880731Y97000D01*
X856731Y81000D02*
X872731Y97000D01*
X848731Y81000D02*
X864731Y97000D01*
X840731Y81000D02*
X856731Y97000D01*
X832731Y81000D02*
X848731Y97000D01*
X824731Y81000D02*
X840731Y97000D01*
X816731Y81000D02*
X832731Y97000D01*
X808731Y81000D02*
X824731Y97000D01*
X800731Y81000D02*
X816731Y97000D01*
X792731Y81000D02*
X808731Y97000D01*
X784731Y81000D02*
X800731Y97000D01*
X776731Y81000D02*
X792731Y97000D01*
X768731Y81000D02*
X784731Y97000D01*
X760731Y81000D02*
X776731Y97000D01*
X754107Y82376D02*
X768731Y97000D01*
X754107Y90376D02*
X760731Y97000D01*
X896731D02*
X904731Y105000D01*
X888731Y97000D02*
X904731Y113000D01*
X880731Y97000D02*
X896731Y113000D01*
X872731Y97000D02*
X888731Y113000D01*
X864731Y97000D02*
X880731Y113000D01*
X856731Y97000D02*
X872731Y113000D01*
X848731Y97000D02*
X864731Y113000D01*
X840731Y97000D02*
X856731Y113000D01*
X832731Y97000D02*
X848731Y113000D01*
X824731Y97000D02*
X840731Y113000D01*
X816731Y97000D02*
X832731Y113000D01*
X808731Y97000D02*
X824731Y113000D01*
X800731Y97000D02*
X816731Y113000D01*
X792731Y97000D02*
X808731Y113000D01*
X784731Y97000D02*
X800731Y113000D01*
X776731Y97000D02*
X792731Y113000D01*
X768731Y97000D02*
X784731Y113000D01*
X760731Y97000D02*
X776731Y113000D01*
X754107Y98376D02*
X768731Y113000D01*
X754107Y106376D02*
X760731Y113000D01*
X896731D02*
X904731Y121000D01*
X888731Y113000D02*
X904731Y129000D01*
X880731Y113000D02*
X896731Y129000D01*
X872731Y113000D02*
X888731Y129000D01*
X864731Y113000D02*
X880731Y129000D01*
X856731Y113000D02*
X872731Y129000D01*
X848731Y113000D02*
X864731Y129000D01*
X840731Y113000D02*
X856731Y129000D01*
X832731Y113000D02*
X848731Y129000D01*
X824731Y113000D02*
X840731Y129000D01*
X816731Y113000D02*
X832731Y129000D01*
X808731Y113000D02*
X824731Y129000D01*
X800731Y113000D02*
X816731Y129000D01*
X792731Y113000D02*
X808731Y129000D01*
X784731Y113000D02*
X800731Y129000D01*
X776731Y113000D02*
X792731Y129000D01*
X768731Y113000D02*
X784731Y129000D01*
X760731Y113000D02*
X776731Y129000D01*
X754107Y114376D02*
X768731Y129000D01*
X754107Y122376D02*
X760731Y129000D01*
X896731D02*
X904731Y137000D01*
X888731Y129000D02*
X904731Y145000D01*
X880731Y129000D02*
X896731Y145000D01*
X872731Y129000D02*
X888731Y145000D01*
X864731Y129000D02*
X880731Y145000D01*
X856731Y129000D02*
X872731Y145000D01*
X848731Y129000D02*
X864731Y145000D01*
X840731Y129000D02*
X856731Y145000D01*
X832731Y129000D02*
X848731Y145000D01*
X824731Y129000D02*
X840731Y145000D01*
X816731Y129000D02*
X832731Y145000D01*
X808731Y129000D02*
X824731Y145000D01*
X800731Y129000D02*
X816731Y145000D01*
X792731Y129000D02*
X808731Y145000D01*
X784731Y129000D02*
X800731Y145000D01*
X776731Y129000D02*
X792731Y145000D01*
X768731Y129000D02*
X784731Y145000D01*
X760731Y129000D02*
X776731Y145000D01*
X754107Y130376D02*
X768731Y145000D01*
X754107Y138376D02*
X760731Y145000D01*
M02*
