G04*
G04 #@! TF.GenerationSoftware,Altium Limited,Altium Designer,22.2.1 (43)*
G04*
G04 Layer_Color=65535*
%FSLAX44Y44*%
%MOMM*%
G71*
G04*
G04 #@! TF.SameCoordinates,55AAE711-CEB4-47FC-94B9-92884521197F*
G04*
G04*
G04 #@! TF.FilePolarity,Positive*
G04*
G01*
G75*
%ADD10C,0.2540*%
%ADD11C,0.2000*%
D10*
X65000Y105000D02*
G03*
X65000Y105000I-3000J0D01*
G01*
X70000Y122000D02*
G03*
X70000Y122000I-1000J0D01*
G01*
X95000Y45500D02*
G03*
X95000Y45500I-1000J0D01*
G01*
X47000Y27500D02*
G03*
X47000Y27500I-2000J0D01*
G01*
X7000Y28000D02*
X11500Y22000D01*
X16000Y28000D01*
X7000D02*
X16000D01*
X140500Y130000D02*
X145000Y124000D01*
X136000D02*
X140500Y130000D01*
X136000Y124000D02*
X145000D01*
X39000Y91000D02*
Y112000D01*
Y91000D02*
X69000D01*
X39000Y112000D02*
X69000D01*
Y91000D02*
Y112000D01*
X75000Y54500D02*
Y57500D01*
X72000D02*
X75000D01*
X72000Y27500D02*
X75000D01*
Y30500D01*
X45000Y57500D02*
X48000D01*
X45000Y54500D02*
Y57500D01*
X111500Y82500D02*
X114500D01*
Y85500D01*
Y109500D02*
Y112500D01*
X111500D02*
X114500D01*
X84500D02*
X87500D01*
X84500Y109500D02*
Y112500D01*
X79540Y121538D02*
Y117539D01*
X81539Y115540D01*
X83539Y117539D01*
Y121538D01*
X85538Y115540D02*
X87537D01*
X86538D01*
Y121538D01*
X85538Y120538D01*
X79540Y124039D02*
Y128038D01*
X81539Y130037D01*
X83539Y128038D01*
Y124039D01*
Y127038D01*
X79540D01*
X85538Y124039D02*
Y128038D01*
X88537D01*
X89537Y127038D01*
Y124039D01*
X93535Y122040D02*
X94535D01*
X95535Y123040D01*
Y128038D01*
X92536D01*
X91536Y127038D01*
Y125039D01*
X92536Y124039D01*
X95535D01*
X97534D02*
X99534D01*
X98534D01*
Y130037D01*
X97534D01*
X105532Y124039D02*
X103532D01*
X102533Y125039D01*
Y127038D01*
X103532Y128038D01*
X105532D01*
X106531Y127038D01*
Y126039D01*
X102533D01*
X108531Y124039D02*
Y130037D01*
X110530Y128038D01*
X112529Y130037D01*
Y124039D01*
X115528D02*
X117528D01*
X118527Y125039D01*
Y127038D01*
X117528Y128038D01*
X115528D01*
X114529Y127038D01*
Y125039D01*
X115528Y124039D01*
X124525Y130037D02*
Y124039D01*
X121526D01*
X120527Y125039D01*
Y127038D01*
X121526Y128038D01*
X124525D01*
D11*
X86500Y82500D02*
G03*
X86500Y82500I-2000J0D01*
G01*
M02*
