G04*
G04 #@! TF.GenerationSoftware,Altium Limited,Altium Designer,22.2.1 (43)*
G04*
G04 Layer_Color=8388736*
%FSLAX44Y44*%
%MOMM*%
G71*
G04*
G04 #@! TF.SameCoordinates,55AAE711-CEB4-47FC-94B9-92884521197F*
G04*
G04*
G04 #@! TF.FilePolarity,Negative*
G04*
G01*
G75*
%ADD25R,2.9100X1.6100*%
%ADD26R,0.4100X1.5100*%
%ADD27R,0.5600X1.7100*%
%ADD28R,0.8600X0.4100*%
%ADD29R,1.9100X1.9100*%
%ADD30R,0.9100X0.3100*%
%ADD31R,0.3100X0.9100*%
%ADD32R,0.5600X0.6100*%
%ADD33R,1.6100X2.1100*%
%ADD34R,0.6500X0.6900*%
%ADD35R,0.9600X1.0100*%
%ADD36R,0.3500X0.9600*%
%ADD37R,0.9600X0.3500*%
%ADD38R,0.6100X0.5600*%
%ADD39C,0.4100*%
%ADD40C,0.7100*%
D25*
X14000Y12500D02*
D03*
Y37900D02*
D03*
Y63300D02*
D03*
Y88700D02*
D03*
Y114100D02*
D03*
Y139500D02*
D03*
X138000D02*
D03*
Y114100D02*
D03*
Y88700D02*
D03*
Y63300D02*
D03*
Y37900D02*
D03*
Y12500D02*
D03*
D26*
X64000Y123000D02*
D03*
X59000D02*
D03*
X54000D02*
D03*
X49000D02*
D03*
X44000D02*
D03*
Y79000D02*
D03*
X49000D02*
D03*
X54000D02*
D03*
X59000D02*
D03*
X64000D02*
D03*
D27*
X104000Y33500D02*
D03*
D28*
X114250Y41000D02*
D03*
Y36000D02*
D03*
Y31000D02*
D03*
Y26000D02*
D03*
X93750D02*
D03*
Y31000D02*
D03*
Y36000D02*
D03*
Y41000D02*
D03*
D29*
X60000Y42500D02*
D03*
X99500Y97500D02*
D03*
D30*
X45000Y34500D02*
D03*
Y38500D02*
D03*
Y42500D02*
D03*
Y46500D02*
D03*
Y50500D02*
D03*
X75000D02*
D03*
Y46500D02*
D03*
Y42500D02*
D03*
Y38500D02*
D03*
Y34500D02*
D03*
D31*
X52000Y57500D02*
D03*
X56000D02*
D03*
X60000D02*
D03*
X64000D02*
D03*
X68000D02*
D03*
Y27500D02*
D03*
X64000D02*
D03*
X60000D02*
D03*
X56000D02*
D03*
X52000D02*
D03*
D32*
X36000Y72250D02*
D03*
Y79750D02*
D03*
Y25250D02*
D03*
Y32750D02*
D03*
X84500Y55250D02*
D03*
Y47750D02*
D03*
X116000Y56250D02*
D03*
Y48750D02*
D03*
D33*
X70500Y10000D02*
D03*
X40500D02*
D03*
X112500D02*
D03*
X93500D02*
D03*
X44000Y142000D02*
D03*
X83500D02*
D03*
X103500D02*
D03*
D34*
X36000Y48400D02*
D03*
Y40600D02*
D03*
Y64400D02*
D03*
Y56600D02*
D03*
X74500Y125400D02*
D03*
Y117600D02*
D03*
Y101600D02*
D03*
Y109400D02*
D03*
D35*
X102000Y70500D02*
D03*
X115000D02*
D03*
X94000Y52500D02*
D03*
X107000D02*
D03*
X91500Y70500D02*
D03*
X78500D02*
D03*
D36*
X92000Y81750D02*
D03*
X97000D02*
D03*
X102000D02*
D03*
X107000D02*
D03*
Y113250D02*
D03*
X102000D02*
D03*
X97000D02*
D03*
X92000D02*
D03*
D37*
X115250Y90000D02*
D03*
Y95000D02*
D03*
Y100000D02*
D03*
Y105000D02*
D03*
X83750D02*
D03*
Y100000D02*
D03*
Y95000D02*
D03*
Y90000D02*
D03*
D38*
X56750Y136000D02*
D03*
X64250D02*
D03*
D39*
X27000Y102000D02*
D03*
X18500Y101500D02*
D03*
X28500Y76000D02*
D03*
X34000Y95500D02*
D03*
X42500Y105000D02*
D03*
X54500Y94000D02*
D03*
X43500Y93000D02*
D03*
X71500Y81500D02*
D03*
X122450Y50154D02*
D03*
X43700Y55500D02*
D03*
X80500Y24500D02*
D03*
X74000Y29500D02*
D03*
X87000Y81000D02*
D03*
X128000Y76000D02*
D03*
X61000Y110500D02*
D03*
X24500Y51000D02*
D03*
X98544Y124794D02*
D03*
X113500Y80500D02*
D03*
X139500Y101500D02*
D03*
X104000Y34000D02*
D03*
X131000Y127000D02*
D03*
X119000Y135000D02*
D03*
X74500Y60500D02*
D03*
X43700Y63500D02*
D03*
X125500Y25000D02*
D03*
X108500Y61500D02*
D03*
X54000Y18500D02*
D03*
X58000Y11500D02*
D03*
X84000Y40000D02*
D03*
X60000Y42500D02*
D03*
X93000Y61500D02*
D03*
X19000Y25000D02*
D03*
X45000Y29500D02*
D03*
X27500Y25000D02*
D03*
X99500Y97500D02*
D03*
X107000Y123500D02*
D03*
D40*
X39000Y122000D02*
D03*
X70500Y134750D02*
D03*
X80500Y16000D02*
D03*
X79500Y113500D02*
D03*
X50806Y8000D02*
D03*
M02*
