G04*
G04 #@! TF.GenerationSoftware,Altium Limited,Altium Designer,22.2.1 (43)*
G04*
G04 Layer_Color=16711935*
%FSLAX44Y44*%
%MOMM*%
G71*
G04*
G04 #@! TF.SameCoordinates,55AAE711-CEB4-47FC-94B9-92884521197F*
G04*
G04*
G04 #@! TF.FilePolarity,Negative*
G04*
G01*
G75*
%ADD39C,0.4100*%
%ADD40C,0.7100*%
D39*
X27000Y102000D02*
D03*
X18500Y101500D02*
D03*
X28500Y76000D02*
D03*
X34000Y95500D02*
D03*
X42500Y105000D02*
D03*
X54500Y94000D02*
D03*
X43500Y93000D02*
D03*
X71500Y81500D02*
D03*
X122450Y50154D02*
D03*
X43700Y55500D02*
D03*
X80500Y24500D02*
D03*
X74000Y29500D02*
D03*
X87000Y81000D02*
D03*
X128000Y76000D02*
D03*
X61000Y110500D02*
D03*
X24500Y51000D02*
D03*
X98544Y124794D02*
D03*
X113500Y80500D02*
D03*
X139500Y101500D02*
D03*
X104000Y34000D02*
D03*
X131000Y127000D02*
D03*
X119000Y135000D02*
D03*
X74500Y60500D02*
D03*
X43700Y63500D02*
D03*
X125500Y25000D02*
D03*
X108500Y61500D02*
D03*
X54000Y18500D02*
D03*
X58000Y11500D02*
D03*
X84000Y40000D02*
D03*
X60000Y42500D02*
D03*
X93000Y61500D02*
D03*
X19000Y25000D02*
D03*
X45000Y29500D02*
D03*
X27500Y25000D02*
D03*
X99500Y97500D02*
D03*
X107000Y123500D02*
D03*
D40*
X39000Y122000D02*
D03*
X70500Y134750D02*
D03*
X80500Y16000D02*
D03*
X79500Y113500D02*
D03*
X50806Y8000D02*
D03*
M02*
