G04*
G04 #@! TF.GenerationSoftware,Altium Limited,Altium Designer,22.2.1 (43)*
G04*
G04 Layer_Color=8421504*
%FSLAX44Y44*%
%MOMM*%
G71*
G04*
G04 #@! TF.SameCoordinates,F780184D-461C-43E1-BE8C-576E9D5FD7FD*
G04*
G04*
G04 #@! TF.FilePolarity,Positive*
G04*
G01*
G75*
%ADD14R,2.0000X1.6000*%
%ADD15R,1.3000X1.6000*%
%ADD16R,0.8500X0.9000*%
%ADD17R,0.4500X0.5000*%
%ADD18R,0.8000X0.6000*%
%ADD19R,0.5000X0.4500*%
%ADD20R,0.8260X0.2160*%
%ADD21R,0.2160X0.8260*%
%ADD22R,0.8000X0.8000*%
%ADD23R,1.2700X0.7600*%
%ADD24R,0.6000X0.2400*%
%ADD25R,0.2400X0.6000*%
%ADD26R,1.5500X1.5500*%
%ADD27R,0.9000X0.8500*%
D14*
X49000Y13000D02*
D03*
X100000D02*
D03*
X151000D02*
D03*
D15*
X36500Y42000D02*
D03*
X61500D02*
D03*
X87500D02*
D03*
X112500D02*
D03*
X138500D02*
D03*
X163500D02*
D03*
D16*
X86500Y171000D02*
D03*
X73500D02*
D03*
X79000Y82000D02*
D03*
X66000D02*
D03*
X79000Y69500D02*
D03*
X66000D02*
D03*
X65000Y57000D02*
D03*
X78000D02*
D03*
D17*
X64750Y117750D02*
D03*
Y110250D02*
D03*
X21500Y65250D02*
D03*
Y57750D02*
D03*
X79750Y100750D02*
D03*
Y93250D02*
D03*
X7500Y149750D02*
D03*
Y142250D02*
D03*
D18*
X31000Y70000D02*
D03*
X53000Y79500D02*
D03*
Y60500D02*
D03*
D19*
X171750Y152500D02*
D03*
X164250D02*
D03*
X72000Y101000D02*
D03*
X64500D02*
D03*
X72500Y109500D02*
D03*
X80000D02*
D03*
X72000Y92500D02*
D03*
X64500D02*
D03*
X72750Y143500D02*
D03*
X80250D02*
D03*
X72750Y135000D02*
D03*
X80250D02*
D03*
X89250Y152000D02*
D03*
X81750D02*
D03*
X80000Y118000D02*
D03*
X72500D02*
D03*
Y126500D02*
D03*
X80000D02*
D03*
D20*
X25750Y158000D02*
D03*
Y153000D02*
D03*
Y148000D02*
D03*
Y143000D02*
D03*
X57250D02*
D03*
Y148000D02*
D03*
Y153000D02*
D03*
Y158000D02*
D03*
D21*
X34000Y134750D02*
D03*
X39000D02*
D03*
X44000D02*
D03*
X49000D02*
D03*
Y166250D02*
D03*
X44000D02*
D03*
X39000D02*
D03*
X34000D02*
D03*
D22*
X41500Y150500D02*
D03*
D23*
X92400Y131250D02*
D03*
X168600D02*
D03*
X92400Y118550D02*
D03*
X168600D02*
D03*
X92400Y105850D02*
D03*
X168600D02*
D03*
X92400Y93150D02*
D03*
X168600D02*
D03*
X92400Y80450D02*
D03*
X168600D02*
D03*
X92400Y67750D02*
D03*
X168600D02*
D03*
D24*
X24500Y96500D02*
D03*
Y101500D02*
D03*
Y106500D02*
D03*
Y111500D02*
D03*
X52500Y111500D02*
D03*
Y106500D02*
D03*
Y101500D02*
D03*
Y96500D02*
D03*
D25*
X46000Y90000D02*
D03*
X41000D02*
D03*
X36000D02*
D03*
X31000D02*
D03*
X31000Y118000D02*
D03*
X36000D02*
D03*
X41000D02*
D03*
X46000D02*
D03*
D26*
X38500Y104000D02*
D03*
D27*
X9500Y130500D02*
D03*
Y117500D02*
D03*
M02*
