G04*
G04 #@! TF.GenerationSoftware,Altium Limited,Altium Designer,22.2.1 (43)*
G04*
G04 Layer_Color=65535*
%FSLAX44Y44*%
%MOMM*%
G71*
G04*
G04 #@! TF.SameCoordinates,F780184D-461C-43E1-BE8C-576E9D5FD7FD*
G04*
G04*
G04 #@! TF.FilePolarity,Positive*
G04*
G01*
G75*
%ADD10C,0.2500*%
%ADD11C,0.2000*%
%ADD12C,0.2540*%
%ADD13R,0.5000X0.6000*%
D10*
X54250Y52000D02*
G03*
X54250Y52000I-1250J0D01*
G01*
D11*
X28500Y165500D02*
G03*
X28500Y165500I-2000J0D01*
G01*
D12*
X26500Y119000D02*
G03*
X26500Y119000I-3000J0D01*
G01*
X62000Y10000D02*
X73000D01*
X25000D02*
X36000D01*
X73000D02*
Y45000D01*
X25000Y10000D02*
Y45000D01*
X35000Y77000D02*
Y85000D01*
X45000D01*
X35000Y55000D02*
Y63000D01*
Y55000D02*
X45000D01*
X26500Y135500D02*
Y138500D01*
Y135500D02*
X29500D01*
X53500D02*
X56500D01*
Y138500D01*
Y162500D02*
Y165500D01*
X53500D02*
X56500D01*
X116500Y70750D02*
X144500D01*
X116500Y83450D02*
X144500D01*
X116500Y77450D02*
X144500D01*
Y83450D01*
X116500Y96150D02*
X144500D01*
X116500Y90150D02*
X144500D01*
Y96150D01*
X116500Y108850D02*
X144500D01*
X116500Y102850D02*
X144500D01*
X116500Y115550D02*
X144500D01*
Y102850D02*
Y108850D01*
X157500Y53550D02*
Y145450D01*
X144500Y115550D02*
Y121550D01*
X116500Y77450D02*
Y83450D01*
Y90150D02*
Y96150D01*
Y64750D02*
Y70750D01*
Y102850D02*
Y108850D01*
Y115550D02*
Y121550D01*
X103500Y53550D02*
Y145450D01*
X116500Y134250D02*
X144500D01*
X116500Y128250D02*
X144500D01*
Y134250D01*
X116500Y121550D02*
X144500D01*
X116500Y128250D02*
Y134250D01*
X103500Y145450D02*
X157500D01*
X116500Y64750D02*
X144500D01*
Y70750D01*
X103500Y53550D02*
X157500D01*
X50500Y119000D02*
X53500D01*
Y116000D02*
Y119000D01*
Y89000D02*
Y92000D01*
X50500Y89000D02*
X53500D01*
X23500D02*
X26500D01*
X23500D02*
Y92000D01*
X113000Y10000D02*
X124000D01*
X76000D02*
X87000D01*
X124000D02*
Y45000D01*
X76000Y10000D02*
Y45000D01*
X164000Y10000D02*
X175000D01*
X127000D02*
X138000D01*
X175000D02*
Y45000D01*
X127000Y10000D02*
Y45000D01*
X154538Y127461D02*
Y129794D01*
X153371Y130960D01*
X148706D01*
X147540Y129794D01*
Y127461D01*
X148706Y126295D01*
X153371D01*
X154538Y127461D01*
X147540Y123962D02*
X154538D01*
X147540Y119297D01*
X154538D01*
X106540Y132460D02*
Y130127D01*
Y131294D01*
X113538D01*
X112372Y132460D01*
X95040Y156538D02*
Y150540D01*
X97039Y152539D01*
X99039Y150540D01*
Y156538D01*
X102038Y154539D02*
X104037D01*
X105037Y153539D01*
Y150540D01*
X102038D01*
X101038Y151540D01*
X102038Y152539D01*
X105037D01*
X107036Y150540D02*
X109036D01*
X108036D01*
Y156538D01*
X107036D01*
X112035Y150540D02*
Y156538D01*
Y152539D02*
X115034Y154539D01*
X112035Y152539D02*
X115034Y150540D01*
X118033D02*
Y156538D01*
X120032Y154539D01*
X122031Y156538D01*
Y150540D01*
X125030D02*
X127030D01*
X128029Y151540D01*
Y153539D01*
X127030Y154539D01*
X125030D01*
X124031Y153539D01*
Y151540D01*
X125030Y150540D01*
X134027Y156538D02*
Y150540D01*
X131028D01*
X130029Y151540D01*
Y153539D01*
X131028Y154539D01*
X134027D01*
X147039Y155538D02*
X146039Y156538D01*
X144040D01*
X143040Y155538D01*
Y151540D01*
X144040Y150540D01*
X146039D01*
X147039Y151540D01*
X149038Y155538D02*
X150038Y156538D01*
X152037D01*
X153037Y155538D01*
Y151540D01*
X152037Y150540D01*
X150038D01*
X149038Y151540D01*
Y155538D01*
X9502Y9001D02*
Y14999D01*
X12501D01*
X13500Y13999D01*
Y12000D01*
X12501Y11000D01*
X9502D01*
X11501D02*
X13500Y9001D01*
X19498Y13999D02*
X18499Y14999D01*
X16499D01*
X15500Y13999D01*
Y10001D01*
X16499Y9001D01*
X18499D01*
X19498Y10001D01*
X165502Y53501D02*
Y59499D01*
X168501D01*
X169500Y58499D01*
Y56500D01*
X168501Y55500D01*
X165502D01*
X167501D02*
X169500Y53501D01*
X171500D02*
Y57500D01*
X173499Y59499D01*
X175498Y57500D01*
Y53501D01*
Y56500D01*
X171500D01*
X87502Y53501D02*
Y59499D01*
X90501D01*
X91500Y58499D01*
Y56500D01*
X90501Y55500D01*
X87502D01*
X89501D02*
X91500Y53501D01*
X93500Y59499D02*
Y53501D01*
X96499D01*
X97498Y54501D01*
Y55500D01*
X96499Y56500D01*
X93500D01*
X96499D01*
X97498Y57500D01*
Y58499D01*
X96499Y59499D01*
X93500D01*
D13*
X122001Y118550D02*
D03*
Y131250D02*
D03*
Y67750D02*
D03*
Y80450D02*
D03*
Y93150D02*
D03*
Y105850D02*
D03*
M02*
