G04*
G04 #@! TF.GenerationSoftware,Altium Limited,Altium Designer,22.2.1 (43)*
G04*
G04 Layer_Color=8388736*
%FSLAX44Y44*%
%MOMM*%
G71*
G04*
G04 #@! TF.SameCoordinates,612C7892-4D37-43AA-9E06-CC9A3CA42B8A*
G04*
G04*
G04 #@! TF.FilePolarity,Negative*
G04*
G01*
G75*
%ADD28R,1.4100X1.7100*%
%ADD29R,2.1100X1.7100*%
%ADD30R,0.8100X0.4100*%
%ADD31R,0.4100X0.8100*%
%ADD32R,1.8100X1.8100*%
%ADD33R,0.5600X0.6100*%
%ADD34R,0.6100X0.5600*%
%ADD35R,0.9100X0.7100*%
%ADD36R,0.9600X1.0100*%
%ADD37R,1.6100X2.1100*%
%ADD38R,0.9600X0.3500*%
%ADD39R,0.3500X0.9600*%
%ADD40R,1.9100X1.9100*%
%ADD41R,1.3800X0.8700*%
%ADD42R,1.0100X0.9600*%
%ADD43C,0.7100*%
D28*
X109500Y42000D02*
D03*
X84500D02*
D03*
X55500D02*
D03*
X30500D02*
D03*
X138500D02*
D03*
X163500D02*
D03*
D29*
X97000Y13000D02*
D03*
X43000D02*
D03*
X151000D02*
D03*
D30*
X27500Y68000D02*
D03*
Y73000D02*
D03*
Y78000D02*
D03*
Y83000D02*
D03*
X55500D02*
D03*
Y78000D02*
D03*
Y73000D02*
D03*
Y68000D02*
D03*
D31*
X49000Y61500D02*
D03*
X44000D02*
D03*
X39000D02*
D03*
X34000D02*
D03*
Y89500D02*
D03*
X39000D02*
D03*
X44000D02*
D03*
X49000D02*
D03*
D32*
X41500Y75500D02*
D03*
D33*
X24000Y97750D02*
D03*
Y105250D02*
D03*
X65500Y79750D02*
D03*
Y72250D02*
D03*
X81000Y63250D02*
D03*
Y55750D02*
D03*
X24000Y121750D02*
D03*
Y114250D02*
D03*
D34*
X80750Y143500D02*
D03*
X73250D02*
D03*
X95250Y152500D02*
D03*
X87750D02*
D03*
X72750Y63500D02*
D03*
X65250D02*
D03*
X73250Y72000D02*
D03*
X80750D02*
D03*
X72750Y55000D02*
D03*
X65250D02*
D03*
X73250Y135000D02*
D03*
X80750D02*
D03*
Y80500D02*
D03*
X73250D02*
D03*
X65250Y89000D02*
D03*
X72750D02*
D03*
X172250Y153500D02*
D03*
X164750D02*
D03*
D35*
X55500Y100500D02*
D03*
Y119500D02*
D03*
X33500Y110000D02*
D03*
D36*
X79500Y124500D02*
D03*
X66500D02*
D03*
X79500Y112000D02*
D03*
X66500D02*
D03*
Y99500D02*
D03*
X79500D02*
D03*
D37*
X7500Y48500D02*
D03*
Y131000D02*
D03*
X92500Y170000D02*
D03*
X117500D02*
D03*
X142500D02*
D03*
X167500D02*
D03*
X7500Y78000D02*
D03*
D38*
X23750Y154500D02*
D03*
Y149500D02*
D03*
Y144500D02*
D03*
Y139500D02*
D03*
X55250D02*
D03*
Y144500D02*
D03*
Y149500D02*
D03*
Y154500D02*
D03*
D39*
X32000Y131250D02*
D03*
X37000D02*
D03*
X42000D02*
D03*
X47000D02*
D03*
Y162750D02*
D03*
X42000D02*
D03*
X37000D02*
D03*
X32000D02*
D03*
D40*
X39500Y147000D02*
D03*
D41*
X92400Y131250D02*
D03*
X168600D02*
D03*
X92400Y118550D02*
D03*
X168600D02*
D03*
X92400Y105850D02*
D03*
X168600D02*
D03*
X92400Y93150D02*
D03*
X168600D02*
D03*
X92400Y80450D02*
D03*
X168600D02*
D03*
X92400Y67750D02*
D03*
X168600D02*
D03*
D42*
X9500Y114500D02*
D03*
Y101500D02*
D03*
D43*
X25500Y135000D02*
D03*
X81000Y68000D02*
D03*
X19156Y93500D02*
D03*
M02*
