G04*
G04 #@! TF.GenerationSoftware,Altium Limited,Altium Designer,22.2.1 (43)*
G04*
G04 Layer_Color=65535*
%FSLAX44Y44*%
%MOMM*%
G71*
G04*
G04 #@! TF.SameCoordinates,612C7892-4D37-43AA-9E06-CC9A3CA42B8A*
G04*
G04*
G04 #@! TF.FilePolarity,Positive*
G04*
G01*
G75*
%ADD10C,0.2000*%
%ADD11C,0.2500*%
%ADD12C,0.2540*%
%ADD13R,0.5000X0.6000*%
D10*
X28500Y90500D02*
G03*
X28500Y90500I-2000J0D01*
G01*
X26500Y162000D02*
G03*
X26500Y162000I-2000J0D01*
G01*
D11*
X56750Y92000D02*
G03*
X56750Y92000I-1250J0D01*
G01*
D12*
X73000Y10000D02*
Y45000D01*
X121000Y10000D02*
Y45000D01*
X73000Y10000D02*
X84000D01*
X110000D02*
X121000D01*
X26500Y60500D02*
X29500D01*
X26500D02*
Y63500D01*
X56500Y60500D02*
Y63500D01*
X53500Y60500D02*
X56500D01*
X53500Y90500D02*
X56500D01*
Y87500D02*
Y90500D01*
X37500Y95000D02*
X47500D01*
X37500D02*
Y103000D01*
Y125000D02*
X47500D01*
X37500Y117000D02*
Y125000D01*
X19000Y10000D02*
Y45000D01*
X67000Y10000D02*
Y45000D01*
X19000Y10000D02*
X30000D01*
X56000D02*
X67000D01*
X24500Y132000D02*
Y135000D01*
Y132000D02*
X27500D01*
X51500D02*
X54500D01*
Y135000D01*
Y159000D02*
Y162000D01*
X51500D02*
X54500D01*
X116500Y70750D02*
X144500D01*
X116500Y83450D02*
X144500D01*
X116500Y77450D02*
X144500D01*
Y83450D01*
X116500Y96150D02*
X144500D01*
X116500Y90150D02*
X144500D01*
Y96150D01*
X116500Y108850D02*
X144500D01*
X116500Y102850D02*
X144500D01*
X116500Y115550D02*
X144500D01*
Y102850D02*
Y108850D01*
X157500Y53550D02*
Y145450D01*
X144500Y115550D02*
Y121550D01*
X116500Y77450D02*
Y83450D01*
Y90150D02*
Y96150D01*
Y64750D02*
Y70750D01*
Y102850D02*
Y108850D01*
Y115550D02*
Y121550D01*
X103500Y53550D02*
Y145450D01*
X116500Y134250D02*
X144500D01*
X116500Y128250D02*
X144500D01*
Y134250D01*
X116500Y121550D02*
X144500D01*
X116500Y128250D02*
Y134250D01*
X103500Y145450D02*
X157500D01*
X116500Y64750D02*
X144500D01*
Y70750D01*
X103500Y53550D02*
X157500D01*
X164000Y10000D02*
X175000D01*
X127000D02*
X138000D01*
X175000D02*
Y45000D01*
X127000Y10000D02*
Y45000D01*
X154538Y127461D02*
Y129794D01*
X153371Y130960D01*
X148706D01*
X147540Y129794D01*
Y127461D01*
X148706Y126295D01*
X153371D01*
X154538Y127461D01*
X147540Y123962D02*
X154538D01*
X147540Y119297D01*
X154538D01*
X106540Y132460D02*
Y130127D01*
Y131294D01*
X113538D01*
X112372Y132460D01*
X17040Y175038D02*
Y169040D01*
X19039Y171039D01*
X21039Y169040D01*
Y175038D01*
X24038Y173039D02*
X26037D01*
X27037Y172039D01*
Y169040D01*
X24038D01*
X23038Y170040D01*
X24038Y171039D01*
X27037D01*
X29036Y169040D02*
X31035D01*
X30036D01*
Y175038D01*
X29036D01*
X34035Y169040D02*
Y175038D01*
Y171039D02*
X37034Y173039D01*
X34035Y171039D02*
X37034Y169040D01*
X40033D02*
Y175038D01*
X42032Y173039D01*
X44031Y175038D01*
Y169040D01*
X47030D02*
X49030D01*
X50029Y170040D01*
Y172039D01*
X49030Y173039D01*
X47030D01*
X46031Y172039D01*
Y170040D01*
X47030Y169040D01*
X56027Y175038D02*
Y169040D01*
X53028D01*
X52029Y170040D01*
Y172039D01*
X53028Y173039D01*
X56027D01*
X71539Y174038D02*
X70539Y175038D01*
X68540D01*
X67540Y174038D01*
Y170040D01*
X68540Y169040D01*
X70539D01*
X71539Y170040D01*
X73538Y174038D02*
X74538Y175038D01*
X76537D01*
X77537Y174038D01*
Y170040D01*
X76537Y169040D01*
X74538D01*
X73538Y170040D01*
Y174038D01*
X88002Y53501D02*
Y59499D01*
X91001D01*
X92000Y58499D01*
Y56500D01*
X91001Y55500D01*
X88002D01*
X90001D02*
X92000Y53501D01*
X97998Y58499D02*
X96999Y59499D01*
X94999D01*
X94000Y58499D01*
Y54501D01*
X94999Y53501D01*
X96999D01*
X97998Y54501D01*
X163002Y53501D02*
Y59499D01*
X166001D01*
X167000Y58499D01*
Y56500D01*
X166001Y55500D01*
X163002D01*
X165001D02*
X167000Y53501D01*
X169000D02*
Y57500D01*
X170999Y59499D01*
X172998Y57500D01*
Y53501D01*
Y56500D01*
X169000D01*
X13499Y20002D02*
X7501D01*
Y23001D01*
X8501Y24000D01*
X10500D01*
X11500Y23001D01*
Y20002D01*
Y22001D02*
X13499Y24000D01*
X7501Y26000D02*
X13499D01*
Y28999D01*
X12499Y29998D01*
X11500D01*
X10500Y28999D01*
Y26000D01*
Y28999D01*
X9500Y29998D01*
X8501D01*
X7501Y28999D01*
Y26000D01*
D13*
X122001Y118550D02*
D03*
Y131250D02*
D03*
Y67750D02*
D03*
Y80450D02*
D03*
Y93150D02*
D03*
Y105850D02*
D03*
M02*
