G04*
G04 #@! TF.GenerationSoftware,Altium Limited,Altium Designer,22.2.1 (43)*
G04*
G04 Layer_Color=15441517*
%FSLAX44Y44*%
%MOMM*%
G71*
G04*
G04 #@! TF.SameCoordinates,F780184D-461C-43E1-BE8C-576E9D5FD7FD*
G04*
G04*
G04 #@! TF.FilePolarity,Positive*
G04*
G01*
G75*
%ADD12C,0.2540*%
%ADD52C,0.1524*%
D12*
X204920Y15240D02*
X210000Y0D01*
X215080Y15240D01*
X210000Y180000D02*
X215080Y164760D01*
X204920D02*
X210000Y180000D01*
Y0D02*
Y60212D01*
Y111660D02*
Y180000D01*
X183540Y0D02*
X212540D01*
X183540Y180000D02*
X212540D01*
X0Y-15000D02*
X15240Y-9920D01*
X0Y-15000D02*
X15240Y-20080D01*
X164760D02*
X180000Y-15000D01*
X164760Y-9920D02*
X180000Y-15000D01*
X0D02*
X60212D01*
X111660D02*
X180000D01*
X0Y-17540D02*
Y-3540D01*
X180000Y-17540D02*
Y-3540D01*
D52*
X216522Y64276D02*
Y67609D01*
Y65943D01*
X206526D01*
X208192Y64276D01*
Y72607D02*
X206526Y74273D01*
Y77605D01*
X208192Y79271D01*
X209858D01*
X211524Y77605D01*
X213190Y79271D01*
X214856D01*
X216522Y77605D01*
Y74273D01*
X214856Y72607D01*
X213190D01*
X211524Y74273D01*
X209858Y72607D01*
X208192D01*
X211524Y74273D02*
Y77605D01*
X216522Y82604D02*
X214856D01*
Y84270D01*
X216522D01*
Y82604D01*
X208192Y90934D02*
X206526Y92600D01*
Y95933D01*
X208192Y97599D01*
X214856D01*
X216522Y95933D01*
Y92600D01*
X214856Y90934D01*
X208192D01*
Y100931D02*
X206526Y102597D01*
Y105930D01*
X208192Y107596D01*
X214856D01*
X216522Y105930D01*
Y102597D01*
X214856Y100931D01*
X208192D01*
X64276Y-21522D02*
X67609D01*
X65943D01*
Y-11526D01*
X64276Y-13192D01*
X72607D02*
X74273Y-11526D01*
X77605D01*
X79271Y-13192D01*
Y-14858D01*
X77605Y-16524D01*
X79271Y-18190D01*
Y-19856D01*
X77605Y-21522D01*
X74273D01*
X72607Y-19856D01*
Y-18190D01*
X74273Y-16524D01*
X72607Y-14858D01*
Y-13192D01*
X74273Y-16524D02*
X77605D01*
X82604Y-21522D02*
Y-19856D01*
X84270D01*
Y-21522D01*
X82604D01*
X90934Y-13192D02*
X92600Y-11526D01*
X95933D01*
X97599Y-13192D01*
Y-19856D01*
X95933Y-21522D01*
X92600D01*
X90934Y-19856D01*
Y-13192D01*
X100931D02*
X102597Y-11526D01*
X105930D01*
X107596Y-13192D01*
Y-19856D01*
X105930Y-21522D01*
X102597D01*
X100931Y-19856D01*
Y-13192D01*
M02*
