G04*
G04 #@! TF.GenerationSoftware,Altium Limited,Altium Designer,22.2.1 (43)*
G04*
G04 Layer_Physical_Order=2*
G04 Layer_Color=9720587*
%FSLAX44Y44*%
%MOMM*%
G71*
G04*
G04 #@! TF.SameCoordinates,F780184D-461C-43E1-BE8C-576E9D5FD7FD*
G04*
G04*
G04 #@! TF.FilePolarity,Positive*
G04*
G01*
G75*
%ADD10C,0.2500*%
%ADD51C,0.6000*%
G36*
X175000Y5000D02*
X5000D01*
Y34934D01*
X6173Y35419D01*
X28500Y13093D01*
Y11906D01*
X29337Y9884D01*
X30884Y8337D01*
X32906Y7500D01*
X35094D01*
X37115Y8337D01*
X38663Y9884D01*
X39500Y11906D01*
Y14094D01*
X38663Y16115D01*
X37115Y17663D01*
X35094Y18500D01*
X33907D01*
X9323Y43084D01*
Y70195D01*
X10593Y70721D01*
X25385Y55930D01*
Y54743D01*
X26222Y52722D01*
X27769Y51175D01*
X29790Y50337D01*
X31978D01*
X34000Y51175D01*
X35547Y52722D01*
X36384Y54743D01*
Y56177D01*
X44602D01*
X45128Y54907D01*
X44337Y54116D01*
X43500Y52094D01*
Y49906D01*
X44337Y47884D01*
X45884Y46337D01*
X47906Y45500D01*
X50094D01*
X52116Y46337D01*
X52955Y47177D01*
X56500D01*
X57963Y47468D01*
X59204Y48296D01*
X60084Y49177D01*
X120045D01*
X120885Y48337D01*
X122906Y47500D01*
X125094D01*
X127115Y48337D01*
X128663Y49885D01*
X129500Y51906D01*
Y54094D01*
X129163Y54907D01*
X130012Y56177D01*
X133000D01*
X134463Y56468D01*
X135704Y57296D01*
X152907Y74500D01*
X154094D01*
X156116Y75337D01*
X157663Y76884D01*
X158500Y78906D01*
Y81094D01*
X157663Y83116D01*
X156116Y84663D01*
X154094Y85500D01*
X151906D01*
X149885Y84663D01*
X148337Y83116D01*
X147500Y81094D01*
Y79907D01*
X131416Y63823D01*
X37584D01*
X23323Y78084D01*
Y83327D01*
X23406Y84500D01*
X25594D01*
X27615Y85337D01*
X28455Y86177D01*
X48545D01*
X49384Y85337D01*
X51406Y84500D01*
X53594D01*
X55616Y85337D01*
X57163Y86884D01*
X58000Y88906D01*
Y91094D01*
X57163Y93116D01*
X55616Y94663D01*
X53594Y95500D01*
X51406D01*
X49384Y94663D01*
X48545Y93823D01*
X28455D01*
X28323Y93955D01*
Y109949D01*
X29497Y110435D01*
X31635Y108296D01*
X32876Y107468D01*
X34339Y107177D01*
X58416D01*
X62796Y102796D01*
X64037Y101968D01*
X65500Y101677D01*
X76295D01*
X77134Y100837D01*
X79156Y100000D01*
X81344D01*
X82121Y100322D01*
X83177Y99616D01*
Y94584D01*
X67416Y78823D01*
X46955D01*
X46115Y79663D01*
X44094Y80500D01*
X41906D01*
X39885Y79663D01*
X38337Y78116D01*
X37500Y76094D01*
Y73906D01*
X38337Y71884D01*
X39885Y70337D01*
X41906Y69500D01*
X44094D01*
X46115Y70337D01*
X46955Y71177D01*
X69000D01*
X70463Y71468D01*
X71704Y72296D01*
X89704Y90296D01*
X90532Y91537D01*
X90823Y93000D01*
Y108000D01*
X90532Y109463D01*
X89704Y110704D01*
X85204Y115204D01*
X83963Y116032D01*
X82500Y116323D01*
X71084D01*
X64000Y123407D01*
Y124594D01*
X63782Y125121D01*
X64488Y126177D01*
X69406D01*
X70869Y126468D01*
X72110Y127296D01*
X82771Y137957D01*
X84016Y137710D01*
X84337Y136934D01*
X85177Y136095D01*
Y128500D01*
X85468Y127037D01*
X86296Y125796D01*
X99500Y112593D01*
Y111406D01*
X100337Y109384D01*
X101884Y107837D01*
X103906Y107000D01*
X106094D01*
X108116Y107837D01*
X109663Y109384D01*
X110500Y111406D01*
Y113594D01*
X109663Y115616D01*
X108116Y117163D01*
X106094Y118000D01*
X104907D01*
X92823Y130084D01*
Y136095D01*
X93663Y136934D01*
X94500Y138956D01*
Y139939D01*
X95556Y140645D01*
X95906Y140500D01*
X98094D01*
X100115Y141337D01*
X101663Y142885D01*
X102500Y144906D01*
Y147094D01*
X101663Y149115D01*
X100115Y150663D01*
X98094Y151500D01*
X95906D01*
X93884Y150663D01*
X93345Y150123D01*
X85706D01*
X84243Y149832D01*
X83002Y149004D01*
X67822Y133823D01*
X61987D01*
X61282Y134879D01*
X61500Y135406D01*
Y137594D01*
X60663Y139615D01*
X59116Y141163D01*
X57094Y142000D01*
X57066D01*
X56581Y143173D01*
X57456Y144049D01*
X61519D01*
X62359Y143210D01*
X64380Y142373D01*
X66568D01*
X68590Y143210D01*
X70137Y144757D01*
X70974Y146779D01*
Y148967D01*
X70137Y150988D01*
X68590Y152535D01*
X66568Y153373D01*
X64380D01*
X62359Y152535D01*
X61519Y151696D01*
X55873D01*
X54409Y151405D01*
X53169Y150576D01*
X48416Y145823D01*
X42000D01*
X40537Y145532D01*
X39296Y144704D01*
X31416Y136823D01*
X22512D01*
X21663Y138093D01*
X22000Y138906D01*
Y140093D01*
X31704Y149796D01*
X31704Y149796D01*
X36834Y154927D01*
X48136D01*
X49599Y155218D01*
X50840Y156046D01*
X53493Y158700D01*
X55094D01*
X57116Y159537D01*
X58663Y161084D01*
X59154Y162271D01*
X60652Y162569D01*
X60884Y162337D01*
X62906Y161500D01*
X65094D01*
X66304Y162001D01*
X67574Y161152D01*
Y160406D01*
X68411Y158385D01*
X69958Y156837D01*
X71980Y156000D01*
X74168D01*
X76189Y156837D01*
X77736Y158385D01*
X78574Y160406D01*
Y161593D01*
X79658Y162677D01*
X104416D01*
X121419Y145673D01*
X121048Y144248D01*
X119635Y143663D01*
X118087Y142115D01*
X117250Y140094D01*
Y137906D01*
X118087Y135885D01*
X119635Y134337D01*
X121656Y133500D01*
X123844D01*
X125865Y134337D01*
X126705Y135177D01*
X142000D01*
X143463Y135468D01*
X144704Y136296D01*
X155407Y147000D01*
X156594D01*
X158616Y147837D01*
X160163Y149384D01*
X161000Y151406D01*
Y153594D01*
X160163Y155616D01*
X158616Y157163D01*
X156594Y158000D01*
X154406D01*
X152385Y157163D01*
X150837Y155616D01*
X150000Y153594D01*
Y152407D01*
X141433Y143840D01*
X140357Y144560D01*
X140500Y144906D01*
Y147094D01*
X139663Y149115D01*
X138116Y150663D01*
X136094Y151500D01*
X134771D01*
X134500Y151906D01*
Y154094D01*
X133663Y156116D01*
X132115Y157663D01*
X130094Y158500D01*
X128907D01*
X113581Y173827D01*
X114066Y175000D01*
X175000D01*
Y5000D01*
D02*
G37*
%LPC*%
G36*
X108594Y137500D02*
X106406D01*
X104384Y136663D01*
X102837Y135115D01*
X102000Y133094D01*
Y130906D01*
X102837Y128884D01*
X104384Y127337D01*
X106406Y126500D01*
X107593D01*
X115796Y118296D01*
X117037Y117468D01*
X118500Y117177D01*
X152045D01*
X152885Y116337D01*
X154906Y115500D01*
X157094D01*
X159115Y116337D01*
X160663Y117885D01*
X161500Y119906D01*
Y122094D01*
X160663Y124115D01*
X159115Y125663D01*
X157094Y126500D01*
X154906D01*
X152885Y125663D01*
X152045Y124823D01*
X120084D01*
X113000Y131907D01*
Y133094D01*
X112163Y135115D01*
X110616Y136663D01*
X108594Y137500D01*
D02*
G37*
%LPD*%
D10*
X25000Y90000D02*
X52500D01*
X24750Y90250D02*
X25000Y90000D01*
X36000Y60000D02*
X133000D01*
X153000Y80000D01*
X58500Y53000D02*
X124000D01*
X56500Y51000D02*
X58500Y53000D01*
X49000Y51000D02*
X56500D01*
X22420Y122919D02*
Y125830D01*
X19000Y117500D02*
Y118447D01*
X15000Y122447D02*
Y130000D01*
X22420Y122919D02*
X34339Y111000D01*
X60000D01*
X15000Y122447D02*
X19000Y118447D01*
X24500Y90000D02*
Y112000D01*
X19000Y117500D02*
X24500Y112000D01*
X51000Y118000D02*
X51000Y118000D01*
X34000Y118000D02*
X51000D01*
X28000Y124000D02*
X34000Y118000D01*
X58500Y123500D02*
X69500Y112500D01*
X82500D01*
X51250Y127077D02*
X54173Y130000D01*
X69406D02*
X85706Y146300D01*
X54173Y130000D02*
X69406D01*
X43698Y136500D02*
X56000D01*
X36500Y129303D02*
X43698Y136500D01*
X36500Y125589D02*
Y129303D01*
X35875Y124964D02*
X36500Y125589D01*
X45077Y127077D02*
X51250D01*
X44500Y126500D02*
X45077Y127077D01*
X38834Y174375D02*
X39460Y175000D01*
X107000D01*
X48950Y170450D02*
X59603D01*
X34915Y167869D02*
X46369D01*
X48950Y170450D01*
X30284Y172500D02*
X34915Y167869D01*
X35250Y158750D02*
X48136D01*
X53586Y164200D02*
X54000D01*
X48136Y158750D02*
X53586Y164200D01*
X85706Y146300D02*
X96700D01*
X97000Y146000D01*
X55873Y147873D02*
X65474D01*
X50000Y142000D02*
X55873Y147873D01*
X122750Y139000D02*
X142000D01*
X155500Y152500D01*
X19500Y76500D02*
X36000Y60000D01*
X118500Y121000D02*
X156000D01*
X126500Y146000D02*
X135000D01*
X107000Y175000D02*
X129000Y153000D01*
X78074Y166500D02*
X106000D01*
X126500Y146000D01*
X69000Y75000D02*
X87000Y93000D01*
X43000Y75000D02*
X69000D01*
X87000Y93000D02*
Y108000D01*
X107500Y132000D02*
X118500Y121000D01*
X82500Y112500D02*
X87000Y108000D01*
X65500Y105500D02*
X80250D01*
X60000Y111000D02*
X65500Y105500D01*
X73074Y161500D02*
X78074Y166500D01*
X28000Y133000D02*
X33000D01*
X18000D02*
X28000D01*
Y124000D02*
Y133000D01*
X33000D02*
X42000Y142000D01*
X50000D01*
X63053Y167000D02*
X64000D01*
X59603Y170450D02*
X63053Y167000D01*
X89000Y128500D02*
Y140050D01*
Y128500D02*
X105000Y112500D01*
X10000Y94000D02*
X19500Y84500D01*
Y76500D02*
Y84500D01*
X5500Y163500D02*
X15170Y173170D01*
X12581Y74141D02*
X30884Y55837D01*
X12581Y74141D02*
Y82581D01*
X5500Y41500D02*
X34000Y13000D01*
X5500Y41500D02*
Y163500D01*
X10000Y94000D02*
Y154500D01*
X30000Y172500D02*
X30284D01*
X10000Y154500D02*
X20000Y164500D01*
X15170Y173170D02*
X20330D01*
X21000Y172500D01*
X29000Y152500D02*
X35250Y158750D01*
X29000Y152500D02*
Y152500D01*
X16500Y140000D02*
X29000Y152500D01*
X15000Y130000D02*
X18000Y133000D01*
X21750Y126500D02*
X22420Y125830D01*
D51*
X52500Y90000D02*
D03*
X153000Y80000D02*
D03*
X19000Y117500D02*
D03*
X51000Y118000D02*
D03*
X58500Y123500D02*
D03*
X56000Y136500D02*
D03*
X44500Y126500D02*
D03*
X35875Y124964D02*
D03*
X38834Y174375D02*
D03*
X54000Y164200D02*
D03*
X97000Y146000D02*
D03*
X65474Y147873D02*
D03*
X155500Y152500D02*
D03*
X49000Y51000D02*
D03*
X156000Y121000D02*
D03*
X140000Y154000D02*
D03*
X135000Y146000D02*
D03*
X122750Y139000D02*
D03*
X129000Y153000D02*
D03*
X125000Y11000D02*
D03*
X74000D02*
D03*
X169000Y169000D02*
D03*
X161000Y143000D02*
D03*
X152000Y95000D02*
D03*
X114000Y69000D02*
D03*
X11000Y11000D02*
D03*
X50000Y40500D02*
D03*
X66000Y84000D02*
D03*
X115000Y113000D02*
D03*
X107500Y132000D02*
D03*
X80250Y105500D02*
D03*
X100000Y44500D02*
D03*
X73074Y161500D02*
D03*
X87000Y159250D02*
D03*
X163000Y56000D02*
D03*
X64000Y167000D02*
D03*
X89000Y140050D02*
D03*
X43000Y75000D02*
D03*
X12581Y82581D02*
D03*
X30884Y55837D02*
D03*
X73000Y45000D02*
D03*
X124000Y53000D02*
D03*
X105000Y112500D02*
D03*
X30000Y172500D02*
D03*
X21000D02*
D03*
X20000Y164500D02*
D03*
X24500Y90000D02*
D03*
X21750Y126500D02*
D03*
X34000Y13000D02*
D03*
X21000Y49000D02*
D03*
X80000Y122250D02*
D03*
X16500Y140000D02*
D03*
X41500Y150500D02*
D03*
X38500Y104000D02*
D03*
M02*
