G04*
G04 #@! TF.GenerationSoftware,Altium Limited,Altium Designer,22.2.1 (43)*
G04*
G04 Layer_Color=2752767*
%FSLAX44Y44*%
%MOMM*%
G71*
G04*
G04 #@! TF.SameCoordinates,F780184D-461C-43E1-BE8C-576E9D5FD7FD*
G04*
G04*
G04 #@! TF.FilePolarity,Positive*
G04*
G01*
G75*
%ADD12C,0.2540*%
%ADD53C,0.3810*%
%ADD55C,0.0508*%
%ADD56C,0.4064*%
D12*
X-27093Y225000D02*
X-15982D01*
Y236111D01*
X-27093D02*
X-15982D01*
X-27093Y225000D02*
Y236111D01*
X1028600Y231665D02*
X1031932Y225000D01*
X1035264Y231665D01*
X1045261Y234997D02*
X1041929Y233331D01*
X1038596Y229998D01*
Y226666D01*
X1040263Y225000D01*
X1043595D01*
X1045261Y226666D01*
Y228332D01*
X1043595Y229998D01*
X1038596D01*
X1048593Y233331D02*
X1050259Y234997D01*
X1053592D01*
X1055258Y233331D01*
Y226666D01*
X1053592Y225000D01*
X1050259D01*
X1048593Y226666D01*
Y233331D01*
X1058590Y234997D02*
Y225000D01*
Y229998D01*
X1060256Y231665D01*
X1063588D01*
X1065255Y229998D01*
Y225000D01*
X1068587Y233331D02*
X1070253Y234997D01*
X1073585D01*
X1075251Y233331D01*
Y231665D01*
X1073585Y229998D01*
X1071919D01*
X1073585D01*
X1075251Y228332D01*
Y226666D01*
X1073585Y225000D01*
X1070253D01*
X1068587Y226666D01*
X1078584Y233331D02*
X1080250Y234997D01*
X1083582D01*
X1085248Y233331D01*
Y226666D01*
X1083582Y225000D01*
X1080250D01*
X1078584Y226666D01*
Y233331D01*
X901505Y225000D02*
Y234997D01*
X906504D01*
X908170Y233331D01*
Y229998D01*
X906504Y228332D01*
X901505D01*
X904838D02*
X908170Y225000D01*
X913168D02*
X916501D01*
X918167Y226666D01*
Y229998D01*
X916501Y231665D01*
X913168D01*
X911502Y229998D01*
Y226666D01*
X913168Y225000D01*
X921499Y231665D02*
Y226666D01*
X923165Y225000D01*
X928163D01*
Y231665D01*
X931496Y225000D02*
Y231665D01*
X936494D01*
X938160Y229998D01*
Y225000D01*
X948157Y234997D02*
Y225000D01*
X943159D01*
X941492Y226666D01*
Y229998D01*
X943159Y231665D01*
X948157D01*
X956488Y225000D02*
X953155D01*
X951489Y226666D01*
Y229998D01*
X953155Y231665D01*
X956488D01*
X958154Y229998D01*
Y228332D01*
X951489D01*
X968151Y234997D02*
Y225000D01*
X963152D01*
X961486Y226666D01*
Y229998D01*
X963152Y231665D01*
X968151D01*
X800403Y234997D02*
Y228332D01*
X803735Y225000D01*
X807067Y228332D01*
Y234997D01*
X810399Y225000D02*
X813732D01*
X812066D01*
Y231665D01*
X810399D01*
X820396D02*
X823728D01*
X825395Y229998D01*
Y225000D01*
X820396D01*
X818730Y226666D01*
X820396Y228332D01*
X825395D01*
X548731Y234997D02*
X555395D01*
X552063D01*
Y225000D01*
X560393D02*
X563726D01*
X565392Y226666D01*
Y229998D01*
X563726Y231665D01*
X560393D01*
X558727Y229998D01*
Y226666D01*
X560393Y225000D01*
X568724Y221668D02*
Y231665D01*
X573723D01*
X575389Y229998D01*
Y226666D01*
X573723Y225000D01*
X568724D01*
X588718Y234997D02*
Y225000D01*
X595382D01*
X600381Y231665D02*
X603713D01*
X605379Y229998D01*
Y225000D01*
X600381D01*
X598714Y226666D01*
X600381Y228332D01*
X605379D01*
X608711Y231665D02*
Y226666D01*
X610377Y225000D01*
X615376D01*
Y223334D01*
X613710Y221668D01*
X612044D01*
X615376Y225000D02*
Y231665D01*
X623707Y225000D02*
X620374D01*
X618708Y226666D01*
Y229998D01*
X620374Y231665D01*
X623707D01*
X625373Y229998D01*
Y228332D01*
X618708D01*
X628705Y231665D02*
Y225000D01*
Y228332D01*
X630371Y229998D01*
X632037Y231665D01*
X633703D01*
X648698Y229998D02*
X655363D01*
X668692Y234997D02*
Y225000D01*
X673690D01*
X675357Y226666D01*
Y228332D01*
X673690Y229998D01*
X668692D01*
X673690D01*
X675357Y231665D01*
Y233331D01*
X673690Y234997D01*
X668692D01*
X680355Y225000D02*
X683687D01*
X685353Y226666D01*
Y229998D01*
X683687Y231665D01*
X680355D01*
X678689Y229998D01*
Y226666D01*
X680355Y225000D01*
X690352Y233331D02*
Y231665D01*
X688686D01*
X692018D01*
X690352D01*
Y226666D01*
X692018Y225000D01*
X698682Y233331D02*
Y231665D01*
X697016D01*
X700348D01*
X698682D01*
Y226666D01*
X700348Y225000D01*
X707013D02*
X710345D01*
X712011Y226666D01*
Y229998D01*
X710345Y231665D01*
X707013D01*
X705347Y229998D01*
Y226666D01*
X707013Y225000D01*
X715344D02*
Y231665D01*
X717010D01*
X718676Y229998D01*
Y225000D01*
Y229998D01*
X720342Y231665D01*
X722008Y229998D01*
Y225000D01*
X735337Y234997D02*
Y225000D01*
X742002D01*
X747000Y231665D02*
X750332D01*
X751998Y229998D01*
Y225000D01*
X747000D01*
X745334Y226666D01*
X747000Y228332D01*
X751998D01*
X755331Y231665D02*
Y226666D01*
X756997Y225000D01*
X761995D01*
Y223334D01*
X760329Y221668D01*
X758663D01*
X761995Y225000D02*
Y231665D01*
X770326Y225000D02*
X766994D01*
X765328Y226666D01*
Y229998D01*
X766994Y231665D01*
X770326D01*
X771992Y229998D01*
Y228332D01*
X765328D01*
X775324Y231665D02*
Y225000D01*
Y228332D01*
X776990Y229998D01*
X778656Y231665D01*
X780323D01*
X423636Y225000D02*
Y234997D01*
X428634D01*
X430300Y233331D01*
Y229998D01*
X428634Y228332D01*
X423636D01*
X426968D02*
X430300Y225000D01*
X435299D02*
X438631D01*
X440297Y226666D01*
Y229998D01*
X438631Y231665D01*
X435299D01*
X433632Y229998D01*
Y226666D01*
X435299Y225000D01*
X443629Y231665D02*
Y226666D01*
X445295Y225000D01*
X450294D01*
Y231665D01*
X453626Y225000D02*
Y231665D01*
X458624D01*
X460290Y229998D01*
Y225000D01*
X470287Y234997D02*
Y225000D01*
X465289D01*
X463623Y226666D01*
Y229998D01*
X465289Y231665D01*
X470287D01*
X336528Y225000D02*
Y234997D01*
X341527D01*
X343193Y233331D01*
Y229998D01*
X341527Y228332D01*
X336528D01*
X346525Y234997D02*
X353190D01*
X349857D01*
Y225000D01*
X356522Y234997D02*
Y225000D01*
Y229998D01*
X363186D01*
Y234997D01*
Y225000D01*
X156500Y233331D02*
X158166Y234997D01*
X161498D01*
X163165Y233331D01*
Y226666D01*
X161498Y225000D01*
X158166D01*
X156500Y226666D01*
Y233331D01*
X166497Y225000D02*
Y226666D01*
X168163D01*
Y225000D01*
X166497D01*
X174827Y233331D02*
X176494Y234997D01*
X179826D01*
X181492Y233331D01*
Y231665D01*
X179826Y229998D01*
X178160D01*
X179826D01*
X181492Y228332D01*
Y226666D01*
X179826Y225000D01*
X176494D01*
X174827Y226666D01*
X184824Y233331D02*
X186490Y234997D01*
X189823D01*
X191489Y233331D01*
Y226666D01*
X189823Y225000D01*
X186490D01*
X184824Y226666D01*
Y233331D01*
X194821D02*
X196487Y234997D01*
X199819D01*
X201486Y233331D01*
Y226666D01*
X199819Y225000D01*
X196487D01*
X194821Y226666D01*
Y233331D01*
X204818Y225000D02*
Y231665D01*
X206484D01*
X208150Y229998D01*
Y225000D01*
Y229998D01*
X209816Y231665D01*
X211482Y229998D01*
Y225000D01*
X214814D02*
Y231665D01*
X216481D01*
X218147Y229998D01*
Y225000D01*
Y229998D01*
X219813Y231665D01*
X221479Y229998D01*
Y225000D01*
X238140D02*
X234808Y228332D01*
Y231665D01*
X238140Y234997D01*
X243139Y225000D02*
X246471D01*
X244805D01*
Y234997D01*
X243139Y233331D01*
X251469Y225000D02*
X254802D01*
X253136D01*
Y234997D01*
X251469Y233331D01*
X259800Y225000D02*
Y226666D01*
X261466D01*
Y225000D01*
X259800D01*
X268131Y233331D02*
X269797Y234997D01*
X273129D01*
X274795Y233331D01*
Y231665D01*
X273129Y229998D01*
X274795Y228332D01*
Y226666D01*
X273129Y225000D01*
X269797D01*
X268131Y226666D01*
Y228332D01*
X269797Y229998D01*
X268131Y231665D01*
Y233331D01*
X269797Y229998D02*
X273129D01*
X278127Y225000D02*
X281460D01*
X279794D01*
Y234997D01*
X278127Y233331D01*
X286458Y225000D02*
Y231665D01*
X288124D01*
X289790Y229998D01*
Y225000D01*
Y229998D01*
X291457Y231665D01*
X293123Y229998D01*
Y225000D01*
X296455D02*
X299787D01*
X298121D01*
Y231665D01*
X296455D01*
X304785Y225000D02*
X308118D01*
X306452D01*
Y234997D01*
X304785D01*
X313116Y225000D02*
X316448Y228332D01*
Y231665D01*
X313116Y234997D01*
X71441Y209997D02*
X64777D01*
Y204998D01*
X68109Y206665D01*
X69775D01*
X71441Y204998D01*
Y201666D01*
X69775Y200000D01*
X66443D01*
X64777Y201666D01*
X79772Y200000D02*
Y209997D01*
X74773Y204998D01*
X81438D01*
X94767Y209997D02*
X101431D01*
X98099D01*
Y200000D01*
X106430D02*
X109762D01*
X111428Y201666D01*
Y204998D01*
X109762Y206665D01*
X106430D01*
X104764Y204998D01*
Y201666D01*
X106430Y200000D01*
X116426Y208331D02*
Y206665D01*
X114760D01*
X118093D01*
X116426D01*
Y201666D01*
X118093Y200000D01*
X124757Y206665D02*
X128089D01*
X129755Y204998D01*
Y200000D01*
X124757D01*
X123091Y201666D01*
X124757Y203332D01*
X129755D01*
X133088Y200000D02*
X136420D01*
X134754D01*
Y209997D01*
X133088D01*
X71441Y234997D02*
X64777D01*
Y229998D01*
X68109Y231665D01*
X69775D01*
X71441Y229998D01*
Y226666D01*
X69775Y225000D01*
X66443D01*
X64777Y226666D01*
X79772Y225000D02*
Y234997D01*
X74773Y229998D01*
X81438D01*
D53*
X-37331Y242500D02*
X1139699D01*
X-37331Y217500D02*
X1139699D01*
X-37331Y192500D02*
X1139699D01*
Y267500D01*
X-37331D02*
X1139699D01*
X-37331Y192500D02*
Y267500D01*
X1021100Y192500D02*
Y267500D01*
X894005Y192500D02*
Y267500D01*
X792903Y192500D02*
Y267500D01*
X541231Y192500D02*
Y267500D01*
X416136Y192500D02*
Y267500D01*
X329028Y192500D02*
Y267500D01*
X149000Y192500D02*
Y267500D01*
X57277Y192500D02*
Y267500D01*
D55*
X35960Y101460D02*
X41040D01*
Y106540D01*
X35960D02*
X41040D01*
X35960Y101460D02*
Y106540D01*
X38960Y147960D02*
X44040D01*
Y153040D01*
X38960D02*
X44040D01*
X38960Y147960D02*
Y153040D01*
X13960Y137460D02*
X19040D01*
Y142540D01*
X13960D02*
X19040D01*
X13960Y137460D02*
Y142540D01*
X77460Y119710D02*
X82540D01*
Y124790D01*
X77460D02*
X82540D01*
X77460Y119710D02*
Y124790D01*
X18460Y46460D02*
X23540D01*
Y51540D01*
X18460D02*
X23540D01*
X18460Y46460D02*
Y51540D01*
X31460Y10460D02*
X36540D01*
Y15540D01*
X31460D02*
X36540D01*
X31460Y10460D02*
Y15540D01*
X19210Y123960D02*
X24290D01*
Y129040D01*
X19210D02*
X24290D01*
X19210Y123960D02*
Y129040D01*
X21960Y87460D02*
X27040D01*
Y92540D01*
X21960D02*
X27040D01*
X21960Y87460D02*
Y92540D01*
X17460Y161960D02*
X22540D01*
Y167040D01*
X17460D02*
X22540D01*
X17460Y161960D02*
Y167040D01*
X18460Y169960D02*
X23540D01*
Y175040D01*
X18460D02*
X23540D01*
X18460Y169960D02*
Y175040D01*
X27460Y169960D02*
X32540D01*
Y175040D01*
X27460D02*
X32540D01*
X27460Y169960D02*
Y175040D01*
X102460Y109960D02*
X107540D01*
Y115040D01*
X102460D02*
X107540D01*
X102460Y109960D02*
Y115040D01*
X121460Y50460D02*
X126540D01*
Y55540D01*
X121460D02*
X126540D01*
X121460Y50460D02*
Y55540D01*
X70460Y42460D02*
X75540D01*
Y47540D01*
X70460D02*
X75540D01*
X70460Y42460D02*
Y47540D01*
X28345Y53297D02*
X33424D01*
Y58377D01*
X28345D02*
X33424D01*
X28345Y53297D02*
Y58377D01*
X10041Y80041D02*
X15121D01*
Y85121D01*
X10041D02*
X15121D01*
X10041Y80041D02*
Y85121D01*
X40460Y72460D02*
X45540D01*
Y77540D01*
X40460D02*
X45540D01*
X40460Y72460D02*
Y77540D01*
X86460Y137510D02*
X91540D01*
Y142590D01*
X86460D02*
X91540D01*
X86460Y137510D02*
Y142590D01*
X61460Y164460D02*
X66540D01*
Y169540D01*
X61460D02*
X66540D01*
X61460Y164460D02*
Y169540D01*
X160460Y53460D02*
X165540D01*
Y58540D01*
X160460D02*
X165540D01*
X160460Y53460D02*
Y58540D01*
X84460Y156710D02*
X89540D01*
Y161790D01*
X84460D02*
X89540D01*
X84460Y156710D02*
Y161790D01*
X70534Y158960D02*
X75614D01*
Y164040D01*
X70534D02*
X75614D01*
X70534Y158960D02*
Y164040D01*
X97460Y41960D02*
X102540D01*
Y47040D01*
X97460D02*
X102540D01*
X97460Y41960D02*
Y47040D01*
X77710Y102960D02*
X82790D01*
Y108040D01*
X77710D02*
X82790D01*
X77710Y102960D02*
Y108040D01*
X104960Y129460D02*
X110040D01*
Y134540D01*
X104960D02*
X110040D01*
X104960Y129460D02*
Y134540D01*
X112460Y110460D02*
X117540D01*
Y115540D01*
X112460D02*
X117540D01*
X112460Y110460D02*
Y115540D01*
X63460Y81460D02*
X68540D01*
Y86540D01*
X63460D02*
X68540D01*
X63460Y81460D02*
Y86540D01*
X47460Y37960D02*
X52540D01*
Y43040D01*
X47460D02*
X52540D01*
X47460Y37960D02*
Y43040D01*
X8460Y8460D02*
X13540D01*
Y13540D01*
X8460D02*
X13540D01*
X8460Y8460D02*
Y13540D01*
X111460Y66460D02*
X116540D01*
Y71540D01*
X111460D02*
X116540D01*
X111460Y66460D02*
Y71540D01*
X149460Y92460D02*
X154540D01*
Y97540D01*
X149460D02*
X154540D01*
X149460Y92460D02*
Y97540D01*
X158460Y140460D02*
X163540D01*
Y145540D01*
X158460D02*
X163540D01*
X158460Y140460D02*
Y145540D01*
X166460Y166460D02*
X171540D01*
Y171540D01*
X166460D02*
X171540D01*
X166460Y166460D02*
Y171540D01*
X71460Y8460D02*
X76540D01*
Y13540D01*
X71460D02*
X76540D01*
X71460Y8460D02*
Y13540D01*
X122460Y8460D02*
X127540D01*
Y13540D01*
X122460D02*
X127540D01*
X122460Y8460D02*
Y13540D01*
X126460Y150460D02*
X131540D01*
Y155540D01*
X126460D02*
X131540D01*
X126460Y150460D02*
Y155540D01*
X120210Y136460D02*
X125290D01*
Y141540D01*
X120210D02*
X125290D01*
X120210Y136460D02*
Y141540D01*
X132460Y143460D02*
X137540D01*
Y148540D01*
X132460D02*
X137540D01*
X132460Y143460D02*
Y148540D01*
X137460Y151460D02*
X142540D01*
Y156540D01*
X137460D02*
X142540D01*
X137460Y151460D02*
Y156540D01*
X153460Y118460D02*
X158540D01*
Y123540D01*
X153460D02*
X158540D01*
X153460Y118460D02*
Y123540D01*
X46460Y48460D02*
X51540D01*
Y53540D01*
X46460D02*
X51540D01*
X46460Y48460D02*
Y53540D01*
X152960Y149960D02*
X158040D01*
Y155040D01*
X152960D02*
X158040D01*
X152960Y149960D02*
Y155040D01*
X62934Y145333D02*
X68014D01*
Y150413D01*
X62934D02*
X68014D01*
X62934Y145333D02*
Y150413D01*
X94460Y143460D02*
X99540D01*
Y148540D01*
X94460D02*
X99540D01*
X94460Y143460D02*
Y148540D01*
X51460Y161660D02*
X56540D01*
Y166740D01*
X51460D02*
X56540D01*
X51460Y161660D02*
Y166740D01*
X36294Y171835D02*
X41374D01*
Y176915D01*
X36294D02*
X41374D01*
X36294Y171835D02*
Y176915D01*
X33335Y122424D02*
X38415D01*
Y127504D01*
X33335D02*
X38415D01*
X33335Y122424D02*
Y127504D01*
X41960Y123960D02*
X47040D01*
Y129040D01*
X41960D02*
X47040D01*
X41960Y123960D02*
Y129040D01*
X53460Y133960D02*
X58540D01*
Y139040D01*
X53460D02*
X58540D01*
X53460Y133960D02*
Y139040D01*
X55960Y120960D02*
X61040D01*
Y126040D01*
X55960D02*
X61040D01*
X55960Y120960D02*
Y126040D01*
X48460Y115460D02*
X53540D01*
Y120540D01*
X48460D02*
X53540D01*
X48460Y115460D02*
Y120540D01*
X16460Y114960D02*
X21540D01*
Y120040D01*
X16460D02*
X21540D01*
X16460Y114960D02*
Y120040D01*
X150460Y77460D02*
X155540D01*
Y82540D01*
X150460D02*
X155540D01*
X150460Y77460D02*
Y82540D01*
X49960Y87460D02*
X55040D01*
Y92540D01*
X49960D02*
X55040D01*
X49960Y87460D02*
Y92540D01*
D56*
X1028600Y261996D02*
X1036597D01*
X1032598D01*
Y250000D01*
X1046594D02*
X1042595D01*
X1040596Y251999D01*
Y255998D01*
X1042595Y257997D01*
X1046594D01*
X1048593Y255998D01*
Y253999D01*
X1040596D01*
X1052592Y250000D02*
Y257997D01*
X1054591D01*
X1056591Y255998D01*
Y250000D01*
Y255998D01*
X1058590Y257997D01*
X1060589Y255998D01*
Y250000D01*
X1064588Y246001D02*
Y257997D01*
X1070586D01*
X1072586Y255998D01*
Y251999D01*
X1070586Y250000D01*
X1064588D01*
X1076584D02*
X1080583D01*
X1078584D01*
Y261996D01*
X1076584D01*
X1088580Y257997D02*
X1092579D01*
X1094578Y255998D01*
Y250000D01*
X1088580D01*
X1086581Y251999D01*
X1088580Y253999D01*
X1094578D01*
X1100576Y259997D02*
Y257997D01*
X1098577D01*
X1102576D01*
X1100576D01*
Y251999D01*
X1102576Y250000D01*
X1114572D02*
X1110573D01*
X1108574Y251999D01*
Y255998D01*
X1110573Y257997D01*
X1114572D01*
X1116571Y255998D01*
Y253999D01*
X1108574D01*
X901505Y250000D02*
Y261996D01*
X907503D01*
X909503Y259997D01*
Y255998D01*
X907503Y253999D01*
X901505D01*
X915501Y257997D02*
X919500D01*
X921499Y255998D01*
Y250000D01*
X915501D01*
X913502Y251999D01*
X915501Y253999D01*
X921499D01*
X933495Y261996D02*
Y250000D01*
X927497D01*
X925498Y251999D01*
Y255998D01*
X927497Y257997D01*
X933495D01*
X957487Y259997D02*
X955488Y261996D01*
X951489D01*
X949490Y259997D01*
Y257997D01*
X951489Y255998D01*
X955488D01*
X957487Y253999D01*
Y251999D01*
X955488Y250000D01*
X951489D01*
X949490Y251999D01*
X961486Y261996D02*
Y250000D01*
Y255998D01*
X963485Y257997D01*
X967484D01*
X969483Y255998D01*
Y250000D01*
X975481Y257997D02*
X979480D01*
X981479Y255998D01*
Y250000D01*
X975481D01*
X973482Y251999D01*
X975481Y253999D01*
X981479D01*
X985478Y246001D02*
Y257997D01*
X991476D01*
X993476Y255998D01*
Y251999D01*
X991476Y250000D01*
X985478D01*
X1003472D02*
X999474D01*
X997474Y251999D01*
Y255998D01*
X999474Y257997D01*
X1003472D01*
X1005472Y255998D01*
Y253999D01*
X997474D01*
X800403Y261996D02*
Y253999D01*
X804401Y250000D01*
X808400Y253999D01*
Y261996D01*
X812399Y250000D02*
X816397D01*
X814398D01*
Y257997D01*
X812399D01*
X824395D02*
X828394D01*
X830393Y255998D01*
Y250000D01*
X824395D01*
X822395Y251999D01*
X824395Y253999D01*
X830393D01*
X834392Y250000D02*
X842389Y257997D01*
X846388Y250000D02*
Y261996D01*
X852386D01*
X854385Y259997D01*
Y255998D01*
X852386Y253999D01*
X846388D01*
X860383Y257997D02*
X864382D01*
X866381Y255998D01*
Y250000D01*
X860383D01*
X858384Y251999D01*
X860383Y253999D01*
X866381D01*
X878377Y261996D02*
Y250000D01*
X872379D01*
X870380Y251999D01*
Y255998D01*
X872379Y257997D01*
X878377D01*
X548731Y261996D02*
Y250000D01*
X554729D01*
X556728Y251999D01*
Y259997D01*
X554729Y261996D01*
X548731D01*
X560727Y257997D02*
Y250000D01*
Y253999D01*
X562726Y255998D01*
X564725Y257997D01*
X566725D01*
X572723Y250000D02*
X576722D01*
X574722D01*
Y257997D01*
X572723D01*
X582720Y250000D02*
X586718D01*
X584719D01*
Y261996D01*
X582720D01*
X592716Y250000D02*
X596715D01*
X594716D01*
Y261996D01*
X592716D01*
X614709D02*
Y250000D01*
X622707D01*
X628705Y257997D02*
X632704D01*
X634703Y255998D01*
Y250000D01*
X628705D01*
X626705Y251999D01*
X628705Y253999D01*
X634703D01*
X638702Y257997D02*
Y251999D01*
X640701Y250000D01*
X646699D01*
Y248001D01*
X644700Y246001D01*
X642700D01*
X646699Y250000D02*
Y257997D01*
X656696Y250000D02*
X652697D01*
X650698Y251999D01*
Y255998D01*
X652697Y257997D01*
X656696D01*
X658695Y255998D01*
Y253999D01*
X650698D01*
X662694Y257997D02*
Y250000D01*
Y253999D01*
X664693Y255998D01*
X666693Y257997D01*
X668692D01*
X686686Y250000D02*
Y261996D01*
X692684D01*
X694683Y259997D01*
Y255998D01*
X692684Y253999D01*
X686686D01*
X700682Y257997D02*
X704680D01*
X706680Y255998D01*
Y250000D01*
X700682D01*
X698682Y251999D01*
X700682Y253999D01*
X706680D01*
X710678Y250000D02*
X714677D01*
X712678D01*
Y257997D01*
X710678D01*
X720675D02*
Y250000D01*
Y253999D01*
X722674Y255998D01*
X724674Y257997D01*
X726673D01*
X423636Y261996D02*
Y250000D01*
Y255998D01*
X431633D01*
Y261996D01*
Y250000D01*
X437631D02*
X441630D01*
X443629Y251999D01*
Y255998D01*
X441630Y257997D01*
X437631D01*
X435632Y255998D01*
Y251999D01*
X437631Y250000D01*
X447628D02*
X451627D01*
X449627D01*
Y261996D01*
X447628D01*
X463623Y250000D02*
X459624D01*
X457625Y251999D01*
Y255998D01*
X459624Y257997D01*
X463623D01*
X465622Y255998D01*
Y253999D01*
X457625D01*
X481617Y261996D02*
X489614D01*
X485616D01*
Y250000D01*
X493613Y257997D02*
Y251999D01*
X495612Y250000D01*
X501610D01*
Y248001D01*
X499611Y246001D01*
X497612D01*
X501610Y250000D02*
Y257997D01*
X505609Y246001D02*
Y257997D01*
X511607D01*
X513606Y255998D01*
Y251999D01*
X511607Y250000D01*
X505609D01*
X523603D02*
X519605D01*
X517605Y251999D01*
Y255998D01*
X519605Y257997D01*
X523603D01*
X525603Y255998D01*
Y253999D01*
X517605D01*
X336528Y250000D02*
Y261996D01*
X342526D01*
X344526Y259997D01*
Y255998D01*
X342526Y253999D01*
X336528D01*
X348525Y250000D02*
X352523D01*
X350524D01*
Y261996D01*
X348525D01*
X360521Y257997D02*
X364519D01*
X366519Y255998D01*
Y250000D01*
X360521D01*
X358521Y251999D01*
X360521Y253999D01*
X366519D01*
X372517Y259997D02*
Y257997D01*
X370517D01*
X374516D01*
X372517D01*
Y251999D01*
X374516Y250000D01*
X386512D02*
X382514D01*
X380514Y251999D01*
Y255998D01*
X382514Y257997D01*
X386512D01*
X388512Y255998D01*
Y253999D01*
X380514D01*
X400508Y261996D02*
Y250000D01*
X394510D01*
X392510Y251999D01*
Y255998D01*
X394510Y257997D01*
X400508D01*
X156500Y261996D02*
Y250000D01*
Y255998D01*
X164497D01*
Y261996D01*
Y250000D01*
X170495D02*
X174494D01*
X176493Y251999D01*
Y255998D01*
X174494Y257997D01*
X170495D01*
X168496Y255998D01*
Y251999D01*
X170495Y250000D01*
X180492D02*
X184491D01*
X182492D01*
Y261996D01*
X180492D01*
X196487Y250000D02*
X192488D01*
X190489Y251999D01*
Y255998D01*
X192488Y257997D01*
X196487D01*
X198486Y255998D01*
Y253999D01*
X190489D01*
X222479Y259997D02*
X220479Y261996D01*
X216481D01*
X214481Y259997D01*
Y257997D01*
X216481Y255998D01*
X220479D01*
X222479Y253999D01*
Y251999D01*
X220479Y250000D01*
X216481D01*
X214481Y251999D01*
X226477Y250000D02*
X230476D01*
X228477D01*
Y257997D01*
X226477D01*
X236474D02*
X244471D01*
X236474Y250000D01*
X244471D01*
X254468D02*
X250470D01*
X248470Y251999D01*
Y255998D01*
X250470Y257997D01*
X254468D01*
X256468Y255998D01*
Y253999D01*
X248470D01*
X72774Y259997D02*
X70774Y261996D01*
X66776D01*
X64777Y259997D01*
Y251999D01*
X66776Y250000D01*
X70774D01*
X72774Y251999D01*
X78772Y250000D02*
X82771D01*
X84770Y251999D01*
Y255998D01*
X82771Y257997D01*
X78772D01*
X76773Y255998D01*
Y251999D01*
X78772Y250000D01*
X88769Y257997D02*
Y251999D01*
X90768Y250000D01*
X96766D01*
Y257997D01*
X100765Y250000D02*
Y257997D01*
X106763D01*
X108762Y255998D01*
Y250000D01*
X114760Y259997D02*
Y257997D01*
X112761D01*
X116760D01*
X114760D01*
Y251999D01*
X116760Y250000D01*
X-14333Y259997D02*
X-16333Y261996D01*
X-20331D01*
X-22331Y259997D01*
Y257997D01*
X-20331Y255998D01*
X-16333D01*
X-14333Y253999D01*
Y251999D01*
X-16333Y250000D01*
X-20331D01*
X-22331Y251999D01*
X-10335Y257997D02*
Y251999D01*
X-8335Y250000D01*
X-2337D01*
Y248001D01*
X-4337Y246001D01*
X-6336D01*
X-2337Y250000D02*
Y257997D01*
X1661Y250000D02*
Y257997D01*
X3661D01*
X5660Y255998D01*
Y250000D01*
Y255998D01*
X7660Y257997D01*
X9659Y255998D01*
Y250000D01*
X13658Y261996D02*
Y250000D01*
X19656D01*
X21655Y251999D01*
Y253999D01*
Y255998D01*
X19656Y257997D01*
X13658D01*
X27653Y250000D02*
X31652D01*
X33651Y251999D01*
Y255998D01*
X31652Y257997D01*
X27653D01*
X25654Y255998D01*
Y251999D01*
X27653Y250000D01*
X37650D02*
X41649D01*
X39649D01*
Y261996D01*
X37650D01*
M02*
