G04*
G04 #@! TF.GenerationSoftware,Altium Limited,Altium Designer,22.2.1 (43)*
G04*
G04 Layer_Color=128*
%FSLAX44Y44*%
%MOMM*%
G71*
G04*
G04 #@! TF.SameCoordinates,F780184D-461C-43E1-BE8C-576E9D5FD7FD*
G04*
G04*
G04 #@! TF.FilePolarity,Positive*
G04*
G01*
G75*
%ADD55C,0.0508*%
D55*
X51000Y90000D02*
X54000D01*
X52500Y88500D02*
Y91500D01*
X151500Y80000D02*
X154500D01*
X153000Y78500D02*
Y81500D01*
X17500Y117500D02*
X20500D01*
X19000Y116000D02*
Y119000D01*
X49500Y118000D02*
X52500D01*
X51000Y116500D02*
Y119500D01*
X57000Y123500D02*
X60000D01*
X58500Y122000D02*
Y125000D01*
X54500Y136500D02*
X57500D01*
X56000Y135000D02*
Y138000D01*
X43000Y126500D02*
X46000D01*
X44500Y125000D02*
Y128000D01*
X34375Y124964D02*
X37375D01*
X35875Y123464D02*
Y126464D01*
X37334Y174375D02*
X40334D01*
X38834Y172875D02*
Y175875D01*
X52500Y164200D02*
X55500D01*
X54000Y162700D02*
Y165700D01*
X95500Y146000D02*
X98500D01*
X97000Y144500D02*
Y147500D01*
X63974Y147873D02*
X66974D01*
X65474Y146373D02*
Y149373D01*
X154000Y152500D02*
X157000D01*
X155500Y151000D02*
Y154000D01*
X47500Y51000D02*
X50500D01*
X49000Y49500D02*
Y52500D01*
X154500Y121000D02*
X157500D01*
X156000Y119500D02*
Y122500D01*
X138500Y154000D02*
X141500D01*
X140000Y152500D02*
Y155500D01*
X133500Y146000D02*
X136500D01*
X135000Y144500D02*
Y147500D01*
X121250Y139000D02*
X124250D01*
X122750Y137500D02*
Y140500D01*
X127500Y153000D02*
X130500D01*
X129000Y151500D02*
Y154500D01*
X123500Y11000D02*
X126500D01*
X125000Y9500D02*
Y12500D01*
X72500Y11000D02*
X75500D01*
X74000Y9500D02*
Y12500D01*
X167500Y169000D02*
X170500D01*
X169000Y167500D02*
Y170500D01*
X159500Y143000D02*
X162500D01*
X161000Y141500D02*
Y144500D01*
X150500Y95000D02*
X153500D01*
X152000Y93500D02*
Y96500D01*
X112500Y69000D02*
X115500D01*
X114000Y67500D02*
Y70500D01*
X9500Y11000D02*
X12500D01*
X11000Y9500D02*
Y12500D01*
X48500Y40500D02*
X51500D01*
X50000Y39000D02*
Y42000D01*
X64500Y84000D02*
X67500D01*
X66000Y82500D02*
Y85500D01*
X113500Y113000D02*
X116500D01*
X115000Y111500D02*
Y114500D01*
X106000Y132000D02*
X109000D01*
X107500Y130500D02*
Y133500D01*
X78750Y105500D02*
X81750D01*
X80250Y104000D02*
Y107000D01*
X98500Y44500D02*
X101500D01*
X100000Y43000D02*
Y46000D01*
X71574Y161500D02*
X74574D01*
X73074Y160000D02*
Y163000D01*
X85500Y159250D02*
X88500D01*
X87000Y157750D02*
Y160750D01*
X161500Y56000D02*
X164500D01*
X163000Y54500D02*
Y57500D01*
X62500Y167000D02*
X65500D01*
X64000Y165500D02*
Y168500D01*
X87500Y140050D02*
X90500D01*
X89000Y138550D02*
Y141550D01*
X41500Y75000D02*
X44500D01*
X43000Y73500D02*
Y76500D01*
X11081Y82581D02*
X14081D01*
X12581Y81081D02*
Y84081D01*
X29385Y55837D02*
X32385D01*
X30884Y54337D02*
Y57337D01*
X71500Y45000D02*
X74500D01*
X73000Y43500D02*
Y46500D01*
X122500Y53000D02*
X125500D01*
X124000Y51500D02*
Y54500D01*
X103500Y112500D02*
X106500D01*
X105000Y111000D02*
Y114000D01*
X28500Y172500D02*
X31500D01*
X30000Y171000D02*
Y174000D01*
X19500Y172500D02*
X22500D01*
X21000Y171000D02*
Y174000D01*
X18500Y164500D02*
X21500D01*
X20000Y163000D02*
Y166000D01*
X23000Y90000D02*
X26000D01*
X24500Y88500D02*
Y91500D01*
X20250Y126500D02*
X23250D01*
X21750Y125000D02*
Y128000D01*
X32500Y13000D02*
X35500D01*
X34000Y11500D02*
Y14500D01*
X19500Y49000D02*
X22500D01*
X21000Y47500D02*
Y50500D01*
X78500Y122250D02*
X81500D01*
X80000Y120750D02*
Y123750D01*
X15000Y140000D02*
X18000D01*
X16500Y138500D02*
Y141500D01*
X40000Y150500D02*
X43000D01*
X41500Y149000D02*
Y152000D01*
X37000Y104000D02*
X40000D01*
X38500Y102500D02*
Y105500D01*
M02*
