G04*
G04 #@! TF.GenerationSoftware,Altium Limited,Altium Designer,22.2.1 (43)*
G04*
G04 Layer_Color=128*
%FSLAX44Y44*%
%MOMM*%
G71*
G04*
G04 #@! TF.SameCoordinates,612C7892-4D37-43AA-9E06-CC9A3CA42B8A*
G04*
G04*
G04 #@! TF.FilePolarity,Positive*
G04*
G01*
G75*
%ADD53C,0.0508*%
D53*
X112000Y57500D02*
X115000D01*
X113500Y56000D02*
Y59000D01*
X128500Y64000D02*
X131500D01*
X130000Y62500D02*
Y65500D01*
X43483Y101517D02*
X46483D01*
X44983Y100017D02*
Y103017D01*
X35500Y101000D02*
X38500D01*
X37000Y99500D02*
Y102500D01*
X24000Y135000D02*
X27000D01*
X25500Y133500D02*
Y136500D01*
X72500Y24500D02*
X75500D01*
X74000Y23000D02*
Y26000D01*
X65500Y32000D02*
X68500D01*
X67000Y30500D02*
Y33500D01*
X18500Y78409D02*
X21500D01*
X20000Y76909D02*
Y79909D01*
X18500Y129000D02*
X21500D01*
X20000Y127500D02*
Y130500D01*
X57500Y133200D02*
X60500D01*
X59000Y131700D02*
Y134700D01*
X113000Y88000D02*
X116000D01*
X114500Y86500D02*
Y89500D01*
X136000Y81500D02*
X139000D01*
X137500Y80000D02*
Y83000D01*
X155000Y110000D02*
X158000D01*
X156500Y108500D02*
Y111500D01*
X78000Y162000D02*
X81000D01*
X79500Y160500D02*
Y163500D01*
X140000Y146500D02*
X143000D01*
X141500Y145000D02*
Y148000D01*
X161000Y143000D02*
X164000D01*
X162500Y141500D02*
Y144500D01*
X153500Y87000D02*
X156500D01*
X155000Y85500D02*
Y88500D01*
X88500Y57000D02*
X91500D01*
X90000Y55500D02*
Y58500D01*
X137000Y29000D02*
X140000D01*
X138500Y27500D02*
Y30500D01*
X96500Y32500D02*
X99500D01*
X98000Y31000D02*
Y34000D01*
X41500Y36000D02*
X44500D01*
X43000Y34500D02*
Y37500D01*
X26000Y88000D02*
X29000D01*
X27500Y86500D02*
Y89500D01*
X40000Y75500D02*
X43000D01*
X41500Y74000D02*
Y77000D01*
X79500Y68000D02*
X82500D01*
X81000Y66500D02*
Y69500D01*
X56250Y88000D02*
X59250D01*
X57750Y86500D02*
Y89500D01*
X103500Y162500D02*
X106500D01*
X105000Y161000D02*
Y164000D01*
X9500Y11000D02*
X12500D01*
X11000Y9500D02*
Y12500D01*
X169000Y56500D02*
X172000D01*
X170500Y55000D02*
Y58000D01*
X160500Y28500D02*
X163500D01*
X162000Y27000D02*
Y30000D01*
X168500Y11000D02*
X171500D01*
X170000Y9500D02*
Y12500D01*
X64000Y139000D02*
X67000D01*
X65500Y137500D02*
Y140500D01*
X57000Y110000D02*
X60000D01*
X58500Y108500D02*
Y111500D01*
X53000Y61500D02*
X56000D01*
X54500Y60000D02*
Y63000D01*
X73500Y12500D02*
X76500D01*
X75000Y11000D02*
Y14000D01*
X56000Y53500D02*
X59000D01*
X57500Y52000D02*
Y55000D01*
X19000Y48500D02*
X22000D01*
X20500Y47000D02*
Y50000D01*
X12000Y64000D02*
X15000D01*
X13500Y62500D02*
Y65500D01*
X42000Y109500D02*
X45000D01*
X43500Y108000D02*
Y111000D01*
X41500Y46000D02*
X44500D01*
X43000Y44500D02*
Y47500D01*
X78500Y89000D02*
X81500D01*
X80000Y87500D02*
Y90500D01*
X120000Y131500D02*
X123000D01*
X121500Y130000D02*
Y133000D01*
X40500Y123000D02*
X43500D01*
X42000Y121500D02*
Y124500D01*
X25500Y61000D02*
X28500D01*
X27000Y59500D02*
Y62500D01*
X25000Y18000D02*
X28000D01*
X26500Y16500D02*
Y19500D01*
X78500Y151500D02*
X81500D01*
X80000Y150000D02*
Y153000D01*
X102000Y112500D02*
X105000D01*
X103500Y111000D02*
Y114000D01*
X52000Y159500D02*
X55000D01*
X53500Y158000D02*
Y161000D01*
X21000Y159450D02*
X24000D01*
X22500Y157950D02*
Y160950D01*
X11406Y146459D02*
X14406D01*
X12906Y144959D02*
Y147959D01*
X10000Y168500D02*
X13000D01*
X11500Y167000D02*
Y170000D01*
X40588Y171042D02*
X43589D01*
X42088Y169542D02*
Y172542D01*
X65000Y155500D02*
X68000D01*
X66500Y154000D02*
Y157000D01*
X17656Y93500D02*
X20656D01*
X19156Y92000D02*
Y95000D01*
X38000Y147000D02*
X41000D01*
X39500Y145500D02*
Y148500D01*
X155500Y153500D02*
X158500D01*
X157000Y152000D02*
Y155000D01*
X123500Y11000D02*
X126500D01*
X125000Y9500D02*
Y12500D01*
M02*
