G04*
G04 #@! TF.GenerationSoftware,Altium Limited,Altium Designer,21.7.2 (23)*
G04*
G04 Layer_Color=8388736*
%FSLAX44Y44*%
%MOMM*%
G71*
G04*
G04 #@! TF.SameCoordinates,8E291924-2404-49F4-9988-9A68E61253C5*
G04*
G04*
G04 #@! TF.FilePolarity,Negative*
G04*
G01*
G75*
%ADD17R,2.2032X1.7032*%
%ADD18R,1.7032X2.2032*%
%ADD19R,2.0032X1.1532*%
%ADD20R,0.7600X0.7100*%
%ADD21R,1.8032X1.5032*%
%ADD22R,1.8032X2.2032*%
%ADD23R,1.0032X0.8032*%
%ADD24R,0.7100X0.7600*%
D17*
X10000Y15000D02*
D03*
Y40000D02*
D03*
Y65000D02*
D03*
D18*
X115000Y90000D02*
D03*
X90000D02*
D03*
D19*
X121000Y12000D02*
D03*
Y71000D02*
D03*
D20*
X74250Y71500D02*
D03*
X66750D02*
D03*
X74250Y62000D02*
D03*
X66750D02*
D03*
X66750Y83500D02*
D03*
X74250D02*
D03*
D21*
X42000Y44500D02*
D03*
Y19500D02*
D03*
D22*
X71000Y32000D02*
D03*
D23*
X109500Y24000D02*
D03*
X87500Y14500D02*
D03*
Y33500D02*
D03*
X109500Y57000D02*
D03*
X87500Y47500D02*
D03*
Y66500D02*
D03*
X55000Y74000D02*
D03*
X33000Y64500D02*
D03*
Y83500D02*
D03*
D24*
X120500Y33750D02*
D03*
Y41250D02*
D03*
Y51250D02*
D03*
Y58750D02*
D03*
X27000Y23750D02*
D03*
Y16250D02*
D03*
Y41750D02*
D03*
Y34250D02*
D03*
M02*
