G04*
G04 #@! TF.GenerationSoftware,Altium Limited,Altium Designer,21.7.2 (23)*
G04*
G04 Layer_Physical_Order=1*
G04 Layer_Color=3707366*
%FSLAX44Y44*%
%MOMM*%
G71*
G04*
G04 #@! TF.SameCoordinates,B47A6715-749F-4166-A91F-98B8C4730ED7*
G04*
G04*
G04 #@! TF.FilePolarity,Positive*
G04*
G01*
G75*
%ADD12R,0.5000X0.4500*%
%ADD13R,1.6000X1.3000*%
%ADD14R,1.6000X2.0000*%
%ADD15R,0.8000X0.6000*%
%ADD16R,0.4500X0.5000*%
%ADD25R,2.0000X1.5000*%
%ADD26R,1.5000X2.0000*%
%ADD27R,1.8000X0.9500*%
%ADD28C,0.3000*%
D12*
X74250Y71500D02*
D03*
X66750D02*
D03*
X74250Y62000D02*
D03*
X66750D02*
D03*
X66750Y83500D02*
D03*
X74250D02*
D03*
D13*
X42000Y44500D02*
D03*
Y19500D02*
D03*
D14*
X71000Y32000D02*
D03*
D15*
X109500Y24000D02*
D03*
X87500Y14500D02*
D03*
Y33500D02*
D03*
X109500Y57000D02*
D03*
X87500Y47500D02*
D03*
Y66500D02*
D03*
X55000Y74000D02*
D03*
X33000Y64500D02*
D03*
Y83500D02*
D03*
D16*
X120500Y33750D02*
D03*
Y41250D02*
D03*
Y51250D02*
D03*
Y58750D02*
D03*
X27000Y23750D02*
D03*
Y16250D02*
D03*
Y41750D02*
D03*
Y34250D02*
D03*
D25*
X10000Y15000D02*
D03*
Y40000D02*
D03*
Y65000D02*
D03*
D26*
X115000Y90000D02*
D03*
X90000D02*
D03*
D27*
X121000Y12000D02*
D03*
Y71000D02*
D03*
D28*
X109000Y24000D02*
X110500Y25500D01*
X120000Y33500D02*
Y33750D01*
X110500Y24000D02*
X119250Y32750D01*
X119750D02*
X120500Y33500D01*
X109500Y24000D02*
X110500D01*
X119250Y32750D02*
X119750D01*
X120500Y33500D02*
Y33750D01*
X87500Y14500D02*
X118500D01*
X84500D02*
X87500D01*
X118500D02*
X121000Y12000D01*
X101500Y41500D02*
Y66500D01*
Y33500D02*
Y41500D01*
X101750Y41250D01*
X120500D01*
X95500Y41000D02*
Y52500D01*
X91000Y57000D02*
X95500Y52500D01*
X88000Y33500D02*
X95500Y41000D01*
X94000Y26000D02*
X101500Y33500D01*
Y66500D02*
X106000Y71000D01*
X120500Y41250D02*
Y51250D01*
X109500Y57000D02*
X111000Y58500D01*
X113757D02*
X113757Y58500D01*
X120500D01*
X111000Y58500D02*
X113757D01*
X33000Y83500D02*
X66750D01*
X63750Y62750D02*
X66000D01*
X57500Y69000D02*
Y72500D01*
Y69000D02*
X63750Y62750D01*
X66000D02*
X66750Y62000D01*
X55000Y74000D02*
X56000D01*
X57500Y72500D01*
X33000Y64500D02*
X47500D01*
X64500Y47500D01*
X87500D01*
X27000Y16250D02*
X38250D01*
X41500Y19500D01*
X18500Y30000D02*
Y34000D01*
Y30000D02*
X23750Y24750D01*
X26250D01*
X27000Y24000D01*
Y23750D02*
Y24000D01*
X10000Y40000D02*
X12500D01*
X9500D02*
X10000D01*
X12500D02*
X18500Y34000D01*
X70500Y32000D02*
X76500Y26000D01*
X27750Y33250D02*
X28000D01*
X29500Y31750D01*
X27000Y34000D02*
Y34250D01*
Y34000D02*
X27750Y33250D01*
X29500Y31750D02*
X70250D01*
X10000Y40000D02*
X11750Y41750D01*
X27000D01*
X81000Y71500D02*
X86000Y66500D01*
X74250Y71000D02*
X74250D01*
Y71500D02*
X81000D01*
X67000D02*
X67750Y72250D01*
Y74800D01*
X67000Y71000D02*
X67125Y71125D01*
X66750Y71000D02*
X67000D01*
X73250Y82750D02*
X74000Y83500D01*
X73250Y80300D02*
Y82750D01*
X67750Y74800D02*
X73250Y80300D01*
X74000Y83500D02*
X74250D01*
X66750Y71500D02*
X67000D01*
X16000Y9000D02*
X53750D01*
X10000Y15000D02*
X16000Y9000D01*
X10000Y65000D02*
X10500Y64500D01*
X33000D01*
X84000Y83500D02*
X90000Y89500D01*
X74250Y83500D02*
X84000D01*
X90000Y89500D02*
Y90000D01*
X115000Y74250D02*
X118250Y71000D01*
X115000Y74250D02*
Y90000D01*
X118250Y71000D02*
X121000D01*
X106000D02*
X118250D01*
X26500Y16250D02*
X27000D01*
X26500Y34250D02*
X27000D01*
X76500Y26000D02*
X94000D01*
X110500Y25500D02*
X112000D01*
X120000Y33500D01*
X74250Y62000D02*
X74500D01*
X79500Y57000D02*
X91000D01*
X74500Y62000D02*
X79500Y57000D01*
X87000Y33500D02*
X88000D01*
X86000Y66500D02*
X87000D01*
X59250Y14500D02*
X84500D01*
X53750Y9000D02*
X59250Y14500D01*
X84500D02*
X85500Y13500D01*
M02*
