M48
;Layer_Color=9474304
;FILE_FORMAT=2:5
INCH,LZ
;TYPE=PLATED
T1F00S00C0.01181
%
T01
X0005118Y0005118
X0011811Y0008465
X0015177Y0009843
X0009449Y0011417
X0007087Y0016142
X0009843Y0024409
X0004134Y0025787
X0009843Y0036614
X0016535Y0039961
X0013386Y0045276
X002126
X0028957Y0037402
X0024606Y0031496
X0021654Y0025394
X0027559Y0020866
X0030413Y0016043
X0025991Y0009953
X0026772Y0004331
X0020079Y0015354
X0015748Y0031102
X0009843Y0050394
X0004724
X0032677Y0056693
X0035433Y0022047
X003823Y0028463
X0044882Y0022835
X0045276Y0009055
Y0004331
X0055905Y0005906
Y0017323
X0055512Y0027559
X0063779Y0023819
X0072047Y0016929
X0072835Y0049016
X0063779Y0056496
X0055118Y0050787
X0043701Y0051968
X0038189
Y0048031
X004252Y0057087
M30
